<svg width="384" height="320" viewBox="0 0 384 320" fill="none" xmlns="http://www.w3.org/2000/svg">
<path d="M213.668 56.7993C215.573 55.5295 218.657 55.5347 220.558 56.811L379.98 163.885C384.022 166.601 384.023 175.794 379.971 178.496L170.752 317.975C168.847 319.245 165.763 319.239 163.862 317.963L4.44049 210.889C0.39766 208.174 0.396248 198.98 4.4483 196.279L213.668 56.7993Z" fill="black" fill-opacity="0.7"/>
<path d="M217.114 56.3503C218.283 56.3524 219.427 56.6545 220.279 57.2263L379.701 164.301C381.519 165.522 382.511 168.29 382.51 171.195C382.509 174.1 381.515 176.865 379.693 178.08L170.474 317.559C169.621 318.128 168.476 318.426 167.306 318.424C166.137 318.422 164.993 318.12 164.141 317.549L4.71936 210.474C2.9005 209.253 1.90803 206.484 1.90881 203.579C1.90961 200.674 2.90336 197.91 4.72522 196.695L213.945 57.2156C214.798 56.6466 215.944 56.3484 217.114 56.3503Z" stroke="white" stroke-opacity="0.12"/>
<rect width="259.74" height="200.332" rx="4.14479" transform="matrix(0.83205 -0.5547 0.830139 0.557556 1 198.578)" fill="#181622"/>
<rect x="0.831095" y="0.00142801" width="258.74" height="199.332" rx="3.64479" transform="matrix(0.83205 -0.5547 0.830139 0.557556 1.1384 199.04)" stroke="white" stroke-opacity="0.15"/>
<path d="M34.7401 207.188C35.1986 207.496 35.1977 207.994 34.7382 208.3C34.2786 208.606 33.5345 208.605 33.076 208.297C32.6175 207.989 32.6184 207.491 33.0779 207.185C33.5374 206.878 34.2816 206.88 34.7401 207.188Z" fill="white" fill-opacity="0.15"/>
<path d="M48.0223 216.109C48.4808 216.416 48.4799 216.914 48.0204 217.221C47.5609 217.527 46.8167 217.526 46.3582 217.218C45.8997 216.91 45.9006 216.412 46.3601 216.106C46.8197 215.799 47.5638 215.801 48.0223 216.109Z" fill="white" fill-opacity="0.15"/>
<path d="M61.3045 225.029C61.763 225.337 61.7622 225.835 61.3026 226.142C60.8431 226.448 60.0989 226.447 59.6404 226.139C59.182 225.831 59.1828 225.333 59.6424 225.027C60.1019 224.72 60.8461 224.722 61.3045 225.029Z" fill="white" fill-opacity="0.15"/>
<path d="M74.5868 233.95C75.0452 234.258 75.0444 234.756 74.5849 235.063C74.1253 235.369 73.3811 235.368 72.9227 235.06C72.4642 234.752 72.4651 234.254 72.9246 233.948C73.3841 233.641 74.1283 233.642 74.5868 233.95Z" fill="white" fill-opacity="0.15"/>
<path d="M87.869 242.871C88.3275 243.179 88.3266 243.677 87.8671 243.984C87.4076 244.29 86.6634 244.289 86.2049 243.981C85.7464 243.673 85.7473 243.175 86.2068 242.868C86.6663 242.562 87.4105 242.563 87.869 242.871Z" fill="white" fill-opacity="0.15"/>
<path d="M101.151 251.792C101.61 252.1 101.609 252.598 101.149 252.904C100.69 253.211 99.9456 253.209 99.4871 252.902C99.0287 252.594 99.0295 252.096 99.489 251.789C99.9486 251.483 100.693 251.484 101.151 251.792Z" fill="white" fill-opacity="0.15"/>
<path d="M114.433 260.713C114.892 261.021 114.891 261.519 114.432 261.825C113.972 262.132 113.228 262.13 112.769 261.822C112.311 261.515 112.312 261.017 112.771 260.71C113.231 260.404 113.975 260.405 114.433 260.713Z" fill="white" fill-opacity="0.15"/>
<path d="M127.716 269.634C128.174 269.942 128.173 270.44 127.714 270.746C127.254 271.053 126.51 271.051 126.052 270.743C125.593 270.435 125.594 269.937 126.053 269.631C126.513 269.325 127.257 269.326 127.716 269.634Z" fill="white" fill-opacity="0.15"/>
<path d="M140.998 278.555C141.456 278.863 141.456 279.361 140.996 279.667C140.536 279.973 139.792 279.972 139.334 279.664C138.875 279.356 138.876 278.858 139.336 278.552C139.795 278.246 140.539 278.247 140.998 278.555Z" fill="white" fill-opacity="0.15"/>
<path d="M154.28 287.476C154.739 287.784 154.738 288.282 154.278 288.588C153.819 288.894 153.075 288.893 152.616 288.585C152.158 288.277 152.158 287.779 152.618 287.473C153.077 287.167 153.822 287.168 154.28 287.476Z" fill="white" fill-opacity="0.15"/>
<path d="M167.562 296.397C168.021 296.705 168.02 297.203 167.56 297.509C167.101 297.815 166.357 297.814 165.898 297.506C165.44 297.198 165.441 296.7 165.9 296.394C166.36 296.087 167.104 296.089 167.562 296.397Z" fill="white" fill-opacity="0.15"/>
<path d="M34.7707 189.392C35.2291 189.699 35.2283 190.197 34.7688 190.504C34.3092 190.81 33.565 190.809 33.1066 190.501C32.6481 190.193 32.6489 189.695 33.1085 189.389C33.568 189.082 34.3122 189.084 34.7707 189.392Z" fill="white" fill-opacity="0.15"/>
<path d="M48.0529 198.312C48.5114 198.62 48.5105 199.118 48.051 199.425C47.5915 199.731 46.8473 199.73 46.3888 199.422C45.9303 199.114 45.9312 198.616 46.3907 198.31C46.8502 198.003 47.5944 198.005 48.0529 198.312Z" fill="white" fill-opacity="0.15"/>
<path d="M61.3351 207.233C61.7936 207.541 61.7927 208.039 61.3332 208.346C60.8737 208.652 60.1295 208.651 59.671 208.343C59.2126 208.035 59.2134 207.537 59.6729 207.231C60.1325 206.924 60.8767 206.925 61.3351 207.233Z" fill="white" fill-opacity="0.15"/>
<path d="M74.6174 216.154C75.0758 216.462 75.075 216.96 74.6154 217.267C74.1559 217.573 73.4117 217.572 72.9533 217.264C72.4948 216.956 72.4956 216.458 72.9552 216.151C73.4147 215.845 74.1589 215.846 74.6174 216.154Z" fill="white" fill-opacity="0.15"/>
<path d="M87.8996 225.075C88.3581 225.383 88.3572 225.881 87.8977 226.187C87.4381 226.494 86.6939 226.492 86.2355 226.185C85.777 225.877 85.7779 225.379 86.2374 225.072C86.6969 224.766 87.4411 224.767 87.8996 225.075Z" fill="white" fill-opacity="0.15"/>
<path d="M101.182 233.996C101.64 234.304 101.639 234.802 101.18 235.108C100.72 235.415 99.9762 235.413 99.5177 235.105C99.0592 234.798 99.0601 234.3 99.5196 233.993C99.9791 233.687 100.723 233.688 101.182 233.996Z" fill="white" fill-opacity="0.15"/>
<path d="M114.464 242.917C114.923 243.225 114.922 243.723 114.462 244.029C114.003 244.336 113.258 244.334 112.8 244.026C112.341 243.718 112.342 243.22 112.802 242.914C113.261 242.608 114.006 242.609 114.464 242.917Z" fill="white" fill-opacity="0.15"/>
<path d="M127.746 251.838C128.205 252.146 128.204 252.644 127.744 252.95C127.285 253.256 126.541 253.255 126.082 252.947C125.624 252.639 125.625 252.141 126.084 251.835C126.544 251.529 127.288 251.53 127.746 251.838Z" fill="white" fill-opacity="0.15"/>
<path d="M141.028 260.759C141.487 261.067 141.486 261.565 141.027 261.871C140.567 262.177 139.823 262.176 139.364 261.868C138.906 261.56 138.907 261.062 139.366 260.756C139.826 260.45 140.57 260.451 141.028 260.759Z" fill="white" fill-opacity="0.15"/>
<path d="M154.311 269.68C154.769 269.988 154.768 270.486 154.309 270.792C153.849 271.098 153.105 271.097 152.647 270.789C152.188 270.481 152.189 269.983 152.649 269.677C153.108 269.37 153.852 269.372 154.311 269.68Z" fill="white" fill-opacity="0.15"/>
<path d="M167.593 278.601C168.051 278.908 168.051 279.406 167.591 279.713C167.132 280.019 166.387 280.018 165.929 279.71C165.47 279.402 165.471 278.904 165.931 278.598C166.39 278.291 167.134 278.293 167.593 278.601Z" fill="white" fill-opacity="0.15"/>
<path d="M180.875 287.521C181.334 287.829 181.333 288.327 180.873 288.634C180.414 288.94 179.67 288.939 179.211 288.631C178.753 288.323 178.753 287.825 179.213 287.519C179.673 287.212 180.417 287.214 180.875 287.521Z" fill="white" fill-opacity="0.15"/>
<path d="M48.0835 180.516C48.5419 180.824 48.5411 181.322 48.0816 181.629C47.622 181.935 46.8778 181.934 46.4194 181.626C45.9609 181.318 45.9618 180.82 46.4213 180.513C46.8808 180.207 47.625 180.208 48.0835 180.516Z" fill="white" fill-opacity="0.15"/>
<path d="M61.3657 189.437C61.8242 189.745 61.8233 190.243 61.3638 190.55C60.9043 190.856 60.1601 190.855 59.7016 190.547C59.2431 190.239 59.244 189.741 59.7035 189.434C60.163 189.128 60.9072 189.129 61.3657 189.437Z" fill="white" fill-opacity="0.15"/>
<path d="M74.6479 198.358C75.1064 198.666 75.1055 199.164 74.646 199.47C74.1865 199.777 73.4423 199.775 72.9838 199.468C72.5254 199.16 72.5262 198.662 72.9857 198.355C73.4453 198.049 74.1895 198.05 74.6479 198.358Z" fill="white" fill-opacity="0.15"/>
<path d="M87.9302 207.279C88.3886 207.587 88.3878 208.085 87.9282 208.391C87.4687 208.698 86.7245 208.696 86.2661 208.388C85.8076 208.081 85.8084 207.583 86.268 207.276C86.7275 206.97 87.4717 206.971 87.9302 207.279Z" fill="white" fill-opacity="0.15"/>
<path d="M101.212 216.2C101.671 216.508 101.67 217.006 101.21 217.312C100.751 217.619 100.007 217.617 99.5483 217.309C99.0898 217.001 99.0907 216.503 99.5502 216.197C100.01 215.891 100.754 215.892 101.212 216.2Z" fill="white" fill-opacity="0.15"/>
<path d="M114.495 225.121C114.953 225.429 114.952 225.927 114.493 226.233C114.033 226.539 113.289 226.538 112.831 226.23C112.372 225.922 112.373 225.424 112.832 225.118C113.292 224.812 114.036 224.813 114.495 225.121Z" fill="white" fill-opacity="0.15"/>
<path d="M127.777 234.042C128.235 234.35 128.234 234.848 127.775 235.154C127.315 235.46 126.571 235.459 126.113 235.151C125.654 234.843 125.655 234.345 126.115 234.039C126.574 233.733 127.318 233.734 127.777 234.042Z" fill="white" fill-opacity="0.15"/>
<path d="M141.059 242.963C141.518 243.271 141.517 243.769 141.057 244.075C140.598 244.381 139.853 244.38 139.395 244.072C138.936 243.764 138.937 243.266 139.397 242.96C139.856 242.653 140.601 242.655 141.059 242.963Z" fill="white" fill-opacity="0.15"/>
<path d="M154.341 251.884C154.8 252.191 154.799 252.689 154.339 252.996C153.88 253.302 153.136 253.301 152.677 252.993C152.219 252.685 152.22 252.187 152.679 251.881C153.139 251.574 153.883 251.576 154.341 251.884Z" fill="white" fill-opacity="0.15"/>
<path d="M167.624 260.804C168.082 261.112 168.081 261.61 167.622 261.917C167.162 262.223 166.418 262.222 165.959 261.914C165.501 261.606 165.502 261.108 165.961 260.802C166.421 260.495 167.165 260.497 167.624 260.804Z" fill="white" fill-opacity="0.15"/>
<path d="M180.906 269.725C181.364 270.033 181.363 270.531 180.904 270.838C180.444 271.144 179.7 271.143 179.242 270.835C178.783 270.527 178.784 270.029 179.244 269.722C179.703 269.416 180.447 269.417 180.906 269.725Z" fill="white" fill-opacity="0.15"/>
<path d="M194.188 278.646C194.646 278.954 194.646 279.452 194.186 279.759C193.727 280.065 192.982 280.064 192.524 279.756C192.065 279.448 192.066 278.95 192.526 278.643C192.985 278.337 193.729 278.338 194.188 278.646Z" fill="white" fill-opacity="0.15"/>
<path d="M61.3963 171.641C61.8547 171.949 61.8539 172.447 61.3944 172.753C60.9348 173.06 60.1906 173.058 59.7322 172.751C59.2737 172.443 59.2746 171.945 59.7341 171.638C60.1936 171.332 60.9378 171.333 61.3963 171.641Z" fill="white" fill-opacity="0.15"/>
<path d="M74.6785 180.562C75.137 180.87 75.1361 181.368 74.6766 181.674C74.2171 181.981 73.4729 181.979 73.0144 181.671C72.5559 181.364 72.5568 180.866 73.0163 180.559C73.4758 180.253 74.22 180.254 74.6785 180.562Z" fill="white" fill-opacity="0.15"/>
<path d="M87.9607 189.483C88.4192 189.791 88.4184 190.289 87.9588 190.595C87.4993 190.902 86.7551 190.9 86.2966 190.592C85.8382 190.284 85.839 189.786 86.2985 189.48C86.7581 189.174 87.5023 189.175 87.9607 189.483Z" fill="white" fill-opacity="0.15"/>
<path d="M101.243 198.404C101.701 198.712 101.701 199.21 101.241 199.516C100.782 199.822 100.037 199.821 99.5789 199.513C99.1204 199.205 99.1212 198.707 99.5808 198.401C100.04 198.095 100.784 198.096 101.243 198.404Z" fill="white" fill-opacity="0.15"/>
<path d="M114.525 207.325C114.984 207.633 114.983 208.131 114.523 208.437C114.064 208.743 113.32 208.742 112.861 208.434C112.403 208.126 112.403 207.628 112.863 207.322C113.323 207.016 114.067 207.017 114.525 207.325Z" fill="white" fill-opacity="0.15"/>
<path d="M127.807 216.246C128.266 216.554 128.265 217.052 127.806 217.358C127.346 217.664 126.602 217.663 126.143 217.355C125.685 217.047 125.686 216.549 126.145 216.243C126.605 215.936 127.349 215.938 127.807 216.246Z" fill="white" fill-opacity="0.15"/>
<path d="M141.09 225.167C141.548 225.474 141.547 225.972 141.088 226.279C140.628 226.585 139.884 226.584 139.426 226.276C138.967 225.968 138.968 225.47 139.427 225.164C139.887 224.857 140.631 224.859 141.09 225.167Z" fill="white" fill-opacity="0.15"/>
<path d="M154.372 234.087C154.83 234.395 154.829 234.893 154.37 235.2C153.91 235.506 153.166 235.505 152.708 235.197C152.249 234.889 152.25 234.391 152.71 234.085C153.169 233.778 153.913 233.78 154.372 234.087Z" fill="white" fill-opacity="0.15"/>
<path d="M167.654 243.008C168.113 243.316 168.112 243.814 167.652 244.121C167.193 244.427 166.448 244.426 165.99 244.118C165.532 243.81 165.532 243.312 165.992 243.005C166.451 242.699 167.196 242.7 167.654 243.008Z" fill="white" fill-opacity="0.15"/>
<path d="M180.936 251.929C181.395 252.237 181.394 252.735 180.934 253.042C180.475 253.348 179.731 253.347 179.272 253.039C178.814 252.731 178.815 252.233 179.274 251.926C179.734 251.62 180.478 251.621 180.936 251.929Z" fill="white" fill-opacity="0.15"/>
<path d="M194.219 260.85C194.677 261.158 194.676 261.656 194.217 261.962C193.757 262.269 193.013 262.267 192.554 261.96C192.096 261.652 192.097 261.154 192.556 260.847C193.016 260.541 193.76 260.542 194.219 260.85Z" fill="white" fill-opacity="0.15"/>
<path d="M207.501 269.771C207.959 270.079 207.958 270.577 207.499 270.883C207.039 271.19 206.295 271.188 205.837 270.88C205.378 270.573 205.379 270.075 205.839 269.768C206.298 269.462 207.042 269.463 207.501 269.771Z" fill="white" fill-opacity="0.15"/>
<path d="M74.7091 162.766C75.1676 163.074 75.1667 163.572 74.7072 163.878C74.2476 164.185 73.5035 164.183 73.045 163.875C72.5865 163.567 72.5874 163.069 73.0469 162.763C73.5064 162.457 74.2506 162.458 74.7091 162.766Z" fill="white" fill-opacity="0.15"/>
<path d="M87.9913 171.687C88.4498 171.995 88.4489 172.493 87.9894 172.799C87.5299 173.105 86.7857 173.104 86.3272 172.796C85.8687 172.488 85.8696 171.99 86.3291 171.684C86.7887 171.378 87.5328 171.379 87.9913 171.687Z" fill="white" fill-opacity="0.15"/>
<path d="M101.274 180.608C101.732 180.916 101.731 181.414 101.272 181.72C100.812 182.026 100.068 182.025 99.6094 181.717C99.151 181.409 99.1518 180.911 99.6114 180.605C100.071 180.299 100.815 180.3 101.274 180.608Z" fill="white" fill-opacity="0.15"/>
<path d="M114.556 189.529C115.014 189.837 115.013 190.335 114.554 190.641C114.094 190.947 113.35 190.946 112.892 190.638C112.433 190.33 112.434 189.832 112.894 189.526C113.353 189.219 114.097 189.221 114.556 189.529Z" fill="white" fill-opacity="0.15"/>
<path d="M127.838 198.45C128.296 198.757 128.296 199.255 127.836 199.562C127.377 199.868 126.632 199.867 126.174 199.559C125.715 199.251 125.716 198.753 126.176 198.447C126.635 198.14 127.38 198.142 127.838 198.45Z" fill="white" fill-opacity="0.15"/>
<path d="M141.12 207.37C141.579 207.678 141.578 208.176 141.118 208.483C140.659 208.789 139.915 208.788 139.456 208.48C138.998 208.172 138.999 207.674 139.458 207.368C139.918 207.061 140.662 207.063 141.12 207.37Z" fill="white" fill-opacity="0.15"/>
<path d="M154.402 216.291C154.861 216.599 154.86 217.097 154.401 217.404C153.941 217.71 153.197 217.709 152.738 217.401C152.28 217.093 152.281 216.595 152.74 216.288C153.2 215.982 153.944 215.983 154.402 216.291Z" fill="white" fill-opacity="0.15"/>
<path d="M167.685 225.212C168.143 225.52 168.142 226.018 167.683 226.324C167.223 226.631 166.479 226.63 166.021 226.322C165.562 226.014 165.563 225.516 166.022 225.209C166.482 224.903 167.226 224.904 167.685 225.212Z" fill="white" fill-opacity="0.15"/>
<path d="M180.967 234.133C181.425 234.441 181.425 234.939 180.965 235.245C180.505 235.552 179.761 235.55 179.303 235.243C178.844 234.935 178.845 234.437 179.305 234.13C179.764 233.824 180.508 233.825 180.967 234.133Z" fill="white" fill-opacity="0.15"/>
<path d="M194.249 243.054C194.708 243.362 194.707 243.86 194.247 244.166C193.788 244.473 193.044 244.471 192.585 244.163C192.127 243.856 192.127 243.358 192.587 243.051C193.046 242.745 193.791 242.746 194.249 243.054Z" fill="white" fill-opacity="0.15"/>
<path d="M207.531 251.975C207.99 252.283 207.989 252.781 207.529 253.087C207.07 253.394 206.326 253.392 205.867 253.084C205.409 252.776 205.41 252.278 205.869 251.972C206.329 251.666 207.073 251.667 207.531 251.975Z" fill="white" fill-opacity="0.15"/>
<path d="M220.814 260.896C221.272 261.204 221.271 261.702 220.812 262.008C220.352 262.314 219.608 262.313 219.149 262.005C218.691 261.697 218.692 261.199 219.151 260.893C219.611 260.587 220.355 260.588 220.814 260.896Z" fill="white" fill-opacity="0.15"/>
<path d="M88.0219 153.891C88.4804 154.199 88.4795 154.697 88.02 155.003C87.5604 155.309 86.8163 155.308 86.3578 155C85.8993 154.692 85.9002 154.194 86.3597 153.888C86.8192 153.582 87.5634 153.583 88.0219 153.891Z" fill="white" fill-opacity="0.15"/>
<path d="M101.304 162.812C101.763 163.12 101.762 163.618 101.302 163.924C100.843 164.23 100.098 164.229 99.64 163.921C99.1815 163.613 99.1824 163.115 99.6419 162.809C100.101 162.502 100.846 162.504 101.304 162.812Z" fill="white" fill-opacity="0.15"/>
<path d="M114.586 171.733C115.045 172.04 115.044 172.538 114.584 172.845C114.125 173.151 113.381 173.15 112.922 172.842C112.464 172.534 112.465 172.036 112.924 171.73C113.384 171.423 114.128 171.425 114.586 171.733Z" fill="white" fill-opacity="0.15"/>
<path d="M127.869 180.653C128.327 180.961 128.326 181.459 127.867 181.766C127.407 182.072 126.663 182.071 126.204 181.763C125.746 181.455 125.747 180.957 126.206 180.651C126.666 180.344 127.41 180.346 127.869 180.653Z" fill="white" fill-opacity="0.15"/>
<path d="M141.151 189.574C141.609 189.882 141.608 190.38 141.149 190.687C140.689 190.993 139.945 190.992 139.487 190.684C139.028 190.376 139.029 189.878 139.489 189.571C139.948 189.265 140.692 189.266 141.151 189.574Z" fill="white" fill-opacity="0.15"/>
<path d="M154.433 198.495C154.891 198.803 154.891 199.301 154.431 199.607C153.972 199.914 153.227 199.913 152.769 199.605C152.31 199.297 152.311 198.799 152.771 198.492C153.23 198.186 153.975 198.187 154.433 198.495Z" fill="white" fill-opacity="0.15"/>
<path d="M167.715 207.416C168.174 207.724 168.173 208.222 167.713 208.528C167.254 208.835 166.51 208.833 166.051 208.526C165.593 208.218 165.594 207.72 166.053 207.413C166.513 207.107 167.257 207.108 167.715 207.416Z" fill="white" fill-opacity="0.15"/>
<path d="M180.997 216.337C181.456 216.645 181.455 217.143 180.996 217.449C180.536 217.756 179.792 217.754 179.333 217.446C178.875 217.139 178.876 216.641 179.335 216.334C179.795 216.028 180.539 216.029 180.997 216.337Z" fill="white" fill-opacity="0.15"/>
<path d="M194.28 225.258C194.738 225.566 194.737 226.064 194.278 226.37C193.818 226.677 193.074 226.675 192.616 226.367C192.157 226.059 192.158 225.561 192.618 225.255C193.077 224.949 193.821 224.95 194.28 225.258Z" fill="white" fill-opacity="0.15"/>
<path d="M207.562 234.179C208.02 234.487 208.02 234.985 207.56 235.291C207.1 235.597 206.356 235.596 205.898 235.288C205.439 234.98 205.44 234.482 205.9 234.176C206.359 233.87 207.103 233.871 207.562 234.179Z" fill="white" fill-opacity="0.15"/>
<path d="M220.844 243.1C221.303 243.408 221.302 243.906 220.842 244.212C220.383 244.518 219.639 244.517 219.18 244.209C218.722 243.901 218.722 243.403 219.182 243.097C219.642 242.791 220.386 242.792 220.844 243.1Z" fill="white" fill-opacity="0.15"/>
<path d="M234.126 252.021C234.585 252.329 234.584 252.827 234.124 253.133C233.665 253.439 232.921 253.438 232.462 253.13C232.004 252.822 232.005 252.324 232.464 252.018C232.924 251.711 233.668 251.713 234.126 252.021Z" fill="white" fill-opacity="0.15"/>
<path d="M101.335 145.016C101.793 145.323 101.792 145.821 101.333 146.128C100.873 146.434 100.129 146.433 99.6706 146.125C99.2121 145.817 99.213 145.319 99.6725 145.013C100.132 144.706 100.876 144.708 101.335 145.016Z" fill="white" fill-opacity="0.15"/>
<path d="M114.617 153.936C115.075 154.244 115.075 154.742 114.615 155.049C114.155 155.355 113.411 155.354 112.953 155.046C112.494 154.738 112.495 154.24 112.955 153.934C113.414 153.627 114.158 153.629 114.617 153.936Z" fill="white" fill-opacity="0.15"/>
<path d="M127.899 162.857C128.358 163.165 128.357 163.663 127.897 163.97C127.438 164.276 126.694 164.275 126.235 163.967C125.777 163.659 125.777 163.161 126.237 162.854C126.696 162.548 127.441 162.549 127.899 162.857Z" fill="white" fill-opacity="0.15"/>
<path d="M141.181 171.778C141.64 172.086 141.639 172.584 141.179 172.89C140.72 173.197 139.976 173.196 139.517 172.888C139.059 172.58 139.06 172.082 139.519 171.775C139.979 171.469 140.723 171.47 141.181 171.778Z" fill="white" fill-opacity="0.15"/>
<path d="M154.464 180.699C154.922 181.007 154.921 181.505 154.462 181.811C154.002 182.118 153.258 182.116 152.8 181.809C152.341 181.501 152.342 181.003 152.801 180.696C153.261 180.39 154.005 180.391 154.464 180.699Z" fill="white" fill-opacity="0.15"/>
<path d="M167.746 189.62C168.204 189.928 168.203 190.426 167.744 190.732C167.284 191.039 166.54 191.037 166.082 190.729C165.623 190.422 165.624 189.924 166.084 189.617C166.543 189.311 167.287 189.312 167.746 189.62Z" fill="white" fill-opacity="0.15"/>
<path d="M181.028 198.541C181.487 198.849 181.486 199.347 181.026 199.653C180.567 199.96 179.822 199.958 179.364 199.65C178.905 199.342 178.906 198.844 179.366 198.538C179.825 198.232 180.57 198.233 181.028 198.541Z" fill="white" fill-opacity="0.15"/>
<path d="M194.31 207.462C194.769 207.77 194.768 208.268 194.308 208.574C193.849 208.88 193.105 208.879 192.646 208.571C192.188 208.263 192.189 207.765 192.648 207.459C193.108 207.153 193.852 207.154 194.31 207.462Z" fill="white" fill-opacity="0.15"/>
<path d="M207.593 216.383C208.051 216.691 208.05 217.189 207.591 217.495C207.131 217.801 206.387 217.8 205.928 217.492C205.47 217.184 205.471 216.686 205.93 216.38C206.39 216.074 207.134 216.075 207.593 216.383Z" fill="white" fill-opacity="0.15"/>
<path d="M220.875 225.304C221.333 225.612 221.332 226.11 220.873 226.416C220.413 226.722 219.669 226.721 219.211 226.413C218.752 226.105 218.753 225.607 219.213 225.301C219.672 224.994 220.416 224.996 220.875 225.304Z" fill="white" fill-opacity="0.15"/>
<path d="M234.157 234.225C234.615 234.532 234.615 235.03 234.155 235.337C233.696 235.643 232.951 235.642 232.493 235.334C232.034 235.026 232.035 234.528 232.495 234.222C232.954 233.915 233.698 233.917 234.157 234.225Z" fill="white" fill-opacity="0.15"/>
<path d="M247.439 243.145C247.898 243.453 247.897 243.951 247.437 244.258C246.978 244.564 246.234 244.563 245.775 244.255C245.317 243.947 245.317 243.449 245.777 243.143C246.237 242.836 246.981 242.838 247.439 243.145Z" fill="white" fill-opacity="0.15"/>
<path d="M114.647 136.14C115.106 136.448 115.105 136.946 114.646 137.253C114.186 137.559 113.442 137.558 112.983 137.25C112.525 136.942 112.526 136.444 112.985 136.137C113.445 135.831 114.189 135.832 114.647 136.14Z" fill="white" fill-opacity="0.15"/>
<path d="M127.93 145.061C128.388 145.369 128.387 145.867 127.928 146.173C127.468 146.48 126.724 146.479 126.266 146.171C125.807 145.863 125.808 145.365 126.268 145.058C126.727 144.752 127.471 144.753 127.93 145.061Z" fill="white" fill-opacity="0.15"/>
<path d="M141.212 153.982C141.67 154.29 141.67 154.788 141.21 155.094C140.751 155.401 140.006 155.399 139.548 155.092C139.089 154.784 139.09 154.286 139.55 153.979C140.009 153.673 140.753 153.674 141.212 153.982Z" fill="white" fill-opacity="0.15"/>
<path d="M154.494 162.903C154.953 163.211 154.952 163.709 154.492 164.015C154.033 164.322 153.289 164.32 152.83 164.012C152.372 163.705 152.372 163.207 152.832 162.9C153.292 162.594 154.036 162.595 154.494 162.903Z" fill="white" fill-opacity="0.15"/>
<path d="M167.776 171.824C168.235 172.132 168.234 172.63 167.774 172.936C167.315 173.243 166.571 173.241 166.112 172.933C165.654 172.625 165.655 172.127 166.114 171.821C166.574 171.515 167.318 171.516 167.776 171.824Z" fill="white" fill-opacity="0.15"/>
<path d="M181.059 180.745C181.517 181.053 181.516 181.551 181.057 181.857C180.597 182.163 179.853 182.162 179.395 181.854C178.936 181.546 178.937 181.048 179.396 180.742C179.856 180.436 180.6 180.437 181.059 180.745Z" fill="white" fill-opacity="0.15"/>
<path d="M194.341 189.666C194.799 189.974 194.798 190.472 194.339 190.778C193.879 191.084 193.135 191.083 192.677 190.775C192.218 190.467 192.219 189.969 192.679 189.663C193.138 189.357 193.882 189.358 194.341 189.666Z" fill="white" fill-opacity="0.15"/>
<path d="M207.623 198.587C208.082 198.895 208.081 199.393 207.621 199.699C207.162 200.005 206.417 200.004 205.959 199.696C205.501 199.388 205.501 198.89 205.961 198.584C206.42 198.277 207.165 198.279 207.623 198.587Z" fill="white" fill-opacity="0.15"/>
<path d="M220.905 207.508C221.364 207.815 221.363 208.313 220.903 208.62C220.444 208.926 219.7 208.925 219.241 208.617C218.783 208.309 218.784 207.811 219.243 207.505C219.703 207.198 220.447 207.2 220.905 207.508Z" fill="white" fill-opacity="0.15"/>
<path d="M234.188 216.428C234.646 216.736 234.645 217.234 234.186 217.541C233.726 217.847 232.982 217.846 232.523 217.538C232.065 217.23 232.066 216.732 232.525 216.426C232.985 216.119 233.729 216.121 234.188 216.428Z" fill="white" fill-opacity="0.15"/>
<path d="M247.47 225.349C247.928 225.657 247.927 226.155 247.468 226.462C247.008 226.768 246.264 226.767 245.806 226.459C245.347 226.151 245.348 225.653 245.808 225.346C246.267 225.04 247.011 225.041 247.47 225.349Z" fill="white" fill-opacity="0.15"/>
<path d="M260.752 234.27C261.21 234.578 261.21 235.076 260.75 235.382C260.291 235.689 259.546 235.688 259.088 235.38C258.629 235.072 258.63 234.574 259.09 234.267C259.549 233.961 260.294 233.962 260.752 234.27Z" fill="white" fill-opacity="0.15"/>
<path d="M127.96 127.265C128.419 127.573 128.418 128.071 127.958 128.377C127.499 128.684 126.755 128.682 126.296 128.375C125.838 128.067 125.839 127.569 126.298 127.262C126.758 126.956 127.502 126.957 127.96 127.265Z" fill="white" fill-opacity="0.15"/>
<path d="M141.243 136.186C141.701 136.494 141.7 136.992 141.241 137.298C140.781 137.605 140.037 137.603 139.578 137.295C139.12 136.988 139.121 136.49 139.58 136.183C140.04 135.877 140.784 135.878 141.243 136.186Z" fill="white" fill-opacity="0.15"/>
<path d="M154.525 145.107C154.983 145.415 154.982 145.913 154.523 146.219C154.063 146.526 153.319 146.524 152.861 146.216C152.402 145.908 152.403 145.41 152.863 145.104C153.322 144.798 154.066 144.799 154.525 145.107Z" fill="white" fill-opacity="0.15"/>
<path d="M167.807 154.028C168.265 154.336 168.265 154.834 167.805 155.14C167.346 155.446 166.601 155.445 166.143 155.137C165.684 154.829 165.685 154.331 166.145 154.025C166.604 153.719 167.349 153.72 167.807 154.028Z" fill="white" fill-opacity="0.15"/>
<path d="M181.089 162.949C181.548 163.257 181.547 163.755 181.087 164.061C180.628 164.367 179.884 164.366 179.425 164.058C178.967 163.75 178.967 163.252 179.427 162.946C179.887 162.64 180.631 162.641 181.089 162.949Z" fill="white" fill-opacity="0.15"/>
<path d="M194.371 171.87C194.83 172.178 194.829 172.676 194.37 172.982C193.91 173.288 193.166 173.287 192.707 172.979C192.249 172.671 192.25 172.173 192.709 171.867C193.169 171.56 193.913 171.562 194.371 171.87Z" fill="white" fill-opacity="0.15"/>
<path d="M207.654 180.791C208.112 181.098 208.111 181.596 207.652 181.903C207.192 182.209 206.448 182.208 205.99 181.9C205.531 181.592 205.532 181.094 205.991 180.788C206.451 180.481 207.195 180.483 207.654 180.791Z" fill="white" fill-opacity="0.15"/>
<path d="M220.936 189.711C221.394 190.019 221.394 190.517 220.934 190.824C220.474 191.13 219.73 191.129 219.272 190.821C218.813 190.513 218.814 190.015 219.274 189.709C219.733 189.402 220.477 189.404 220.936 189.711Z" fill="white" fill-opacity="0.15"/>
<path d="M234.218 198.632C234.677 198.94 234.676 199.438 234.216 199.745C233.757 200.051 233.012 200.05 232.554 199.742C232.096 199.434 232.096 198.936 232.556 198.629C233.015 198.323 233.76 198.324 234.218 198.632Z" fill="white" fill-opacity="0.15"/>
<path d="M247.5 207.553C247.959 207.861 247.958 208.359 247.498 208.665C247.039 208.972 246.295 208.971 245.836 208.663C245.378 208.355 245.379 207.857 245.838 207.55C246.298 207.244 247.042 207.245 247.5 207.553Z" fill="white" fill-opacity="0.15"/>
<path d="M260.783 216.474C261.241 216.782 261.24 217.28 260.781 217.586C260.321 217.893 259.577 217.891 259.118 217.584C258.66 217.276 258.661 216.778 259.12 216.471C259.58 216.165 260.324 216.166 260.783 216.474Z" fill="white" fill-opacity="0.15"/>
<path d="M274.065 225.395C274.523 225.703 274.522 226.201 274.063 226.507C273.603 226.814 272.859 226.812 272.401 226.504C271.942 226.197 271.943 225.699 272.403 225.392C272.862 225.086 273.606 225.087 274.065 225.395Z" fill="white" fill-opacity="0.15"/>
<path d="M141.273 118.39C141.732 118.698 141.731 119.196 141.271 119.502C140.812 119.809 140.067 119.807 139.609 119.499C139.151 119.191 139.151 118.693 139.611 118.387C140.07 118.081 140.815 118.082 141.273 118.39Z" fill="white" fill-opacity="0.15"/>
<path d="M154.555 127.311C155.014 127.619 155.013 128.117 154.553 128.423C154.094 128.729 153.35 128.728 152.891 128.42C152.433 128.112 152.434 127.614 152.893 127.308C153.353 127.002 154.097 127.003 154.555 127.311Z" fill="white" fill-opacity="0.15"/>
<path d="M167.838 136.232C168.296 136.54 168.295 137.038 167.836 137.344C167.376 137.65 166.632 137.649 166.173 137.341C165.715 137.033 165.716 136.535 166.175 136.229C166.635 135.923 167.379 135.924 167.838 136.232Z" fill="white" fill-opacity="0.15"/>
<path d="M181.12 145.153C181.578 145.461 181.577 145.959 181.118 146.265C180.658 146.571 179.914 146.57 179.456 146.262C178.997 145.954 178.998 145.456 179.458 145.15C179.917 144.843 180.661 144.845 181.12 145.153Z" fill="white" fill-opacity="0.15"/>
<path d="M194.402 154.074C194.86 154.381 194.86 154.879 194.4 155.186C193.941 155.492 193.196 155.491 192.738 155.183C192.279 154.875 192.28 154.377 192.74 154.071C193.199 153.764 193.944 153.766 194.402 154.074Z" fill="white" fill-opacity="0.15"/>
<path d="M207.684 162.994C208.143 163.302 208.142 163.8 207.682 164.107C207.223 164.413 206.479 164.412 206.02 164.104C205.562 163.796 205.563 163.298 206.022 162.992C206.482 162.685 207.226 162.686 207.684 162.994Z" fill="white" fill-opacity="0.15"/>
<path d="M220.966 171.915C221.425 172.223 221.424 172.721 220.965 173.028C220.505 173.334 219.761 173.333 219.302 173.025C218.844 172.717 218.845 172.219 219.304 171.912C219.764 171.606 220.508 171.607 220.966 171.915Z" fill="white" fill-opacity="0.15"/>
<path d="M234.249 180.836C234.707 181.144 234.706 181.642 234.247 181.948C233.787 182.255 233.043 182.254 232.585 181.946C232.126 181.638 232.127 181.14 232.587 180.833C233.046 180.527 233.79 180.528 234.249 180.836Z" fill="white" fill-opacity="0.15"/>
<path d="M247.531 189.757C247.989 190.065 247.989 190.563 247.529 190.869C247.069 191.176 246.325 191.174 245.867 190.867C245.408 190.559 245.409 190.061 245.869 189.754C246.328 189.448 247.072 189.449 247.531 189.757Z" fill="white" fill-opacity="0.15"/>
<path d="M260.813 198.678C261.272 198.986 261.271 199.484 260.811 199.79C260.352 200.097 259.608 200.095 259.149 199.787C258.691 199.479 258.691 198.982 259.151 198.675C259.61 198.369 260.355 198.37 260.813 198.678Z" fill="white" fill-opacity="0.15"/>
<path d="M274.095 207.599C274.554 207.907 274.553 208.405 274.093 208.711C273.634 209.018 272.89 209.016 272.431 208.708C271.973 208.4 271.974 207.902 272.433 207.596C272.893 207.29 273.637 207.291 274.095 207.599Z" fill="white" fill-opacity="0.15"/>
<path d="M287.378 216.52C287.836 216.828 287.835 217.326 287.376 217.632C286.916 217.938 286.172 217.937 285.714 217.629C285.255 217.321 285.256 216.823 285.715 216.517C286.175 216.211 286.919 216.212 287.378 216.52Z" fill="white" fill-opacity="0.15"/>
<path d="M154.586 109.515C155.044 109.823 155.044 110.321 154.584 110.627C154.124 110.933 153.38 110.932 152.922 110.624C152.463 110.316 152.464 109.818 152.924 109.512C153.383 109.206 154.127 109.207 154.586 109.515Z" fill="white" fill-opacity="0.15"/>
<path d="M167.868 118.436C168.327 118.744 168.326 119.242 167.866 119.548C167.407 119.854 166.663 119.853 166.204 119.545C165.746 119.237 165.746 118.739 166.206 118.433C166.665 118.126 167.41 118.128 167.868 118.436Z" fill="white" fill-opacity="0.15"/>
<path d="M181.15 127.357C181.609 127.664 181.608 128.162 181.148 128.469C180.689 128.775 179.945 128.774 179.486 128.466C179.028 128.158 179.029 127.66 179.488 127.354C179.948 127.047 180.692 127.049 181.15 127.357Z" fill="white" fill-opacity="0.15"/>
<path d="M194.433 136.277C194.891 136.585 194.89 137.083 194.431 137.39C193.971 137.696 193.227 137.695 192.768 137.387C192.31 137.079 192.311 136.581 192.77 136.275C193.23 135.968 193.974 135.969 194.433 136.277Z" fill="white" fill-opacity="0.15"/>
<path d="M207.715 145.198C208.173 145.506 208.172 146.004 207.713 146.311C207.253 146.617 206.509 146.616 206.051 146.308C205.592 146 205.593 145.502 206.053 145.195C206.512 144.889 207.256 144.89 207.715 145.198Z" fill="white" fill-opacity="0.15"/>
<path d="M220.997 154.119C221.456 154.427 221.455 154.925 220.995 155.231C220.536 155.538 219.791 155.537 219.333 155.229C218.874 154.921 218.875 154.423 219.335 154.116C219.794 153.81 220.539 153.811 220.997 154.119Z" fill="white" fill-opacity="0.15"/>
<path d="M234.279 163.04C234.738 163.348 234.737 163.846 234.277 164.152C233.818 164.459 233.074 164.457 232.615 164.15C232.157 163.842 232.158 163.344 232.617 163.037C233.077 162.731 233.821 162.732 234.279 163.04Z" fill="white" fill-opacity="0.15"/>
<path d="M247.562 171.961C248.02 172.269 248.019 172.767 247.56 173.073C247.1 173.38 246.356 173.378 245.897 173.07C245.439 172.762 245.44 172.265 245.899 171.958C246.359 171.652 247.103 171.653 247.562 171.961Z" fill="white" fill-opacity="0.15"/>
<path d="M260.844 180.882C261.302 181.19 261.301 181.688 260.842 181.994C260.382 182.301 259.638 182.299 259.18 181.991C258.721 181.683 258.722 181.185 259.182 180.879C259.641 180.573 260.385 180.574 260.844 180.882Z" fill="white" fill-opacity="0.15"/>
<path d="M274.126 189.803C274.584 190.111 274.584 190.609 274.124 190.915C273.665 191.221 272.92 191.22 272.462 190.912C272.003 190.604 272.004 190.106 272.464 189.8C272.923 189.494 273.667 189.495 274.126 189.803Z" fill="white" fill-opacity="0.15"/>
<path d="M287.408 198.724C287.867 199.032 287.866 199.53 287.406 199.836C286.947 200.142 286.203 200.141 285.744 199.833C285.286 199.525 285.286 199.027 285.746 198.721C286.206 198.415 286.95 198.416 287.408 198.724Z" fill="white" fill-opacity="0.15"/>
<path d="M300.69 207.645C301.149 207.953 301.148 208.451 300.689 208.757C300.229 209.063 299.485 209.062 299.026 208.754C298.568 208.446 298.569 207.948 299.028 207.642C299.488 207.335 300.232 207.337 300.69 207.645Z" fill="white" fill-opacity="0.15"/>
<path d="M167.899 100.64C168.357 100.947 168.356 101.445 167.897 101.752C167.437 102.058 166.693 102.057 166.235 101.749C165.776 101.441 165.777 100.943 166.237 100.637C166.696 100.33 167.44 100.332 167.899 100.64Z" fill="white" fill-opacity="0.15"/>
<path d="M181.181 109.56C181.639 109.868 181.639 110.366 181.179 110.673C180.72 110.979 179.975 110.978 179.517 110.67C179.058 110.362 179.059 109.864 179.519 109.558C179.978 109.251 180.722 109.252 181.181 109.56Z" fill="white" fill-opacity="0.15"/>
<path d="M194.463 118.481C194.922 118.789 194.921 119.287 194.461 119.594C194.002 119.9 193.258 119.899 192.799 119.591C192.341 119.283 192.341 118.785 192.801 118.478C193.261 118.172 194.005 118.173 194.463 118.481Z" fill="white" fill-opacity="0.15"/>
<path d="M207.745 127.402C208.204 127.71 208.203 128.208 207.743 128.514C207.284 128.821 206.54 128.82 206.081 128.512C205.623 128.204 205.624 127.706 206.083 127.399C206.543 127.093 207.287 127.094 207.745 127.402Z" fill="white" fill-opacity="0.15"/>
<path d="M221.028 136.323C221.486 136.631 221.485 137.129 221.026 137.435C220.566 137.742 219.822 137.74 219.364 137.433C218.905 137.125 218.906 136.627 219.365 136.32C219.825 136.014 220.569 136.015 221.028 136.323Z" fill="white" fill-opacity="0.15"/>
<path d="M234.31 145.244C234.768 145.552 234.767 146.05 234.308 146.356C233.848 146.663 233.104 146.661 232.646 146.353C232.187 146.045 232.188 145.548 232.648 145.241C233.107 144.935 233.851 144.936 234.31 145.244Z" fill="white" fill-opacity="0.15"/>
<path d="M247.592 154.165C248.051 154.473 248.05 154.971 247.59 155.277C247.131 155.584 246.386 155.582 245.928 155.274C245.47 154.966 245.47 154.468 245.93 154.162C246.389 153.856 247.134 153.857 247.592 154.165Z" fill="white" fill-opacity="0.15"/>
<path d="M260.874 163.086C261.333 163.394 261.332 163.892 260.872 164.198C260.413 164.504 259.669 164.503 259.21 164.195C258.752 163.887 258.753 163.389 259.212 163.083C259.672 162.777 260.416 162.778 260.874 163.086Z" fill="white" fill-opacity="0.15"/>
<path d="M274.157 172.007C274.615 172.315 274.614 172.813 274.155 173.119C273.695 173.425 272.951 173.424 272.492 173.116C272.034 172.808 272.035 172.31 272.494 172.004C272.954 171.698 273.698 171.699 274.157 172.007Z" fill="white" fill-opacity="0.15"/>
<path d="M287.439 180.928C287.897 181.236 287.896 181.734 287.437 182.04C286.977 182.346 286.233 182.345 285.775 182.037C285.316 181.729 285.317 181.231 285.777 180.925C286.236 180.618 286.98 180.62 287.439 180.928Z" fill="white" fill-opacity="0.15"/>
<path d="M300.721 189.849C301.179 190.156 301.179 190.654 300.719 190.961C300.26 191.267 299.515 191.266 299.057 190.958C298.598 190.65 298.599 190.152 299.059 189.846C299.518 189.539 300.263 189.541 300.721 189.849Z" fill="white" fill-opacity="0.15"/>
<path d="M314.003 198.769C314.462 199.077 314.461 199.575 314.001 199.882C313.542 200.188 312.798 200.187 312.339 199.879C311.881 199.571 311.882 199.073 312.341 198.767C312.801 198.46 313.545 198.461 314.003 198.769Z" fill="white" fill-opacity="0.15"/>
<path d="M181.212 91.7643C181.67 92.0723 181.669 92.5702 181.21 92.8766C180.75 93.1829 180.006 93.1817 179.547 92.8737C179.089 92.5658 179.09 92.0678 179.549 91.7615C180.009 91.4551 180.753 91.4564 181.212 91.7643Z" fill="white" fill-opacity="0.15"/>
<path d="M194.494 100.685C194.952 100.993 194.951 101.491 194.492 101.797C194.032 102.104 193.288 102.103 192.83 101.795C192.371 101.487 192.372 100.989 192.832 100.682C193.291 100.376 194.035 100.377 194.494 100.685Z" fill="white" fill-opacity="0.15"/>
<path d="M207.776 109.606C208.234 109.914 208.234 110.412 207.774 110.718C207.315 111.025 206.57 111.023 206.112 110.716C205.653 110.408 205.654 109.91 206.114 109.603C206.573 109.297 207.318 109.298 207.776 109.606Z" fill="white" fill-opacity="0.15"/>
<path d="M221.058 118.527C221.517 118.835 221.516 119.333 221.056 119.639C220.597 119.946 219.853 119.944 219.394 119.636C218.936 119.328 218.936 118.831 219.396 118.524C219.856 118.218 220.6 118.219 221.058 118.527Z" fill="white" fill-opacity="0.15"/>
<path d="M234.34 127.448C234.799 127.756 234.798 128.254 234.339 128.56C233.879 128.867 233.135 128.865 232.676 128.557C232.218 128.249 232.219 127.751 232.678 127.445C233.138 127.139 233.882 127.14 234.34 127.448Z" fill="white" fill-opacity="0.15"/>
<path d="M247.623 136.369C248.081 136.677 248.08 137.175 247.621 137.481C247.161 137.787 246.417 137.786 245.959 137.478C245.5 137.17 245.501 136.672 245.96 136.366C246.42 136.06 247.164 136.061 247.623 136.369Z" fill="white" fill-opacity="0.15"/>
<path d="M260.905 145.29C261.363 145.598 261.363 146.096 260.903 146.402C260.443 146.708 259.699 146.707 259.241 146.399C258.782 146.091 258.783 145.593 259.243 145.287C259.702 144.981 260.446 144.982 260.905 145.29Z" fill="white" fill-opacity="0.15"/>
<path d="M274.187 154.211C274.646 154.519 274.645 155.017 274.185 155.323C273.726 155.629 272.981 155.628 272.523 155.32C272.065 155.012 272.065 154.514 272.525 154.208C272.984 153.901 273.729 153.903 274.187 154.211Z" fill="white" fill-opacity="0.15"/>
<path d="M287.469 163.132C287.928 163.439 287.927 163.937 287.467 164.244C287.008 164.55 286.264 164.549 285.805 164.241C285.347 163.933 285.348 163.435 285.807 163.129C286.267 162.822 287.011 162.824 287.469 163.132Z" fill="white" fill-opacity="0.15"/>
<path d="M300.752 172.052C301.21 172.36 301.209 172.858 300.75 173.165C300.29 173.471 299.546 173.47 299.087 173.162C298.629 172.854 298.63 172.356 299.089 172.05C299.549 171.743 300.293 171.744 300.752 172.052Z" fill="white" fill-opacity="0.15"/>
<path d="M314.034 180.973C314.492 181.281 314.491 181.779 314.032 182.086C313.572 182.392 312.828 182.391 312.37 182.083C311.911 181.775 311.912 181.277 312.372 180.97C312.831 180.664 313.575 180.665 314.034 180.973Z" fill="white" fill-opacity="0.15"/>
<path d="M327.316 189.894C327.775 190.202 327.774 190.7 327.314 191.006C326.855 191.313 326.11 191.312 325.652 191.004C325.193 190.696 325.194 190.198 325.654 189.891C326.113 189.585 326.858 189.586 327.316 189.894Z" fill="white" fill-opacity="0.15"/>
<path d="M194.524 82.8891C194.983 83.197 194.982 83.695 194.522 84.0014C194.063 84.3077 193.319 84.3064 192.86 83.9985C192.402 83.6906 192.403 83.1926 192.862 82.8863C193.322 82.5799 194.066 82.5812 194.524 82.8891Z" fill="white" fill-opacity="0.15"/>
<path d="M207.807 91.81C208.265 92.1179 208.264 92.6159 207.805 92.9223C207.345 93.2286 206.601 93.2273 206.142 92.9194C205.684 92.6115 205.685 92.1135 206.144 91.8072C206.604 91.5008 207.348 91.5021 207.807 91.81Z" fill="white" fill-opacity="0.15"/>
<path d="M221.089 100.731C221.547 101.039 221.546 101.537 221.087 101.843C220.627 102.15 219.883 102.148 219.425 101.84C218.966 101.532 218.967 101.034 219.427 100.728C219.886 100.422 220.63 100.423 221.089 100.731Z" fill="white" fill-opacity="0.15"/>
<path d="M234.371 109.652C234.829 109.96 234.829 110.458 234.369 110.764C233.91 111.07 233.165 111.069 232.707 110.761C232.248 110.453 232.249 109.955 232.709 109.649C233.168 109.343 233.913 109.344 234.371 109.652Z" fill="white" fill-opacity="0.15"/>
<path d="M247.653 118.573C248.112 118.881 248.111 119.379 247.651 119.685C247.192 119.991 246.448 119.99 245.989 119.682C245.531 119.374 245.532 118.876 245.991 118.57C246.451 118.264 247.195 118.265 247.653 118.573Z" fill="white" fill-opacity="0.15"/>
<path d="M260.935 127.494C261.394 127.802 261.393 128.3 260.934 128.606C260.474 128.912 259.73 128.911 259.271 128.603C258.813 128.295 258.814 127.797 259.273 127.491C259.733 127.184 260.477 127.186 260.935 127.494Z" fill="white" fill-opacity="0.15"/>
<path d="M274.218 136.415C274.676 136.722 274.675 137.22 274.216 137.527C273.756 137.833 273.012 137.832 272.554 137.524C272.095 137.216 272.096 136.718 272.556 136.412C273.015 136.105 273.759 136.107 274.218 136.415Z" fill="white" fill-opacity="0.15"/>
<path d="M287.5 145.335C287.958 145.643 287.958 146.141 287.498 146.448C287.038 146.754 286.294 146.753 285.836 146.445C285.377 146.137 285.378 145.639 285.838 145.333C286.297 145.026 287.041 145.027 287.5 145.335Z" fill="white" fill-opacity="0.15"/>
<path d="M300.782 154.256C301.241 154.564 301.24 155.062 300.78 155.369C300.321 155.675 299.577 155.674 299.118 155.366C298.66 155.058 298.66 154.56 299.12 154.253C299.579 153.947 300.324 153.948 300.782 154.256Z" fill="white" fill-opacity="0.15"/>
<path d="M314.064 163.177C314.523 163.485 314.522 163.983 314.062 164.289C313.603 164.596 312.859 164.595 312.4 164.287C311.942 163.979 311.943 163.481 312.402 163.174C312.862 162.868 313.606 162.869 314.064 163.177Z" fill="white" fill-opacity="0.15"/>
<path d="M327.347 172.098C327.805 172.406 327.804 172.904 327.345 173.21C326.885 173.517 326.141 173.515 325.683 173.208C325.224 172.9 325.225 172.402 325.684 172.095C326.144 171.789 326.888 171.79 327.347 172.098Z" fill="white" fill-opacity="0.15"/>
<path d="M340.629 181.019C341.087 181.327 341.086 181.825 340.627 182.131C340.167 182.438 339.423 182.436 338.965 182.128C338.506 181.82 338.507 181.323 338.967 181.016C339.426 180.71 340.17 180.711 340.629 181.019Z" fill="white" fill-opacity="0.15"/>
<path d="M207.837 74.0139C208.296 74.3218 208.295 74.8198 207.835 75.1262C207.376 75.4325 206.632 75.4312 206.173 75.1233C205.715 74.8154 205.715 74.3174 206.175 74.0111C206.634 73.7047 207.379 73.706 207.837 74.0139Z" fill="white" fill-opacity="0.15"/>
<path d="M221.119 82.9348C221.578 83.2427 221.577 83.7407 221.117 84.0471C220.658 84.3534 219.914 84.3521 219.455 84.0442C218.997 83.7363 218.998 83.2383 219.457 82.932C219.917 82.6256 220.661 82.6269 221.119 82.9348Z" fill="white" fill-opacity="0.15"/>
<path d="M234.402 91.8557C234.86 92.1636 234.859 92.6616 234.4 92.968C233.94 93.2743 233.196 93.273 232.737 92.9651C232.279 92.6572 232.28 92.1592 232.739 91.8529C233.199 91.5465 233.943 91.5478 234.402 91.8557Z" fill="white" fill-opacity="0.15"/>
<path d="M247.684 100.777C248.142 101.085 248.141 101.583 247.682 101.889C247.222 102.195 246.478 102.194 246.02 101.886C245.561 101.578 245.562 101.08 246.022 100.774C246.481 100.467 247.225 100.469 247.684 100.777Z" fill="white" fill-opacity="0.15"/>
<path d="M260.966 109.698C261.425 110.005 261.424 110.503 260.964 110.81C260.505 111.116 259.76 111.115 259.302 110.807C258.843 110.499 258.844 110.001 259.304 109.695C259.763 109.388 260.508 109.39 260.966 109.698Z" fill="white" fill-opacity="0.15"/>
<path d="M274.248 118.618C274.707 118.926 274.706 119.424 274.246 119.731C273.787 120.037 273.043 120.036 272.584 119.728C272.126 119.42 272.127 118.922 272.586 118.616C273.046 118.309 273.79 118.31 274.248 118.618Z" fill="white" fill-opacity="0.15"/>
<path d="M287.531 127.539C287.989 127.847 287.988 128.345 287.529 128.652C287.069 128.958 286.325 128.957 285.866 128.649C285.408 128.341 285.409 127.843 285.868 127.536C286.328 127.23 287.072 127.231 287.531 127.539Z" fill="white" fill-opacity="0.15"/>
<path d="M300.813 136.46C301.271 136.768 301.27 137.266 300.811 137.572C300.351 137.879 299.607 137.878 299.149 137.57C298.69 137.262 298.691 136.764 299.151 136.457C299.61 136.151 300.354 136.152 300.813 136.46Z" fill="white" fill-opacity="0.15"/>
<path d="M314.095 145.381C314.553 145.689 314.553 146.187 314.093 146.493C313.634 146.8 312.889 146.798 312.431 146.491C311.972 146.183 311.973 145.685 312.433 145.378C312.892 145.072 313.636 145.073 314.095 145.381Z" fill="white" fill-opacity="0.15"/>
<path d="M327.377 154.302C327.836 154.61 327.835 155.108 327.375 155.414C326.916 155.721 326.172 155.719 325.713 155.411C325.255 155.103 325.255 154.606 325.715 154.299C326.175 153.993 326.919 153.994 327.377 154.302Z" fill="white" fill-opacity="0.15"/>
<path d="M340.659 163.223C341.118 163.531 341.117 164.029 340.657 164.335C340.198 164.642 339.454 164.64 338.995 164.332C338.537 164.024 338.538 163.526 338.997 163.22C339.457 162.914 340.201 162.915 340.659 163.223Z" fill="white" fill-opacity="0.15"/>
<path d="M353.942 172.144C354.4 172.452 354.399 172.95 353.94 173.256C353.48 173.562 352.736 173.561 352.278 173.253C351.819 172.945 351.82 172.447 352.279 172.141C352.739 171.835 353.483 171.836 353.942 172.144Z" fill="white" fill-opacity="0.15"/>
<path d="M221.15 65.1387C221.608 65.4466 221.608 65.9446 221.148 66.251C220.689 66.5573 219.944 66.556 219.486 66.2481C219.027 65.9402 219.028 65.4422 219.488 65.1359C219.947 64.8295 220.691 64.8308 221.15 65.1387Z" fill="white" fill-opacity="0.15"/>
<path d="M234.432 74.0596C234.891 74.3675 234.89 74.8655 234.43 75.1719C233.971 75.4782 233.227 75.4769 232.768 75.169C232.31 74.8611 232.31 74.3631 232.77 74.0568C233.23 73.7504 233.974 73.7517 234.432 74.0596Z" fill="white" fill-opacity="0.15"/>
<path d="M247.714 82.9805C248.173 83.2884 248.172 83.7864 247.712 84.0928C247.253 84.3991 246.509 84.3978 246.05 84.0899C245.592 83.782 245.593 83.284 246.052 82.9777C246.512 82.6713 247.256 82.6726 247.714 82.9805Z" fill="white" fill-opacity="0.15"/>
<path d="M260.997 91.9014C261.455 92.2093 261.454 92.7073 260.995 93.0137C260.535 93.32 259.791 93.3187 259.333 93.0108C258.874 92.7029 258.875 92.2049 259.334 91.8986C259.794 91.5922 260.538 91.5935 260.997 91.9014Z" fill="white" fill-opacity="0.15"/>
<path d="M274.279 100.822C274.737 101.13 274.736 101.628 274.277 101.935C273.817 102.241 273.073 102.24 272.615 101.932C272.156 101.624 272.157 101.126 272.617 100.819C273.076 100.513 273.82 100.514 274.279 100.822Z" fill="white" fill-opacity="0.15"/>
<path d="M287.561 109.743C288.02 110.051 288.019 110.549 287.559 110.855C287.1 111.162 286.355 111.161 285.897 110.853C285.439 110.545 285.439 110.047 285.899 109.74C286.358 109.434 287.103 109.435 287.561 109.743Z" fill="white" fill-opacity="0.15"/>
<path d="M300.843 118.664C301.302 118.972 301.301 119.47 300.841 119.776C300.382 120.083 299.638 120.081 299.179 119.774C298.721 119.466 298.722 118.968 299.181 118.661C299.641 118.355 300.385 118.356 300.843 118.664Z" fill="white" fill-opacity="0.15"/>
<path d="M314.126 127.585C314.584 127.893 314.583 128.391 314.124 128.697C313.664 129.004 312.92 129.002 312.461 128.694C312.003 128.386 312.004 127.889 312.463 127.582C312.923 127.276 313.667 127.277 314.126 127.585Z" fill="white" fill-opacity="0.15"/>
<path d="M327.408 136.506C327.866 136.814 327.865 137.312 327.406 137.618C326.946 137.925 326.202 137.923 325.744 137.615C325.285 137.307 325.286 136.809 325.746 136.503C326.205 136.197 326.949 136.198 327.408 136.506Z" fill="white" fill-opacity="0.15"/>
<path d="M340.69 145.427C341.148 145.735 341.148 146.233 340.688 146.539C340.229 146.845 339.484 146.844 339.026 146.536C338.567 146.228 338.568 145.73 339.028 145.424C339.487 145.118 340.232 145.119 340.69 145.427Z" fill="white" fill-opacity="0.15"/>
<path d="M353.972 154.348C354.431 154.656 354.43 155.154 353.97 155.46C353.511 155.766 352.767 155.765 352.308 155.457C351.85 155.149 351.85 154.651 352.31 154.345C352.77 154.038 353.514 154.04 353.972 154.348Z" fill="white" fill-opacity="0.15"/>
<path d="M367.254 163.269C367.713 163.577 367.712 164.075 367.253 164.381C366.793 164.687 366.049 164.686 365.59 164.378C365.132 164.07 365.133 163.572 365.592 163.266C366.052 162.959 366.796 162.961 367.254 163.269Z" fill="white" fill-opacity="0.15"/>
<path d="M21.7401 198.188C22.1986 198.496 22.1977 198.994 21.7382 199.3C21.2786 199.606 20.5345 199.605 20.076 199.297C19.6175 198.989 19.6184 198.491 20.0779 198.185C20.5374 197.878 21.2816 197.88 21.7401 198.188Z" fill="white" fill-opacity="0.15"/>
<path d="M103.19 164.362L103.171 164.307C103.031 163.898 103.031 163.476 103.171 163.068L103.19 163.013L103.19 162.937L103.211 162.937L103.308 162.754C103.512 162.37 103.852 161.995 104.343 161.668L161.822 123.35C162.706 122.761 163.882 122.457 165.075 122.459C166.269 122.461 167.444 122.768 168.326 123.361L201.587 145.7C202.593 146.376 202.964 147.243 202.831 148.028L202.763 148.431L202.942 148.431L202.942 155.338L202.869 155.338L202.856 155.669C202.827 156.337 202.43 157.042 201.58 157.609L144.102 195.927C143.218 196.516 142.041 196.82 140.848 196.818C139.655 196.816 138.479 196.509 137.597 195.916L104.336 173.576C103.961 173.324 103.674 173.044 103.469 172.754L103.366 172.609L103.19 172.609L103.19 172.234L103.171 172.18C103.031 171.771 103.031 171.348 103.171 170.94L103.19 170.885L103.19 164.362Z" fill="#0D0B12"/>
<path d="M103.19 164.362L103.171 164.307C103.031 163.898 103.031 163.476 103.171 163.068L103.19 163.013L103.19 162.937L103.211 162.937L103.308 162.754C103.512 162.37 103.852 161.995 104.343 161.668L161.822 123.35C162.706 122.761 163.882 122.457 165.075 122.459C166.269 122.461 167.444 122.768 168.326 123.361L201.587 145.7C202.593 146.376 202.964 147.243 202.831 148.028L202.763 148.431L202.942 148.431L202.942 155.338L202.869 155.338L202.856 155.669C202.827 156.337 202.43 157.042 201.58 157.609L144.102 195.927C143.218 196.516 142.041 196.82 140.848 196.818C139.655 196.816 138.479 196.509 137.597 195.916L104.336 173.576C103.961 173.324 103.674 173.044 103.469 172.754L103.366 172.609L103.19 172.609L103.19 172.234L103.171 172.18C103.031 171.771 103.031 171.348 103.171 170.94L103.19 170.885L103.19 164.362Z" stroke="white" stroke-opacity="0.25" stroke-width="0.690798"/>
<path d="M103.19 164.362L103.171 164.307C103.031 163.898 103.031 163.476 103.171 163.068L103.19 163.013L103.19 162.937L103.211 162.937L103.308 162.754C103.512 162.37 103.852 161.995 104.343 161.668L161.822 123.35C162.706 122.761 163.882 122.457 165.075 122.459C166.269 122.461 167.444 122.768 168.326 123.361L201.587 145.7C202.593 146.376 202.964 147.243 202.831 148.028L202.763 148.431L202.942 148.431L202.942 155.338L202.869 155.338L202.856 155.669C202.827 156.337 202.43 157.042 201.58 157.609L144.102 195.927C143.218 196.516 142.041 196.82 140.848 196.818C139.655 196.816 138.479 196.509 137.597 195.916L104.336 173.576C103.961 173.324 103.674 173.044 103.469 172.754L103.366 172.609L103.19 172.609L103.19 172.234L103.171 172.18C103.031 171.771 103.031 171.348 103.171 170.94L103.19 170.885L103.19 164.362Z" stroke="#4E4D51" stroke-width="0.690798"/>
<rect width="77.3694" height="48.3559" rx="4.14479" transform="matrix(0.83205 -0.5547 0.830139 0.557556 101.192 162.917)" fill="#201F2D"/>
<rect x="0.831095" y="0.00142801" width="76.3694" height="47.3559" rx="3.64479" transform="matrix(0.83205 -0.5547 0.830139 0.557556 101.33 163.378)" stroke="white" stroke-opacity="0.25"/>
<rect x="0.831095" y="0.00142801" width="76.3694" height="47.3559" rx="3.64479" transform="matrix(0.83205 -0.5547 0.830139 0.557556 101.33 163.378)" stroke="#4E4D51" stroke-opacity="0.3"/>
<rect opacity="0.2" width="31.3881" height="4.83729" rx="2" transform="matrix(0.83205 -0.5547 0.830139 0.557556 127.68 156.017)" fill="#D9D9D9"/>
<rect opacity="0.1" width="38.6845" height="3.06554" rx="1.53277" transform="matrix(0.83205 -0.5547 0.830139 0.557556 148.198 172.422)" fill="#D9D9D9"/>
<g clip-path="url(#clip0_2402_6332)">
<path fill-rule="evenodd" clip-rule="evenodd" d="M117.956 160.188C115.88 161.572 115.876 163.82 117.947 165.212C119.607 166.326 122.084 166.55 124.075 165.888C124.296 165.785 124.254 165.662 124.155 165.596C124.066 165.536 123.766 165.341 123.452 165.13C122.681 165.876 122.034 165.768 121.748 165.677C121.598 165.632 121.082 165.531 120.833 165.578C120.631 165.618 120.27 165.627 120.58 165.414C120.871 165.213 121.359 165.258 121.542 165.287C122.447 165.442 122.828 164.975 122.946 164.765C122.735 164.579 122.67 164.403 122.684 164.268C121.754 164.763 120.557 165.128 119.122 164.165C118.715 163.891 118.523 163.567 118.5 163.231C118.369 163.193 117.853 163.023 117.544 162.539C117.544 162.539 117.76 162.263 118.962 162.108C119.178 161.851 119.455 161.609 119.775 161.396C120.094 161.183 120.456 160.999 120.841 160.855C121.072 160.048 121.49 159.908 121.49 159.908C122.212 160.116 122.465 160.462 122.521 160.55C123.023 160.567 123.502 160.693 123.914 160.97C125.353 161.937 124.794 162.736 124.051 163.357C124.304 163.345 124.647 163.418 124.998 163.654C125.5 163.991 125.898 164.264 126.025 164.349C126.123 164.416 126.311 164.447 126.461 164.297C127.449 162.973 127.119 161.312 125.464 160.2C123.392 158.809 120.033 158.803 117.956 160.188Z" fill="#F7F7F8"/>
</g>
<path d="M143.046 176.643L143.181 176.734C143.498 176.947 143.704 177.223 143.768 177.521C143.832 177.818 143.75 178.122 143.535 178.386C143.32 178.649 142.983 178.86 142.575 178.985C142.166 179.11 141.708 179.143 141.269 179.08C140.829 179.016 140.432 178.86 140.136 178.633C139.84 178.406 139.662 178.122 139.627 177.822C139.593 177.522 139.704 177.223 139.944 176.969C140.185 176.715 140.541 176.52 140.961 176.413" stroke="#42946E" stroke-linecap="round" stroke-linejoin="round"/>
<path d="M142.004 175.943L142.002 177.916L141.118 177.914" stroke="#42946E" stroke-linecap="round" stroke-linejoin="round"/>
<path d="M192.19 191.362L192.171 191.307C192.031 190.898 192.031 190.476 192.171 190.068L192.19 190.013L192.19 189.937L192.211 189.937L192.308 189.754C192.512 189.37 192.853 188.995 193.343 188.668L250.822 150.35C251.706 149.761 252.882 149.457 254.076 149.459C255.269 149.461 256.445 149.768 257.327 150.361L290.587 172.7C291.593 173.376 291.964 174.243 291.831 175.028L291.763 175.431L291.942 175.431L291.942 182.338L291.87 182.338L291.856 182.669C291.827 183.337 291.43 184.042 290.58 184.609L233.102 222.927C232.218 223.516 231.041 223.82 229.848 223.818C228.655 223.816 227.479 223.509 226.597 222.916L193.336 200.576C192.961 200.324 192.674 200.044 192.469 199.754L192.367 199.609L192.19 199.609L192.19 199.234L192.171 199.18C192.031 198.771 192.031 198.348 192.171 197.94L192.19 197.885L192.19 191.362Z" fill="#0D0B12" stroke="#4E4D51" stroke-width="0.690798"/>
<rect x="0.831095" y="0.00142801" width="76.3694" height="47.3559" rx="3.64479" transform="matrix(0.83205 -0.5547 0.830139 0.557556 190.33 190.378)" fill="#201F2D" stroke="#4E4D51"/>
<rect opacity="0.2" width="31.9306" height="4.83729" rx="2" transform="matrix(0.83205 -0.5547 0.830139 0.557556 216.68 183.017)" fill="#D9D9D9"/>
<rect opacity="0.1" width="25.7496" height="3.06554" rx="1.53277" transform="matrix(0.83205 -0.5547 0.830139 0.557556 237.198 199.422)" fill="#D9D9D9"/>
<g clip-path="url(#clip1_2402_6332)">
<path d="M215.063 187.793C214.887 187.733 214.68 187.748 214.51 187.832C214.43 187.871 214.355 187.927 214.279 188.004C214.148 188.136 214.039 188.227 213.952 188.288C213.722 187.682 213.348 187.064 212.897 186.55C212.166 185.718 211.581 185.507 211.219 185.477C210.26 185.397 209.356 185.614 208.605 186.102C208.205 186.363 207.935 186.647 207.81 186.805C207.612 186.898 207.414 187.008 207.22 187.133C206.858 187.367 206.62 187.629 206.51 187.916C206.31 187.982 206 188.094 205.678 188.247C204.921 188.609 204.48 189.015 204.367 189.452C204.23 189.981 204.583 190.506 205.417 191.013C205.682 191.174 206.59 191.595 207.54 191.935C208.086 192.13 208.569 192.273 208.977 192.358C209.555 192.478 209.992 192.485 210.312 192.379C210.492 192.319 210.768 192.177 210.811 191.862C210.883 191.866 210.966 191.864 211.06 191.85C211.18 191.832 211.307 191.797 211.419 191.752C211.823 191.591 212.105 191.376 212.25 191.128C212.297 191.158 212.342 191.187 212.381 191.211C212.444 191.251 212.506 191.29 212.564 191.327C212.96 191.572 213.281 191.753 213.564 191.84C213.58 191.845 213.603 191.853 213.627 191.861C213.782 191.914 214.042 192.003 214.359 191.998C214.686 191.992 214.939 191.889 215.126 191.764C215.219 191.702 215.297 191.634 215.358 191.57C215.578 191.344 215.804 191.071 215.708 190.699C215.617 190.347 215.258 189.964 214.545 189.46C214.526 189.444 214.509 189.429 214.492 189.415L214.458 189.386L214.514 189.355L214.528 189.347C214.825 189.166 215.113 188.893 215.228 188.684C215.319 188.519 215.575 187.966 215.063 187.793" fill="black"/>
<path d="M214.651 188.167C213.978 188.849 213.634 188.696 213.634 188.696C213.205 187.211 211.898 185.833 211.165 185.772C209.163 185.606 208.171 186.977 208.159 187.003L208.153 187.01C207.951 187.098 207.743 187.209 207.529 187.347C207.14 187.598 206.955 187.863 206.902 188.122C206.902 188.122 203.068 189.184 205.716 190.793C206.279 191.135 210.544 193.005 210.368 191.699C210.303 191.221 210.287 190.792 210.287 190.792C210.546 190.757 210.785 190.668 210.961 190.526L210.963 190.507C211.007 190.542 211.056 190.573 211.121 190.605C211.147 190.928 211.259 190.913 210.896 191.281C210.529 191.653 210.97 191.585 211.191 191.497C211.46 191.39 212.033 191.109 211.899 190.57L211.94 190.615C212.101 190.603 212.557 190.826 212.904 191.073C213.25 191.319 213.488 191.489 213.75 191.57C214.012 191.652 214.513 191.894 214.985 191.408C215.38 191.001 215.362 190.641 214.934 190.306C214.63 190.067 214.737 190.061 214.446 189.861L214.353 189.736C213.96 189.4 213.771 189.333 214.147 189.172L214.229 189.127C214.466 188.982 214.717 188.752 214.811 188.581C215.013 188.213 214.945 187.869 214.651 188.168L214.651 188.167" fill="#336791"/>
<path d="M208.705 189.121C208.618 189.165 208.559 189.217 208.55 189.258C208.545 189.281 208.557 189.297 208.567 189.306C208.594 189.33 208.65 189.339 208.682 189.342C208.771 189.35 208.862 189.336 208.925 189.304C208.934 189.3 208.942 189.295 208.95 189.289C209.043 189.228 209.055 189.124 209.009 189.083C208.952 189.032 208.812 189.067 208.705 189.121L208.705 189.121ZM211.235 187.437C211.175 187.407 211.068 187.459 210.992 187.526C210.916 187.593 210.871 187.676 210.93 187.706C210.976 187.73 211.119 187.727 211.205 187.669C211.213 187.664 211.22 187.659 211.226 187.654C211.276 187.61 211.282 187.557 211.281 187.529C211.279 187.487 211.261 187.451 211.235 187.437" fill="white"/>
<path d="M214.913 187.967C214.783 187.923 214.648 187.971 214.511 188.11C214.104 188.522 213.847 188.596 213.742 188.606C213.535 187.934 213.131 187.224 212.625 186.647C212.385 186.374 212.131 186.141 211.89 185.974C211.625 185.791 211.382 185.689 211.166 185.671C210.298 185.599 209.477 185.797 208.792 186.244C208.321 186.551 208.046 186.893 208.004 186.967C207.803 187.047 207.603 187.147 207.409 187.273C207.054 187.502 206.835 187.76 206.755 188.041C206.606 188.086 206.228 188.209 205.83 188.401C205.14 188.733 204.74 189.097 204.641 189.481C204.523 189.94 204.846 190.405 205.599 190.863C205.853 191.017 206.734 191.424 207.663 191.757C208.886 192.195 209.727 192.343 210.164 192.198C210.215 192.181 210.268 192.158 210.317 192.125C210.436 192.045 210.529 191.912 210.499 191.687C210.462 191.414 210.437 191.14 210.424 190.865C210.622 190.826 210.802 190.757 210.951 190.663C210.955 190.666 210.959 190.668 210.963 190.67C210.968 190.707 210.973 190.743 210.98 190.78C211.007 190.932 211.012 190.963 210.756 191.223C210.683 191.297 210.489 191.493 210.656 191.61C210.838 191.738 211.209 191.596 211.25 191.579C211.395 191.521 211.521 191.456 211.628 191.385C211.887 191.213 212.03 191.003 212.048 190.772C212.707 191.221 213.389 191.643 213.668 191.723C213.897 191.789 214.456 191.951 214.961 191.614C215.035 191.564 215.108 191.504 215.179 191.431C215.593 191.004 215.59 190.695 215.166 190.292C214.939 190.076 214.367 189.583 214.054 189.322C214.16 189.285 214.275 189.223 214.388 189.148C214.622 188.992 214.843 188.778 214.934 188.612C215.036 188.426 215.163 188.051 214.913 187.967V187.967ZM211.286 187.211C211.388 187.282 211.467 187.354 211.55 187.431C211.64 187.512 211.732 187.597 211.86 187.689C211.985 187.778 212.135 187.857 212.28 187.934C212.574 188.089 212.876 188.248 213.017 188.511C212.959 188.5 212.902 188.487 212.847 188.471C212.794 188.456 212.7 188.438 212.569 188.413C212.061 188.316 210.871 188.087 210.778 187.733C210.75 187.627 210.82 187.453 211.286 187.211V187.211ZM209.028 186.367C209.649 185.971 210.356 185.803 211.13 185.868C211.724 185.917 212.95 187.125 213.424 188.557C213.405 188.555 213.386 188.554 213.367 188.552L213.343 188.551C213.204 188.169 212.812 187.962 212.464 187.778C212.321 187.703 212.186 187.632 212.077 187.553C211.961 187.47 211.874 187.391 211.79 187.314C211.686 187.219 211.578 187.121 211.424 187.024C211.412 187.011 211.395 186.997 211.371 186.984C211.214 186.897 210.621 186.718 209.899 186.68C209.504 186.659 208.999 186.678 208.475 186.813C208.599 186.686 208.783 186.523 209.028 186.367V186.367ZM210.203 191.705C210.237 191.952 210.082 192.004 210.031 192.02C209.7 192.131 208.888 191.971 207.802 191.582C206.863 191.246 206.011 190.846 205.798 190.716C205.125 190.307 204.834 189.903 204.933 189.515C205.095 188.885 206.237 188.436 206.721 188.273C206.72 188.28 206.72 188.286 206.72 188.293C206.724 189.098 207.77 189.781 207.834 189.822C207.858 189.839 207.895 189.86 207.945 189.89C208.129 190 208.471 190.204 208.785 190.484C209.077 190.743 209.514 190.897 209.985 190.904C210.033 190.905 210.081 190.904 210.129 190.902C210.136 191.044 210.156 191.355 210.203 191.705V191.705ZM209.991 190.706C209.612 190.7 209.259 190.575 209.022 190.365C208.69 190.069 208.333 189.857 208.142 189.742C208.115 189.726 208.092 189.712 208.074 189.701C208.084 189.591 208.272 189.175 208.628 189.027C208.79 188.959 208.96 188.966 209.147 189.047C210.119 189.468 210.301 189.791 210.448 190.051C210.478 190.105 210.507 190.155 210.541 190.205L210.567 190.243C210.633 190.34 210.694 190.43 210.764 190.508C210.566 190.639 210.29 190.711 209.991 190.706L209.991 190.706ZM211.098 191.409C211.026 191.438 210.949 191.455 210.898 191.462C210.912 191.437 210.941 191.396 211.003 191.333C211.305 191.027 211.308 190.951 211.274 190.757C211.266 190.712 211.257 190.662 211.252 190.596L211.252 190.596C211.244 190.499 211.289 190.487 211.369 190.465C211.434 190.447 211.537 190.456 211.619 190.486C211.657 190.501 211.724 190.532 211.737 190.583C211.843 191.012 211.448 191.269 211.098 191.409V191.409ZM214.93 191.323C214.565 191.7 214.164 191.65 213.785 191.541C213.541 191.47 212.72 190.965 211.875 190.365C211.864 190.357 211.851 190.35 211.837 190.346C211.814 190.334 211.789 190.323 211.763 190.313C211.6 190.252 211.406 190.24 211.256 190.281C211.196 190.298 211.087 190.328 211.018 190.406C210.956 190.338 210.899 190.253 210.836 190.161L210.81 190.123C210.78 190.079 210.754 190.032 210.725 189.981C210.572 189.709 210.361 189.337 209.308 188.88C208.914 188.71 208.521 188.76 208.202 189.022C208.011 189.178 207.901 189.366 207.853 189.464C207.843 189.485 207.834 189.505 207.826 189.523C207.526 189.286 207.019 188.807 207.016 188.292C207.015 187.968 207.217 187.673 207.615 187.415C208.4 186.909 209.292 186.844 209.901 186.879C210.426 186.909 210.843 187.015 211.049 187.084C210.618 187.318 210.428 187.547 210.486 187.767C210.611 188.244 211.879 188.487 212.488 188.604C212.599 188.625 212.696 188.644 212.733 188.654C212.976 188.722 213.183 188.738 213.334 188.749C213.38 188.753 213.425 188.756 213.462 188.761C213.378 188.863 213.243 189.058 213.657 189.309C213.839 189.453 214.653 190.149 214.924 190.406C215.281 190.746 215.283 190.96 214.93 191.323L214.93 191.323ZM214.656 188.544C214.59 188.662 214.43 188.826 214.246 188.961C214.043 189.109 213.901 189.159 213.854 189.162C213.597 189.005 213.663 188.927 213.733 188.844C213.744 188.831 213.754 188.818 213.764 188.805C213.78 188.804 213.797 188.802 213.814 188.8C214.098 188.762 214.416 188.566 214.758 188.219L214.762 188.215C214.758 188.291 214.731 188.406 214.656 188.544Z" fill="white"/>
</g>
<path d="M232.046 203.643L232.181 203.734C232.499 203.947 232.704 204.223 232.768 204.521C232.832 204.818 232.75 205.122 232.535 205.386C232.32 205.649 231.983 205.86 231.575 205.985C231.166 206.11 230.708 206.143 230.269 206.08C229.829 206.016 229.432 205.86 229.136 205.633C228.84 205.406 228.662 205.122 228.627 204.822C228.593 204.522 228.704 204.223 228.944 203.969C229.185 203.715 229.541 203.52 229.961 203.413" stroke="#42946E" stroke-linecap="round" stroke-linejoin="round"/>
<path d="M231.004 202.943L231.002 204.916L230.118 204.914" stroke="#42946E" stroke-linecap="round" stroke-linejoin="round"/>
<path d="M319 77.9545C319 77.3473 319.682 76.9899 320.181 77.3351L350.675 98.4175C350.879 98.5581 351 98.7896 351 99.0368V124.147C351 124.754 350.318 125.112 349.819 124.767L319.325 103.684C319.121 103.544 319 103.312 319 103.065V77.9545Z" fill="#0D0B12" stroke="#4E4D51" stroke-width="0.752941" stroke-linecap="round"/>
<path d="M383 77.9545C383 77.3473 382.318 76.9899 381.819 77.3351L351.325 98.4175C351.121 98.5581 351 98.7896 351 99.0368V124.147C351 124.754 351.682 125.112 352.181 124.767L382.675 103.684C382.879 103.544 383 103.312 383 103.065V77.9545Z" fill="#0D0B12" stroke="#4E4D51" stroke-width="0.752941" stroke-linecap="round"/>
<path d="M355.926 57.3189L382.122 75.7046C382.549 76.0044 382.549 76.6373 382.122 76.9371L351.627 98.3401C351.369 98.5214 351.025 98.5224 350.766 98.3426L319.893 76.9396C319.461 76.6402 319.461 76.0015 319.893 75.7021L346.45 57.2914C349.302 55.3138 353.085 55.3248 355.926 57.3189Z" fill="#201F2D" stroke="#4E4D51" stroke-width="0.752941" stroke-linecap="round"/>
<g clip-path="url(#clip2_2402_6332)">
<path d="M351.634 69.4489C352.677 70.1492 350.981 72.4114 347.845 74.5017C344.71 76.5919 341.323 77.7187 340.28 77.0183M351.634 69.4489C350.592 68.7485 347.205 69.8753 344.069 71.9655C340.934 74.0558 339.237 76.318 340.28 77.0183M351.634 69.4489L360.445 75.3665C361.49 76.0682 359.81 78.3167 356.656 80.4193C353.502 82.522 350.136 83.6377 349.091 82.936L340.28 77.0183M356.04 72.4077C357.084 73.1094 355.405 75.3579 352.251 77.4605C349.097 79.5631 345.73 80.6788 344.685 79.9771" stroke="#868593" stroke-width="1.12941" stroke-linecap="round" stroke-linejoin="round"/>
</g>
<path d="M42 84.9545C42 84.3473 42.6817 83.9899 43.1811 84.3351L73.6752 105.417C73.8786 105.558 74 105.79 74 106.037V131.147C74 131.754 73.3183 132.112 72.8189 131.767L42.3248 110.684C42.1214 110.544 42 110.312 42 110.065V84.9545Z" fill="#0D0B12" stroke="#4E4D51" stroke-width="0.752941" stroke-linecap="round"/>
<path d="M106 84.9545C106 84.3473 105.318 83.9899 104.819 84.3351L74.3248 105.417C74.1214 105.558 74 105.79 74 106.037V131.147C74 131.754 74.6817 132.112 75.1811 131.767L105.675 110.684C105.879 110.544 106 110.312 106 110.065V84.9545Z" fill="#0D0B12" stroke="#4E4D51" stroke-width="0.752941" stroke-linecap="round"/>
<path d="M78.9264 64.3189L105.122 82.7046C105.549 83.0044 105.549 83.6373 105.122 83.9371L74.6274 105.34C74.3691 105.521 74.0252 105.522 73.7659 105.343L42.8926 83.9396C42.4606 83.6402 42.4606 83.0015 42.8926 82.7021L69.4495 64.2914C72.3021 62.3138 76.0853 62.3248 78.9264 64.3189Z" fill="#201F2D" stroke="#4E4D51" stroke-width="0.752941" stroke-linecap="round"/>
<g clip-path="url(#clip3_2402_6332)">
<path d="M79.6704 78.9871L67.0546 87.3976M79.6704 78.9871L83.4464 81.5233C83.7802 81.7475 83.9675 82.0511 83.9669 82.3674C83.9664 82.6837 83.7781 82.9866 83.4435 83.2097L73.3509 89.9381C73.0163 90.1612 72.5628 90.286 72.0902 90.2852C71.6175 90.2844 71.1645 90.158 70.8306 89.9338L67.0546 87.3976M79.6704 78.9871L73.158 77.5256C72.8439 77.4544 72.5064 77.4432 72.1835 77.4933C71.8606 77.5434 71.5652 77.6528 71.3303 77.8092L65.3252 81.8126C65.0906 81.9691 64.9261 82.1664 64.85 82.3823C64.774 82.5981 64.7894 82.824 64.8947 83.0345L67.0546 87.3976M72.0951 87.4063L72.1014 87.4021M74.6183 85.7242L74.6246 85.72" stroke="#868593" stroke-width="1.12941" stroke-linecap="round" stroke-linejoin="round"/>
</g>
<path opacity="0.8" d="M152 75L152 150M152 150L149 147M152 150L155 147" stroke="url(#paint0_linear_2402_6332)" stroke-width="2.5" stroke-linecap="round"/>
<path opacity="0.8" d="M241 109L241 184M241 184L238 181M241 184L244 181" stroke="url(#paint1_linear_2402_6332)" stroke-width="2.5" stroke-linecap="round"/>
<path d="M120 25.9545C120 25.3473 120.682 24.9899 121.181 25.3351L151.675 46.4175C151.879 46.5581 152 46.7896 152 47.0368V72.1473C152 72.7544 151.318 73.1119 150.819 72.7666L120.325 51.6843C120.121 51.5437 120 51.3122 120 51.0649V25.9545Z" fill="#0A090E" stroke="#C913AC" stroke-opacity="0.7" stroke-width="0.752941" stroke-linecap="round"/>
<path d="M184 25.9545C184 25.3473 183.318 24.9899 182.819 25.3351L152.325 46.4175C152.121 46.5581 152 46.7896 152 47.0368V72.1473C152 72.7544 152.682 73.1119 153.181 72.7666L183.675 51.6843C183.879 51.5437 184 51.3122 184 51.0649V25.9545Z" fill="#0A090E" stroke="#C913AC" stroke-opacity="0.7" stroke-width="0.752941" stroke-linecap="round"/>
<path d="M156.926 5.31887L183.122 23.7046C183.549 24.0044 183.549 24.6373 183.122 24.9371L152.627 46.3401C152.369 46.5214 152.025 46.5224 151.766 46.3426L120.893 24.9396C120.461 24.6402 120.461 24.0015 120.893 23.7021L147.45 5.29142C150.302 3.31385 154.085 3.3248 156.926 5.31887Z" fill="#201F2D" stroke="#C913AC" stroke-opacity="0.7" stroke-width="0.752941" stroke-linecap="round"/>
<g clip-path="url(#clip4_2402_6332)">
<path fill-rule="evenodd" clip-rule="evenodd" d="M143.81 19.1202C139.628 21.9083 139.621 26.4364 143.793 29.2388C147.135 31.4833 152.124 31.9345 156.134 30.6007C156.578 30.3928 156.494 30.146 156.295 30.0128C156.116 29.8924 155.512 29.4992 154.879 29.0744C153.327 30.5769 152.023 30.3597 151.447 30.1753C151.144 30.0862 150.105 29.882 149.604 29.9761C149.198 30.0576 148.47 30.0753 149.094 29.6463C149.681 29.2426 150.664 29.3328 151.032 29.3904C152.856 29.7034 153.623 28.7624 153.86 28.3391C153.435 27.9652 153.304 27.6109 153.332 27.339C151.459 28.335 149.048 29.0707 146.159 27.1306C145.338 26.579 144.952 25.9269 144.906 25.2502C144.641 25.1738 143.602 24.8305 142.98 23.8556C142.98 23.8556 143.416 23.2998 145.836 22.9877C146.271 22.4699 146.83 21.9839 147.473 21.555C148.117 21.126 148.845 20.7542 149.62 20.4646C150.086 18.8401 150.928 18.5569 150.928 18.5569C152.383 18.9768 152.892 19.6734 153.005 19.8506C154.016 19.884 154.98 20.1386 155.81 20.6966C158.709 22.643 157.581 24.2538 156.086 25.5034C156.596 25.479 157.286 25.6256 157.994 26.1011C159.004 26.7795 159.806 27.3311 160.061 27.5023C160.259 27.6355 160.637 27.6993 160.94 27.3963C162.93 24.7309 162.264 21.3843 158.932 19.1462C154.759 16.3437 147.993 16.3321 143.81 19.1202Z" fill="#F7F7F8"/>
</g>
<path d="M209 49.9545C209 49.3473 209.682 48.9899 210.181 49.3351L240.675 70.4175C240.879 70.5581 241 70.7896 241 71.0368V96.1473C241 96.7544 240.318 97.1119 239.819 96.7666L209.325 75.6843C209.121 75.5437 209 75.3122 209 75.0649V49.9545Z" fill="#0A090E" stroke="#C91380" stroke-opacity="0.4" stroke-width="0.752941" stroke-linecap="round"/>
<path d="M273 49.9545C273 49.3473 272.318 48.9899 271.819 49.3351L241.325 70.4175C241.121 70.5581 241 70.7896 241 71.0368V96.1473C241 96.7544 241.682 97.1119 242.181 96.7666L272.675 75.6843C272.879 75.5437 273 75.3122 273 75.0649V49.9545Z" fill="#0A090E" stroke="#C91380" stroke-opacity="0.4" stroke-width="0.752941" stroke-linecap="round"/>
<path d="M245.926 29.3189L272.122 47.7046C272.549 48.0044 272.549 48.6373 272.122 48.9371L241.627 70.3401C241.369 70.5214 241.025 70.5224 240.766 70.3426L209.893 48.9396C209.461 48.6402 209.461 48.0015 209.893 47.7021L236.45 29.2914C239.302 27.3138 243.085 27.3248 245.926 29.3189Z" fill="#0A090E" stroke="#C91380" stroke-opacity="0.4" stroke-width="0.752941" stroke-linecap="round"/>
<path d="M245.926 29.3189L272.122 47.7046C272.549 48.0044 272.549 48.6373 272.122 48.9371L241.627 70.3401C241.369 70.5214 241.025 70.5224 240.766 70.3426L209.893 48.9396C209.461 48.6402 209.461 48.0015 209.893 47.7021L236.45 29.2914C239.302 27.3138 243.085 27.3248 245.926 29.3189Z" fill="#201F2D" stroke="#C91380" stroke-opacity="0.4" stroke-width="0.752941" stroke-linecap="round"/>
<g clip-path="url(#clip5_2402_6332)">
<path d="M249.137 44.339C248.783 44.219 248.367 44.2483 248.024 44.4172C247.863 44.4969 247.711 44.6102 247.56 44.7636C247.296 45.0309 247.075 45.2126 246.901 45.3359C246.436 44.1155 245.684 42.872 244.775 41.8359C243.304 40.1605 242.125 39.7364 241.396 39.6756C239.464 39.5146 237.644 39.9499 236.132 40.9342C235.325 41.4591 234.782 42.0311 234.53 42.3504C234.13 42.5368 233.732 42.758 233.342 43.0095C232.612 43.481 232.133 44.0095 231.911 44.5871C231.51 44.7193 230.885 44.9448 230.236 45.2548C228.712 45.9839 227.824 46.7999 227.596 47.6801C227.32 48.746 228.031 49.8038 229.71 50.8243C230.243 51.1483 232.073 51.996 233.986 52.681C235.085 53.0748 236.059 53.3613 236.88 53.5327C238.045 53.7757 238.925 53.7895 239.57 53.5751C239.931 53.4548 240.487 53.1686 240.575 52.5337C240.72 52.5432 240.886 52.5378 241.076 52.5094C241.317 52.4733 241.573 52.4039 241.799 52.3139C242.611 51.9893 243.18 51.556 243.472 51.0568C243.568 51.1166 243.658 51.1742 243.736 51.2239C243.863 51.3045 243.988 51.3834 244.105 51.4564C244.901 51.9498 245.548 52.3145 246.119 52.491C246.15 52.5007 246.197 52.5166 246.246 52.5334C246.558 52.6402 247.082 52.8191 247.719 52.8078C248.378 52.7963 248.888 52.5882 249.264 52.3373C249.453 52.2114 249.608 52.0748 249.732 51.9468C250.175 51.4905 250.631 50.941 250.436 50.1912C250.253 49.4824 249.529 48.7121 248.093 47.6962C248.057 47.6649 248.022 47.6351 247.988 47.6067L247.919 47.5482L248.031 47.4856L248.06 47.4691C248.659 47.1043 249.239 46.5553 249.47 46.1341C249.653 45.8015 250.169 44.6886 249.137 44.339" fill="black"/>
<path d="M248.307 45.0939C246.953 46.4664 246.26 46.1577 246.26 46.1577C245.395 43.1672 242.764 40.393 241.287 40.2698C237.256 39.934 235.257 42.6964 235.233 42.7492L235.22 42.7621C234.813 42.9399 234.395 43.1633 233.964 43.4412C233.18 43.9471 232.809 44.4813 232.701 45.0031C232.701 45.0031 224.98 47.1404 230.312 50.3811C231.446 51.0705 240.037 54.8361 239.681 52.2062C239.55 51.2448 239.519 50.3793 239.519 50.3793C240.04 50.3099 240.521 50.131 240.876 49.8432L240.881 49.8055C240.969 49.8772 241.068 49.9382 241.198 50.0022C241.251 50.6536 241.476 50.6239 240.745 51.3641C240.006 52.1132 240.893 51.9775 241.339 51.7994C241.88 51.5833 243.034 51.0185 242.766 49.9327L242.847 50.0231C243.171 49.9997 244.091 50.448 244.789 50.9451C245.487 51.4421 245.966 51.7831 246.494 51.9474C247.021 52.1116 248.031 52.5999 248.981 51.62C249.776 50.8012 249.74 50.076 248.879 49.4002C248.266 48.9198 248.481 48.9077 247.895 48.5041L247.708 48.2528C246.916 47.5762 246.535 47.4418 247.292 47.1175L247.457 47.0255C247.936 46.734 248.441 46.2708 248.63 45.9265C249.037 45.1856 248.901 44.4923 248.307 45.094L248.307 45.0939" fill="#336791"/>
<path d="M236.332 47.0141C236.157 47.1022 236.038 47.2082 236.021 47.2909C236.011 47.3374 236.033 47.3688 236.054 47.3871C236.108 47.4354 236.223 47.4528 236.286 47.4588C236.465 47.4759 236.648 47.4478 236.775 47.3838C236.793 47.3746 236.811 47.3645 236.827 47.3539C237.013 47.2298 237.037 47.0199 236.946 46.9383C236.831 46.8362 236.547 46.906 236.332 47.0141L236.332 47.0141ZM241.427 43.6231C241.308 43.5625 241.091 43.667 240.938 43.8017C240.786 43.9363 240.694 44.1043 240.813 44.1652C240.906 44.2124 241.194 44.2075 241.368 44.0909C241.383 44.0811 241.397 44.0705 241.41 44.059C241.511 43.9704 241.522 43.8636 241.521 43.8078C241.517 43.7229 241.481 43.6503 241.427 43.6231" fill="white"/>
<path d="M248.835 44.689C248.574 44.6006 248.301 44.6977 248.025 44.9776C247.205 45.8086 246.688 45.9562 246.478 45.9773C246.061 44.6231 245.246 43.1928 244.227 42.0315C243.744 41.4814 243.232 41.0128 242.746 40.6765C242.214 40.3073 241.723 40.1017 241.29 40.0655C239.542 39.9198 237.888 40.3188 236.509 41.2193C235.559 41.8379 235.006 42.5275 234.92 42.6753C234.516 42.8372 234.113 43.0393 233.723 43.2913C233.007 43.7533 232.566 44.2724 232.405 44.839C232.105 44.9304 231.345 45.1775 230.541 45.5643C229.152 46.233 228.347 46.9649 228.148 47.7395C227.911 48.6638 228.56 49.6003 230.078 50.5229C230.588 50.8333 232.362 51.6529 234.233 52.323C236.696 53.205 238.391 53.5038 239.27 53.2114C239.373 53.1772 239.48 53.1299 239.578 53.0644C239.819 52.904 240.006 52.6345 239.945 52.1824C239.871 51.6317 239.821 51.0797 239.795 50.5271C240.193 50.4474 240.556 50.3095 240.855 50.1205C240.863 50.1252 240.872 50.1298 240.88 50.1344C240.889 50.208 240.901 50.2814 240.914 50.3547C240.968 50.6611 240.979 50.7249 240.463 51.2479C240.316 51.3968 239.926 51.792 240.262 52.0275C240.629 52.2848 241.375 51.9984 241.459 51.9649C241.751 51.8484 242.005 51.7177 242.22 51.5746C242.741 51.2266 243.03 50.8054 243.066 50.3383C244.392 51.2444 245.766 52.0925 246.329 52.2549C246.79 52.3879 247.915 52.7128 248.933 52.0344C249.082 51.9349 249.229 51.8137 249.371 51.6672C250.206 50.8067 250.199 50.1847 249.345 49.3724C248.889 48.9381 247.735 47.944 247.105 47.4179C247.319 47.3435 247.551 47.2195 247.777 47.0686C248.249 46.754 248.694 46.3236 248.877 45.9897C249.083 45.6145 249.339 44.8598 248.835 44.689V44.689ZM241.53 43.1674C241.735 43.3099 241.896 43.4563 242.063 43.6094C242.243 43.7741 242.429 43.9444 242.687 44.1294C242.938 44.3094 243.241 44.4691 243.534 44.6236C244.124 44.9355 244.733 45.2567 245.016 45.7848C244.9 45.763 244.786 45.7364 244.675 45.7053C244.568 45.6753 244.378 45.6388 244.115 45.5885C243.091 45.3921 240.695 44.9324 240.507 44.2178C240.452 44.005 240.592 43.6544 241.53 43.1674V43.1674ZM236.984 41.4679C238.234 40.6704 239.658 40.332 241.217 40.4619C242.412 40.5616 244.882 42.9947 245.837 45.8778C245.799 45.8746 245.76 45.8716 245.722 45.8687L245.674 45.8651C245.394 45.0975 244.604 44.68 243.903 44.31C243.615 44.1582 243.343 44.0149 243.123 43.8569C242.889 43.6896 242.714 43.5292 242.545 43.3741C242.336 43.183 242.12 42.9857 241.808 42.7907C241.784 42.7642 241.75 42.737 241.702 42.7101C241.386 42.5344 240.192 42.1744 238.737 42.0981C237.941 42.0564 236.926 42.0929 235.87 42.365C236.12 42.1109 236.49 41.7826 236.984 41.4679V41.4679ZM239.35 52.218C239.418 52.7161 239.106 52.8196 239.004 52.8537C238.337 53.0755 236.7 52.7538 234.514 51.9709C232.623 51.2935 230.908 50.488 230.479 50.2273C229.122 49.403 228.536 48.5892 228.736 47.8085C229.061 46.5381 231.362 45.635 232.336 45.3055C232.336 45.3195 232.334 45.3334 232.334 45.3475C232.344 46.9678 234.449 48.3434 234.579 48.4266C234.627 48.4596 234.701 48.5034 234.802 48.5637C235.172 48.7844 235.86 49.1952 236.493 49.7584C237.082 50.2818 237.962 50.5905 238.91 50.6056C239.007 50.6071 239.104 50.6054 239.201 50.6004C239.215 50.8865 239.255 51.5139 239.35 52.218V52.218ZM238.923 50.2063C238.16 50.1941 237.448 49.9435 236.97 49.5186C236.302 48.9237 235.584 48.4957 235.199 48.2657C235.145 48.2336 235.097 48.2054 235.061 48.1828C235.081 47.9606 235.461 47.1231 236.177 46.8243C236.503 46.6879 236.845 46.7012 237.223 46.8649C239.179 47.7124 239.547 48.364 239.843 48.8876C239.904 48.9955 239.961 49.0974 240.029 49.1972L240.082 49.2744C240.215 49.4696 240.338 49.6512 240.479 49.8074C240.081 50.0718 239.524 50.2159 238.923 50.2063L238.923 50.2063ZM241.153 51.6218C241.007 51.6798 240.853 51.7157 240.75 51.7286C240.777 51.6783 240.835 51.5956 240.961 51.4684C241.569 50.8531 241.576 50.6999 241.507 50.3085C241.491 50.2188 241.473 50.1171 241.463 49.9857L241.463 49.9856C241.446 49.7897 241.536 49.7651 241.698 49.7205C241.829 49.6843 242.036 49.702 242.201 49.7635C242.279 49.7925 242.413 49.8565 242.438 49.959C242.652 50.8236 241.857 51.3405 241.153 51.6218V51.6218ZM248.871 51.4493C248.135 52.2074 247.327 52.1083 246.565 51.8882C246.072 51.746 244.418 50.7277 242.717 49.5193C242.694 49.5032 242.668 49.4903 242.641 49.4804C242.593 49.4562 242.543 49.4342 242.491 49.4148C242.163 49.2924 241.772 49.268 241.47 49.3511C241.35 49.3841 241.13 49.4447 240.991 49.6016C240.867 49.4648 240.751 49.2942 240.625 49.1094L240.572 49.0317C240.512 48.9442 240.458 48.8483 240.401 48.7469C240.092 48.1991 239.668 47.4487 237.547 46.5297C236.753 46.1855 235.961 46.2864 235.319 46.8137C234.934 47.1298 234.714 47.5079 234.617 47.7052C234.596 47.7475 234.578 47.7871 234.562 47.8245C233.959 47.3462 232.936 46.3826 232.931 45.3448C232.928 44.6914 233.335 44.0968 234.138 43.5791C235.719 42.5587 237.514 42.4285 238.741 42.499C239.798 42.5598 240.638 42.7717 241.053 42.9106C240.185 43.3826 239.803 43.8445 239.919 44.2863C240.172 45.2473 242.724 45.737 243.951 45.9724C244.176 46.0155 244.37 46.0528 244.445 46.0737C244.935 46.2109 245.351 46.2426 245.656 46.2656C245.749 46.2727 245.839 46.2796 245.914 46.2886C245.743 46.494 245.473 46.8867 246.306 47.3935C246.672 47.682 248.312 49.0835 248.857 49.6018C249.577 50.2865 249.58 50.7181 248.871 51.4494L248.871 51.4493ZM248.317 45.8515C248.186 46.0903 247.862 46.4198 247.492 46.6909C247.083 46.9903 246.797 47.0902 246.704 47.0964C246.185 46.7803 246.318 46.6226 246.458 46.4557C246.48 46.4295 246.502 46.4039 246.521 46.3779C246.553 46.3757 246.587 46.3723 246.623 46.3675C247.195 46.2901 247.834 45.8967 248.523 45.1979L248.531 45.1903C248.523 45.3417 248.469 45.5737 248.317 45.8515Z" fill="white"/>
</g>
<path d="M1 111.954C1 111.347 1.68171 110.99 2.18113 111.335L32.6752 132.417C32.8786 132.558 33 132.79 33 133.037V158.147C33 158.754 32.3183 159.112 31.8189 158.767L1.32476 137.684C1.12138 137.544 1 137.312 1 137.065V111.954Z" fill="#0D0B12" stroke="#4E4D51" stroke-width="0.752941" stroke-linecap="round"/>
<path d="M65 111.954C65 111.347 64.3183 110.99 63.8189 111.335L33.3248 132.417C33.1214 132.558 33 132.79 33 133.037V158.147C33 158.754 33.6817 159.112 34.1811 158.767L64.6752 137.684C64.8786 137.544 65 137.312 65 137.065V111.954Z" fill="#0D0B12" stroke="#4E4D51" stroke-width="0.752941" stroke-linecap="round"/>
<path d="M37.9264 91.3189L64.1219 109.705C64.5491 110.004 64.5491 110.637 64.1219 110.937L33.6274 132.34C33.3691 132.521 33.0252 132.522 32.7659 132.343L1.89259 110.94C1.46064 110.64 1.46064 110.002 1.89259 109.702L28.4495 91.2914C31.3021 89.3138 35.0853 89.3248 37.9264 91.3189Z" fill="#201F2D" stroke="#4E4D51" stroke-width="0.752941" stroke-linecap="round"/>
<path d="M30.3914 111.401L28.0314 109.816M30.3914 111.401C30.4349 111.43 30.4348 111.478 30.3912 111.507L27.395 113.504C27.3515 113.533 27.2809 113.533 27.2375 113.504L24.8775 111.919C24.834 111.89 24.8341 111.842 24.8776 111.813L27.8739 109.816C27.9174 109.787 27.988 109.787 28.0314 109.816M30.3914 111.401C30.4349 111.43 30.5054 111.431 30.5489 111.402L33.5452 109.404C33.5887 109.375 33.5888 109.328 33.5454 109.299L31.1853 107.714C31.1419 107.684 31.0714 107.684 31.0278 107.713L28.0316 109.711C27.988 109.74 27.988 109.787 28.0314 109.816M35.968 105.657C36.1464 105.538 37.6555 105.568 38.5084 105.424C38.936 106.127 39.0811 107.253 38.2832 107.568C39.931 110.595 39.3708 112.311 36.7805 114.038C34.1809 115.771 30.1698 117.1 26.4391 114.241C26.4008 114.212 26.4019 114.166 26.4432 114.139L34.2549 108.931C34.7525 108.611 35.3943 108.108 35.1779 107.951C34.0077 107.783 33.6176 107.046 33.1094 106.014C33.7072 105.933 35.7102 105.484 35.968 105.657ZM26.4546 110.762L29.4509 108.765C29.4944 108.736 29.4945 108.688 29.451 108.659L27.091 107.074C27.0476 107.045 26.977 107.045 26.9335 107.074L23.9373 109.071C23.8937 109.1 23.8936 109.148 23.9371 109.177L26.2971 110.762C26.3405 110.791 26.4111 110.791 26.4546 110.762Z" stroke="#868593" stroke-width="1.12941"/>
<defs>
<linearGradient id="paint0_linear_2402_6332" x1="152" y1="75" x2="152" y2="150" gradientUnits="userSpaceOnUse">
<stop stop-color="#C91396" stop-opacity="0"/>
<stop offset="1" stop-color="#C91396"/>
</linearGradient>
<linearGradient id="paint1_linear_2402_6332" x1="241" y1="109" x2="241" y2="184" gradientUnits="userSpaceOnUse">
<stop stop-color="#C91380" stop-opacity="0"/>
<stop offset="1" stop-color="#C91380"/>
</linearGradient>
<clipPath id="clip0_2402_6332">
<rect width="9.03398" height="9.03398" fill="white" transform="matrix(0.83205 -0.5547 0.830139 0.557556 114.198 162.693)"/>
</clipPath>
<clipPath id="clip1_2402_6332">
<rect width="9.03398" height="9.03398" fill="white" transform="matrix(0.83205 -0.5547 0.830139 0.557556 203.198 189.693)"/>
</clipPath>
<clipPath id="clip2_2402_6332">
<rect width="18.1947" height="18.1947" fill="white" transform="matrix(0.83205 -0.5547 0.830139 0.557556 335.241 76.1665)"/>
</clipPath>
<clipPath id="clip3_2402_6332">
<rect width="18.1947" height="18.1947" fill="white" transform="matrix(0.83205 -0.5547 0.830139 0.557556 58.241 83.1665)"/>
</clipPath>
<clipPath id="clip4_2402_6332">
<rect width="18.1947" height="18.1947" fill="white" transform="matrix(0.83205 -0.5547 0.830139 0.557556 136.241 24.1665)"/>
</clipPath>
<clipPath id="clip5_2402_6332">
<rect width="18.1947" height="18.1947" fill="white" transform="matrix(0.83205 -0.5547 0.830139 0.557556 225.241 48.1665)"/>
</clipPath>
</defs>
</svg>
