<svg width="384" height="341" viewBox="0 0 384 341" fill="none" xmlns="http://www.w3.org/2000/svg">
<g opacity="0.5">
<path d="M213.668 78.4747C215.573 77.2049 218.657 77.2101 220.558 78.4864L379.979 185.561C384.022 188.276 384.023 197.47 379.971 200.171L170.752 339.65C168.847 340.92 165.763 340.915 163.862 339.639L4.44037 232.565C0.397537 229.849 0.396126 220.656 4.44818 217.954L213.668 78.4747Z" fill="black" fill-opacity="0.7"/>
<path d="M217.114 78.0258C218.283 78.0278 219.427 78.3299 220.279 78.9017L379.701 185.976C381.519 187.198 382.511 189.966 382.51 192.87C382.509 195.776 381.515 198.54 379.693 199.755L170.474 339.235C169.621 339.804 168.476 340.101 167.306 340.099C166.137 340.097 164.993 339.796 164.141 339.224L4.71924 232.15C2.90038 230.928 1.90791 228.159 1.90869 225.254C1.90948 222.349 2.90323 219.586 4.7251 218.37L213.945 78.891C214.798 78.322 215.944 78.0238 217.114 78.0258Z" stroke="white" stroke-opacity="0.12"/>
<rect width="259.74" height="200.332" rx="4.14479" transform="matrix(0.83205 -0.5547 0.830139 0.557556 1 220.254)" fill="#201F2D"/>
<rect x="0.831095" y="0.00142801" width="258.74" height="199.332" rx="3.64479" transform="matrix(0.83205 -0.5547 0.830139 0.557556 1.1384 220.715)" stroke="white" stroke-opacity="0.25"/>
</g>
<path d="M17.9664 196.287L17.9664 190.527C17.691 189.719 17.691 188.878 17.9664 188.071L17.9664 187.46L18.2313 187.46C18.6247 186.717 19.2644 186.02 20.1501 185.427L109.119 126.001C112.301 123.869 117.454 123.878 120.629 126.021L182.611 168.619C184.43 169.847 185.205 171.508 184.936 173.105L185.129 173.105L185.129 180.862L184.985 180.862C184.927 182.212 184.131 183.549 182.598 184.576L93.6286 244.001C90.4467 246.133 85.2939 246.124 82.1194 243.981L20.1368 201.383C19.4592 200.926 18.9265 200.408 18.5387 199.856L17.9664 199.856L17.9664 198.744C17.6909 197.936 17.6909 197.095 17.9664 196.287Z" fill="#0D0B12"/>
<path d="M18.3115 190.47L18.293 190.416C18.0423 189.681 18.0425 188.917 18.293 188.183L18.3115 188.128L18.3115 187.805L18.4395 187.805L18.5361 187.621C18.8987 186.937 19.4957 186.28 20.3418 185.713L109.312 126.288C110.834 125.268 112.847 124.75 114.876 124.754C116.778 124.757 118.665 125.219 120.145 126.121L120.436 126.308L182.415 168.903L182.415 168.904L182.418 168.905C184.154 170.077 184.836 171.617 184.596 173.048L184.528 173.45L184.783 173.45L184.783 180.517L184.653 180.517L184.64 180.848C184.591 181.986 183.957 183.152 182.672 184.102L182.405 184.289L93.4365 243.714C91.9141 244.734 89.9011 245.252 87.8721 245.249C85.8438 245.246 83.8333 244.721 82.3145 243.696L82.3154 243.696L20.332 201.099L20.3301 201.097L20.0938 200.931C19.5597 200.538 19.1368 200.107 18.8213 199.658L18.7178 199.511L18.3115 199.511L18.3115 198.688L18.293 198.633C18.0422 197.897 18.0422 197.134 18.293 196.398L18.3115 196.345L18.3115 190.47Z" stroke="white" stroke-opacity="0.25" stroke-width="0.690798"/>
<rect x="0.831095" y="0.00142801" width="116.732" height="86.7829" rx="3.64479" transform="matrix(0.83205 -0.5547 0.830139 0.557556 16.2487 187.433)" fill="#201F2D"/>
<rect x="0.831095" y="0.00142801" width="116.732" height="86.7829" rx="3.64479" transform="matrix(0.83205 -0.5547 0.830139 0.557556 16.2487 187.433)" stroke="#4E4D51"/>
<rect width="102.834" height="1" transform="matrix(0.83205 -0.5547 0.830139 0.557556 38.5974 193.78)" fill="white" fill-opacity="0.05"/>
<path d="M77.2635 218.847L76.5896 219.297L87.4627 226.411C88.3852 227.015 89.8611 227.009 90.7708 226.399L172.956 171.238C173.878 170.62 173.868 169.617 172.936 169.005L140.293 147.572L139.619 148.022L140.146 148.376L138.125 149.724L139.81 150.856L139.136 151.305L139.137 151.306L138.463 151.755L138.027 151.462L137.353 151.912L137.976 152.33L137.302 152.779L139.05 153.953L137.056 155.282L137.798 155.78L137.124 156.23L137.469 156.461L136.795 156.911L138.021 157.735L137.347 158.184L137.394 158.215L136.72 158.665L136.405 158.453L134.384 159.801L133.079 158.925L132.405 159.374L132.482 159.426L131.808 159.875L132.028 160.023L131.354 160.472L132.117 160.985L131.444 161.434L132.491 162.138L130.469 163.486L130.833 163.73L130.159 164.179L130.812 164.618L130.138 165.067L130.502 165.311L129.828 165.761L129.631 165.629L126.936 167.426L128.317 168.354L127.644 168.803L127.634 168.797L126.96 169.246L127.453 169.577L126.779 170.026L125.499 169.167L124.825 169.616L125.57 170.116L123.548 171.464L124.544 172.133L123.87 172.583L123.897 172.601L123.223 173.05L125.013 174.252L124.339 174.702L125.192 175.274L124.518 175.723L125.045 176.078L123.023 177.426L123.489 177.738L122.815 178.188L123.31 178.52L122.636 178.969L122.52 178.891L121.846 179.341L121.814 179.32L121.14 179.769L121.517 180.022L119.495 181.37L120.117 181.787L119.443 182.237L119.731 182.43L119.057 182.879L118.837 182.731L118.163 183.181L121.012 185.094L120.338 185.544L119.578 185.033L117.556 186.381L118.328 186.899L117.654 187.349L116.846 186.806L116.172 187.255L116.024 187.156L115.35 187.605L115.829 187.927L113.133 189.724L113.664 190.08L112.99 190.53L112.818 190.414L112.144 190.864L112.018 190.779L111.344 191.228L111.27 191.178L110.596 191.627L110.76 191.738L108.738 193.085L108.665 193.037L107.991 193.486L108.465 193.804L107.791 194.254L108.29 194.588L107.616 195.038L107.856 195.199L105.16 196.996L105.836 197.45L105.162 197.899L105.149 197.891L104.475 198.34L104.744 198.521L104.07 198.97L103.648 198.687L100.952 200.484L101.289 200.71L100.615 201.159L101.145 201.515L100.471 201.964L100.7 202.118L100.026 202.567L100.079 202.603L99.4049 203.052L100.896 204.054L98.8745 205.402L99.0036 205.489L98.3297 205.938L98.5555 206.09L97.8815 206.539L97.7459 206.448L97.0719 206.897L96.1362 206.269L95.4623 206.718L95.1334 206.497L93.1115 207.845L92.9183 207.715L92.2444 208.164L92.5657 208.38L91.8917 208.829L92.0622 208.944L91.3882 209.393L91.1863 209.258L90.5124 209.707L90.2888 209.557L88.2669 210.905L88.6262 211.146L87.9522 211.595L88.1444 211.724L87.4704 212.174L88.0924 212.591L87.4185 213.041L88.3954 213.697L87.7214 214.146L87.4045 213.933L85.3826 215.281L86.7449 216.196L85.397 217.095L85.0258 216.845L84.3518 217.295L83.3184 216.601L82.6445 217.05L83.4586 217.597L81.4367 218.945L80.7931 218.512L80.1191 218.962L79.851 218.781L79.1771 219.231L78.3782 218.694L77.7042 219.143L77.2635 218.847Z" fill="#D56FBF" fill-opacity="0.15" stroke="#D56FBF" stroke-width="1.37161" stroke-linecap="round"/>
<rect opacity="0.2" width="46.2186" height="4.83729" rx="2" transform="matrix(0.83205 -0.5547 0.830139 0.557556 28.6138 187.296)" fill="#D9D9D9"/>
<path d="M120.966 74.2872L120.966 68.5274C120.691 67.7195 120.691 66.878 120.966 66.0707L120.966 65.4597L121.231 65.4597C121.625 64.7169 122.264 64.0202 123.15 63.4267L212.119 4.00124C215.301 1.86946 220.454 1.87835 223.629 4.02112L285.611 46.6192C287.43 47.8468 288.205 49.5084 287.936 51.1047L288.129 51.1047L288.129 58.8622L287.985 58.8622C287.927 60.2116 287.131 61.5485 285.598 62.5758L196.629 122.001C193.447 124.133 188.294 124.124 185.119 121.981L123.137 79.3833C122.459 78.926 121.926 78.4083 121.539 77.8563L120.966 77.8563L120.966 76.7445C120.691 75.9364 120.691 75.0947 120.966 74.2872Z" fill="#0D0B12"/>
<path d="M121.312 68.4697L121.293 68.416C121.042 67.6805 121.042 66.9175 121.293 66.1826L121.312 66.1279L121.312 65.8047L121.439 65.8047L121.536 65.6211C121.899 64.9365 122.496 64.2798 123.342 63.7129L212.312 4.28809C213.834 3.26802 215.847 2.75043 217.876 2.75391C219.778 2.75719 221.665 3.21863 223.145 4.12109L223.436 4.30762L285.415 46.9033L285.415 46.9043L285.418 46.9053C287.154 48.077 287.836 49.6168 287.596 51.0479L287.528 51.4502L287.783 51.4502L287.783 58.5166L287.653 58.5166L287.64 58.8477C287.591 59.9862 286.957 61.1518 285.672 62.1016L285.405 62.2891L196.437 121.714C194.914 122.734 192.901 123.252 190.872 123.249C188.844 123.246 186.833 122.721 185.314 121.696L185.315 121.696L123.332 79.0986L123.33 79.0967L123.094 78.9307C122.56 78.5375 122.137 78.1072 121.821 77.6582L121.718 77.5107L121.312 77.5107L121.312 76.6875L121.293 76.6328C121.042 75.8971 121.042 75.1335 121.293 74.3984L121.312 74.3447L121.312 68.4697Z" stroke="white" stroke-opacity="0.25" stroke-width="0.690798"/>
<rect x="0.831095" y="0.00142801" width="116.732" height="86.7829" rx="3.64479" transform="matrix(0.83205 -0.5547 0.830139 0.557556 119.417 65.7678)" fill="#201F2D"/>
<rect x="0.831095" y="0.00142801" width="116.732" height="86.7829" rx="3.64479" transform="matrix(0.83205 -0.5547 0.830139 0.557556 119.417 65.7678)" stroke="#4E4D51"/>
<rect width="102.834" height="1" transform="matrix(0.83205 -0.5547 0.830139 0.557556 141.766 72.1146)" fill="white" fill-opacity="0.05"/>
<path d="M245.207 29.2241L246.354 28.4595L275.931 47.8863C276.865 48.5001 276.872 49.5056 275.945 50.1232L193.809 104.881C192.883 105.498 191.382 105.49 190.468 104.864L165.108 87.4879L166.255 86.7232L164.698 85.6776L165.845 84.9129L165.744 84.8451L166.891 84.0804L164.288 82.3319L165.435 81.5672L177.27 89.5158L180.711 87.2217L178.411 85.6768L179.558 84.9121L177.706 83.6682L178.853 82.9035L178.917 82.947L180.064 82.1823L178.958 81.4394L180.105 80.6747L180.17 80.7182L183.611 78.4241L185.09 79.4175L186.237 78.6529L185.587 78.2162L186.734 77.4515L185.325 76.505L186.472 75.7404L185.869 75.335L190.457 72.2762L188.859 71.2028L190.006 70.4381L188.039 69.1176L189.187 68.3529L188.764 68.0693L189.911 67.3046L190.227 67.5169L191.374 66.7522L190.54 66.192L193.981 63.8979L192.508 62.908L193.655 62.1433L194.919 62.9923L196.066 62.2276L193.833 60.7279L194.98 59.9632L195.677 60.4312L196.824 59.6666L194.239 57.9303L197.68 55.6362L198.959 56.4956L200.106 55.731L201.376 56.5834L202.523 55.8187L202.934 56.0954L204.082 55.3307L205.555 56.3206L206.702 55.5559L209.645 57.5323L213.086 55.2382L212.905 55.1164L214.052 54.3518L215.5 55.3243L216.647 54.5596L216.841 54.6901L217.988 53.9254L217.936 53.8906L219.083 53.1259L220.638 54.1698L224.079 51.8757L225.477 52.8152L226.625 52.0505L227.314 52.5133L228.461 51.7486L228.308 51.6459L229.455 50.8812L230.056 51.2848L234.644 48.2261L222.589 40.1292L223.736 39.3645L223.111 38.9452L224.258 38.1805L224.719 38.4902L225.866 37.7255L224.678 36.927L225.825 36.1623L226.397 36.5468L229.838 34.2527L230.051 34.3954L231.198 33.6307L232.573 34.5545L233.72 33.7898L233.549 33.675L234.696 32.9103L233.73 32.2613L234.877 31.4967L234.141 31.0026L237.582 28.7085L239.447 29.9611L240.594 29.1964L242.167 30.2525L243.314 29.4878L243.485 29.6026L244.632 28.8379L245.207 29.2241Z" fill="#8A6FD5" fill-opacity="0.15" stroke="#8A6FD5" stroke-width="1.37161" stroke-linecap="round"/>
<path d="M269.596 46.5945L271.483 45.337L275.764 47.8899C276.775 48.4928 276.82 49.5401 275.862 50.1788L193.828 104.868C192.895 105.49 191.379 105.477 190.469 104.838L179.625 97.2382L181.511 95.9807L181.993 96.3041L183.879 95.0466L185.602 96.2038L187.488 94.9463L185.72 93.7586L191.379 89.9861L191.167 89.8437L193.053 88.5862L194.746 89.7231L196.632 88.4657L196.859 88.6182L198.745 87.3607L198.685 87.32L200.571 86.0625L202.388 87.2828L208.047 83.5103L209.682 84.6086L211.568 83.3511L212.373 83.8921L214.26 82.6346L214.081 82.5146L215.967 81.2571L216.67 81.729L224.215 76.699L221.059 74.5798L222.946 73.3223L222.216 72.8321L224.102 71.5746L224.641 71.9367L226.527 70.6792L225.137 69.7456L227.024 68.4882L227.693 68.9376L233.352 65.1651L233.6 65.3319L235.486 64.0744L237.094 65.1544L238.98 63.8969L238.78 63.7627L240.667 62.5052L239.537 61.7466L241.423 60.4891L240.563 59.9115L246.222 56.139L248.402 57.6033L250.289 56.3458L252.127 57.5804L254.013 56.3229L254.213 56.4571L256.099 55.1996L256.771 55.6511L258.658 54.3936L258.097 54.0174L263.756 50.2449L263.471 50.0537L265.358 48.7962L265.385 48.8145L267.271 47.557L268.125 48.1306L270.011 46.8731L269.596 46.5945Z" fill="#107D98" fill-opacity="0.15" stroke="#107D98" stroke-width="1.37161" stroke-linecap="round"/>
<rect opacity="0.2" width="61.047" height="4.83729" rx="2" transform="matrix(0.83205 -0.5547 0.830139 0.557556 131.614 65.2959)" fill="#D9D9D9"/>
<path d="M96.9664 248.287L96.9664 242.527C96.691 241.719 96.691 240.878 96.9664 240.071L96.9664 239.46L97.2313 239.46C97.6247 238.717 98.2644 238.02 99.1501 237.427L188.119 178.001C191.301 175.869 196.454 175.878 199.629 178.021L261.611 220.619C263.43 221.847 264.205 223.508 263.936 225.105L264.129 225.105L264.129 232.862L263.985 232.862C263.927 234.212 263.131 235.549 261.598 236.576L172.629 296.001C169.447 298.133 164.294 298.124 161.119 295.981L99.1368 253.383C98.4592 252.926 97.9265 252.408 97.5387 251.856L96.9664 251.856L96.9664 250.744C96.6909 249.936 96.6909 249.095 96.9664 248.287Z" fill="#0D0B12"/>
<path d="M97.3115 242.47L97.293 242.416C97.0423 241.681 97.0425 240.917 97.293 240.183L97.3115 240.128L97.3115 239.805L97.4395 239.805L97.5361 239.621C97.8987 238.937 98.4957 238.28 99.3418 237.713L188.312 178.288C189.834 177.268 191.847 176.75 193.876 176.754C195.778 176.757 197.665 177.219 199.145 178.121L199.436 178.308L261.415 220.903L261.415 220.904L261.418 220.905C263.154 222.077 263.836 223.617 263.596 225.048L263.528 225.45L263.783 225.45L263.783 232.517L263.653 232.517L263.64 232.848C263.591 233.986 262.957 235.152 261.672 236.102L261.405 236.289L172.437 295.714C170.914 296.734 168.901 297.252 166.872 297.249C164.844 297.246 162.833 296.721 161.314 295.696L161.315 295.696L99.332 253.099L99.3301 253.097L99.0938 252.931C98.5597 252.538 98.1368 252.107 97.8213 251.658L97.7178 251.511L97.3115 251.511L97.3115 250.688L97.293 250.633C97.0422 249.897 97.0422 249.134 97.293 248.398L97.3115 248.345L97.3115 242.47Z" stroke="white" stroke-opacity="0.25" stroke-width="0.690798"/>
<rect x="0.831095" y="0.00142801" width="116.732" height="86.7829" rx="3.64479" transform="matrix(0.83205 -0.5547 0.830139 0.557556 95.2487 239.433)" fill="#201F2D"/>
<rect x="0.831095" y="0.00142801" width="116.732" height="86.7829" rx="3.64479" transform="matrix(0.83205 -0.5547 0.830139 0.557556 95.2487 239.433)" stroke="#4E4D51"/>
<rect width="102.834" height="1" transform="matrix(0.83205 -0.5547 0.830139 0.557556 117.597 245.78)" fill="white" fill-opacity="0.05"/>
<path d="M232.508 210.25L234.404 208.985L253.628 221.711L168.128 278.501L151.156 267.286L150.789 267.04L152.685 265.775L152.566 265.695L154.463 264.431L154.036 264.144L155.933 262.88L156.37 263.174L162.06 259.381L162.112 259.416L164.009 258.152L163.59 257.871L165.486 256.606L165.43 256.569L167.327 255.304L167.342 255.314L169.238 254.05L168.788 253.748L174.478 249.955L174.073 249.683L175.97 248.419L175.77 248.285L177.667 247.021L177.711 247.05L179.607 245.786L179.434 245.669L187.02 240.612L187.8 241.136L189.697 239.872L189.878 239.993L191.774 238.729L191.641 238.64L193.537 237.375L193.881 237.606L195.778 236.342L195.612 236.231L201.301 232.438L201.24 232.396L203.136 231.132L202.739 230.865L204.635 229.6L204.684 229.634L206.581 228.369L206.861 228.557L208.757 227.293L208.97 227.436L214.659 223.643L214.12 223.28L216.016 222.016L215.561 221.711L217.458 220.446L217.408 220.413L219.305 219.149L219.138 219.037L221.035 217.773L221.174 217.866L226.863 214.073L226.933 214.12L228.83 212.856L228.823 212.851L230.72 211.587L230.508 211.445L232.405 210.181L232.508 210.25Z" fill="#107D98" fill-opacity="0.15"/>
<path d="M234.548 209.082L234.404 208.985M234.404 208.985L232.508 210.25L232.405 210.181L230.508 211.445L230.72 211.587L228.823 212.851L228.83 212.856L226.933 214.12L226.863 214.073L221.174 217.866L221.035 217.773L219.138 219.037L219.305 219.149L217.408 220.413L217.458 220.446L215.561 221.711L216.016 222.016L214.12 223.28L214.659 223.643L208.97 227.436L208.757 227.293L206.861 228.557L206.581 228.369L204.684 229.634L204.635 229.6L202.739 230.865L203.136 231.132L201.24 232.396L201.301 232.438L195.612 236.231L195.778 236.342L193.881 237.606L193.537 237.375L191.641 238.64L191.774 238.729L189.878 239.993L189.697 239.872L187.8 241.136L187.02 240.612L179.434 245.669L179.607 245.786L177.711 247.05L177.667 247.021L175.77 248.285L175.97 248.419L174.073 249.683L174.478 249.955L168.788 253.748L169.238 254.05L167.342 255.314L167.327 255.304L165.43 256.569L165.486 256.606L163.59 257.871L164.009 258.152L162.112 259.416L162.06 259.381L156.37 263.174L155.933 262.88L154.036 264.144L154.463 264.431L152.566 265.695L152.685 265.775L150.789 267.04L151.156 267.286L168.128 278.501L253.628 221.711L234.404 208.985Z" stroke="#107D98" stroke-width="1.37161" stroke-linecap="round"/>
<rect opacity="0.2" width="46.2186" height="4.83729" rx="2" transform="matrix(0.83205 -0.5547 0.830139 0.557556 107.614 239.296)" fill="#D9D9D9"/>
<path d="M199.966 154.287L199.966 148.527C199.691 147.719 199.691 146.878 199.966 146.071L199.966 145.46L200.231 145.46C200.625 144.717 201.264 144.02 202.15 143.427L291.119 84.0012C294.301 81.8695 299.454 81.8783 302.629 84.0211L364.611 126.619C366.43 127.847 367.205 129.508 366.936 131.105L367.129 131.105L367.129 138.862L366.985 138.862C366.927 140.212 366.131 141.549 364.598 142.576L275.629 202.001C272.447 204.133 267.294 204.124 264.119 201.981L202.137 159.383C201.459 158.926 200.926 158.408 200.539 157.856L199.966 157.856L199.966 156.744C199.691 155.936 199.691 155.095 199.966 154.287Z" fill="#0D0B12"/>
<path d="M200.312 148.47L200.293 148.416C200.042 147.681 200.042 146.917 200.293 146.183L200.312 146.128L200.312 145.805L200.439 145.805L200.536 145.621C200.899 144.937 201.496 144.28 202.342 143.713L291.312 84.2881C292.834 83.268 294.847 82.7504 296.876 82.7539C298.778 82.7572 300.665 83.2186 302.145 84.1211L302.436 84.3076L364.415 126.903L364.415 126.904L364.418 126.905C366.154 128.077 366.836 129.617 366.596 131.048L366.528 131.45L366.783 131.45L366.783 138.517L366.653 138.517L366.64 138.848C366.591 139.986 365.957 141.152 364.672 142.102L364.405 142.289L275.437 201.714C273.914 202.734 271.901 203.252 269.872 203.249C267.844 203.246 265.833 202.721 264.314 201.696L264.315 201.696L202.332 159.099L202.33 159.097L202.094 158.931C201.56 158.538 201.137 158.107 200.821 157.658L200.718 157.511L200.312 157.511L200.312 156.688L200.293 156.633C200.042 155.897 200.042 155.134 200.293 154.398L200.312 154.345L200.312 148.47Z" stroke="white" stroke-opacity="0.25" stroke-width="0.690798"/>
<rect x="0.831095" y="0.00142801" width="116.732" height="86.7829" rx="3.64479" transform="matrix(0.83205 -0.5547 0.830139 0.557556 198.417 145.768)" fill="#201F2D"/>
<rect x="0.831095" y="0.00142801" width="116.732" height="86.7829" rx="3.64479" transform="matrix(0.83205 -0.5547 0.830139 0.557556 198.417 145.768)" stroke="#4E4D51"/>
<rect width="102.834" height="1" transform="matrix(0.83205 -0.5547 0.830139 0.557556 220.766 152.115)" fill="white" fill-opacity="0.05"/>
<path d="M260.672 176.372L259.658 177.049L269.464 184.275C270.369 184.942 271.924 184.966 272.871 184.328L354.968 129.066C355.884 128.45 355.877 127.452 354.952 126.839L327.33 108.553L324.33 110.553L325.093 111.065L324.079 111.741L323.065 112.418L322.051 113.094L321.037 113.77L317.994 115.798L316.98 116.474L317.06 116.527L316.046 117.203L316.273 117.356L315.259 118.032L316.046 118.561L315.032 119.237L316.112 119.962L313.07 121.991L313.445 122.243L312.431 122.919L313.105 123.371L312.091 124.047L312.263 124.163L311.249 124.839L307.193 127.544L307.796 127.949L306.782 128.625L305.768 129.301L304.754 129.977L303.74 130.653L304.508 131.169L301.465 133.197L302.493 133.887L301.479 134.564L301.507 134.582L300.493 135.258L302.339 136.498L301.325 137.174L302.204 137.765L301.19 138.441L301.734 138.806L298.692 140.834L299.172 141.157L298.158 141.833L298.516 142.074L297.502 142.75L296.488 143.426L295.474 144.102L295.862 144.363L292.82 146.391L293.461 146.822L292.447 147.498L291.433 148.174L290.419 148.85L292.453 150.217L291.439 150.893L288.397 152.921L287.383 153.597L286.369 154.273L285.355 154.949L285.848 155.281L281.792 157.985L281.955 158.095L280.941 158.771L279.927 159.447L278.913 160.123L277.899 160.799L274.857 162.827L273.843 163.503L274.426 163.895L273.412 164.571L273.926 164.916L272.912 165.592L273.159 165.759L269.103 168.463L269.629 168.816L268.615 169.492L267.601 170.168L266.586 170.844L262.53 173.549L262.877 173.782L261.863 174.458L262.409 174.825L261.395 175.501L261.631 175.66L260.617 176.336L260.672 176.372Z" fill="#1753ED" fill-opacity="0.1" stroke="#1753ED" stroke-width="1.37161" stroke-linecap="round"/>
<rect opacity="0.2" width="46.2186" height="4.83729" rx="2" transform="matrix(0.83205 -0.5547 0.830139 0.557556 210.614 145.296)" fill="#D9D9D9"/>
</svg>
