<svg width="384" height="322" viewBox="0 0 384 322" fill="none" xmlns="http://www.w3.org/2000/svg">
<path d="M213.668 58.9733C215.573 57.7036 218.657 57.7088 220.558 58.9851L379.979 166.059C384.022 168.775 384.023 177.968 379.971 180.67L170.752 320.149C168.847 321.419 165.763 321.414 163.862 320.137L4.44037 213.063C0.397537 210.348 0.396126 201.154 4.44818 198.453L213.668 58.9733Z" fill="black" fill-opacity="0.7"/>
<path d="M217.114 58.5244C218.283 58.5264 219.427 58.8285 220.279 59.4004L379.701 166.475C381.519 167.696 382.511 170.464 382.51 173.369C382.509 176.274 381.515 179.039 379.693 180.254L170.474 319.733C169.621 320.302 168.476 320.6 167.306 320.598C166.137 320.596 164.993 320.294 164.141 319.723L4.71924 212.648C2.90038 211.427 1.90791 208.658 1.90869 205.753C1.90948 202.848 2.90323 200.084 4.7251 198.869L213.945 59.3896C214.798 58.8207 215.944 58.5224 217.114 58.5244Z" stroke="white" stroke-opacity="0.12"/>
<rect width="259.74" height="200.332" rx="4.14479" transform="matrix(0.83205 -0.5547 0.830139 0.557556 1 200.752)" fill="#181622"/>
<rect x="0.831095" y="0.00142801" width="258.74" height="199.332" rx="3.64479" transform="matrix(0.83205 -0.5547 0.830139 0.557556 1.1384 201.214)" stroke="white" stroke-opacity="0.15"/>
<path d="M34.7401 209.362C35.1986 209.67 35.1977 210.168 34.7382 210.474C34.2786 210.78 33.5345 210.779 33.076 210.471C32.6175 210.163 32.6184 209.665 33.0779 209.359C33.5374 209.053 34.2816 209.054 34.7401 209.362Z" fill="white" fill-opacity="0.15"/>
<path d="M48.0223 218.283C48.4808 218.591 48.4799 219.089 48.0204 219.395C47.5609 219.701 46.8167 219.7 46.3582 219.392C45.8997 219.084 45.9006 218.586 46.3601 218.28C46.8197 217.973 47.5638 217.975 48.0223 218.283Z" fill="white" fill-opacity="0.15"/>
<path d="M61.3045 227.204C61.763 227.511 61.7622 228.009 61.3026 228.316C60.8431 228.622 60.0989 228.621 59.6404 228.313C59.182 228.005 59.1828 227.507 59.6424 227.201C60.1019 226.894 60.8461 226.896 61.3045 227.204Z" fill="white" fill-opacity="0.15"/>
<path d="M74.5868 236.124C75.0452 236.432 75.0444 236.93 74.5849 237.237C74.1253 237.543 73.3811 237.542 72.9227 237.234C72.4642 236.926 72.4651 236.428 72.9246 236.122C73.3841 235.815 74.1283 235.816 74.5868 236.124Z" fill="white" fill-opacity="0.15"/>
<path d="M87.869 245.045C88.3275 245.353 88.3266 245.851 87.8671 246.158C87.4076 246.464 86.6634 246.463 86.2049 246.155C85.7464 245.847 85.7473 245.349 86.2068 245.042C86.6663 244.736 87.4105 244.737 87.869 245.045Z" fill="white" fill-opacity="0.15"/>
<path d="M101.151 253.966C101.61 254.274 101.609 254.772 101.149 255.078C100.69 255.385 99.9456 255.384 99.4871 255.076C99.0287 254.768 99.0295 254.27 99.489 253.963C99.9486 253.657 100.693 253.658 101.151 253.966Z" fill="white" fill-opacity="0.15"/>
<path d="M114.433 262.887C114.892 263.195 114.891 263.693 114.432 263.999C113.972 264.306 113.228 264.304 112.769 263.997C112.311 263.689 112.312 263.191 112.771 262.884C113.231 262.578 113.975 262.579 114.433 262.887Z" fill="white" fill-opacity="0.15"/>
<path d="M127.716 271.808C128.174 272.116 128.173 272.614 127.714 272.92C127.254 273.227 126.51 273.225 126.052 272.917C125.593 272.609 125.594 272.112 126.053 271.805C126.513 271.499 127.257 271.5 127.716 271.808Z" fill="white" fill-opacity="0.15"/>
<path d="M140.998 280.729C141.456 281.037 141.456 281.535 140.996 281.841C140.536 282.148 139.792 282.146 139.334 281.838C138.875 281.53 138.876 281.032 139.336 280.726C139.795 280.42 140.539 280.421 140.998 280.729Z" fill="white" fill-opacity="0.15"/>
<path d="M154.28 289.65C154.739 289.958 154.738 290.456 154.278 290.762C153.819 291.068 153.075 291.067 152.616 290.759C152.158 290.451 152.158 289.953 152.618 289.647C153.077 289.341 153.822 289.342 154.28 289.65Z" fill="white" fill-opacity="0.15"/>
<path d="M167.562 298.571C168.021 298.879 168.02 299.377 167.56 299.683C167.101 299.989 166.357 299.988 165.898 299.68C165.44 299.372 165.441 298.874 165.9 298.568C166.36 298.262 167.104 298.263 167.562 298.571Z" fill="white" fill-opacity="0.15"/>
<path d="M34.7707 191.566C35.2291 191.874 35.2283 192.372 34.7688 192.678C34.3092 192.984 33.565 192.983 33.1066 192.675C32.6481 192.367 32.6489 191.869 33.1085 191.563C33.568 191.256 34.3122 191.258 34.7707 191.566Z" fill="white" fill-opacity="0.15"/>
<path d="M48.0529 200.487C48.5114 200.794 48.5105 201.292 48.051 201.599C47.5915 201.905 46.8473 201.904 46.3888 201.596C45.9303 201.288 45.9312 200.79 46.3907 200.484C46.8502 200.177 47.5944 200.179 48.0529 200.487Z" fill="white" fill-opacity="0.15"/>
<path d="M61.3351 209.407C61.7936 209.715 61.7927 210.213 61.3332 210.52C60.8737 210.826 60.1295 210.825 59.671 210.517C59.2126 210.209 59.2134 209.711 59.6729 209.405C60.1325 209.098 60.8767 209.099 61.3351 209.407Z" fill="white" fill-opacity="0.15"/>
<path d="M74.6174 218.328C75.0758 218.636 75.075 219.134 74.6154 219.441C74.1559 219.747 73.4117 219.746 72.9533 219.438C72.4948 219.13 72.4956 218.632 72.9552 218.325C73.4147 218.019 74.1589 218.02 74.6174 218.328Z" fill="white" fill-opacity="0.15"/>
<path d="M87.8996 227.249C88.3581 227.557 88.3572 228.055 87.8977 228.361C87.4381 228.668 86.6939 228.667 86.2355 228.359C85.777 228.051 85.7779 227.553 86.2374 227.246C86.6969 226.94 87.4411 226.941 87.8996 227.249Z" fill="white" fill-opacity="0.15"/>
<path d="M101.182 236.17C101.64 236.478 101.639 236.976 101.18 237.282C100.72 237.589 99.9762 237.587 99.5177 237.28C99.0592 236.972 99.0601 236.474 99.5196 236.167C99.9791 235.861 100.723 235.862 101.182 236.17Z" fill="white" fill-opacity="0.15"/>
<path d="M114.464 245.091C114.923 245.399 114.922 245.897 114.462 246.203C114.003 246.51 113.258 246.508 112.8 246.2C112.341 245.892 112.342 245.395 112.802 245.088C113.261 244.782 114.006 244.783 114.464 245.091Z" fill="white" fill-opacity="0.15"/>
<path d="M127.746 254.012C128.205 254.32 128.204 254.818 127.744 255.124C127.285 255.431 126.541 255.429 126.082 255.121C125.624 254.813 125.625 254.315 126.084 254.009C126.544 253.703 127.288 253.704 127.746 254.012Z" fill="white" fill-opacity="0.15"/>
<path d="M141.028 262.933C141.487 263.241 141.486 263.739 141.027 264.045C140.567 264.351 139.823 264.35 139.364 264.042C138.906 263.734 138.907 263.236 139.366 262.93C139.826 262.624 140.57 262.625 141.028 262.933Z" fill="white" fill-opacity="0.15"/>
<path d="M154.311 271.854C154.769 272.162 154.768 272.66 154.309 272.966C153.849 273.272 153.105 273.271 152.647 272.963C152.188 272.655 152.189 272.157 152.649 271.851C153.108 271.545 153.852 271.546 154.311 271.854Z" fill="white" fill-opacity="0.15"/>
<path d="M167.593 280.775C168.051 281.083 168.051 281.581 167.591 281.887C167.132 282.193 166.387 282.192 165.929 281.884C165.47 281.576 165.471 281.078 165.931 280.772C166.39 280.465 167.134 280.467 167.593 280.775Z" fill="white" fill-opacity="0.15"/>
<path d="M180.875 289.696C181.334 290.003 181.333 290.501 180.873 290.808C180.414 291.114 179.67 291.113 179.211 290.805C178.753 290.497 178.753 289.999 179.213 289.693C179.673 289.386 180.417 289.388 180.875 289.696Z" fill="white" fill-opacity="0.15"/>
<path d="M48.0835 182.69C48.5419 182.998 48.5411 183.496 48.0816 183.803C47.622 184.109 46.8778 184.108 46.4194 183.8C45.9609 183.492 45.9618 182.994 46.4213 182.688C46.8808 182.381 47.625 182.382 48.0835 182.69Z" fill="white" fill-opacity="0.15"/>
<path d="M61.3657 191.611C61.8242 191.919 61.8233 192.417 61.3638 192.724C60.9043 193.03 60.1601 193.029 59.7016 192.721C59.2431 192.413 59.244 191.915 59.7035 191.608C60.163 191.302 60.9072 191.303 61.3657 191.611Z" fill="white" fill-opacity="0.15"/>
<path d="M74.6479 200.532C75.1064 200.84 75.1055 201.338 74.646 201.644C74.1865 201.951 73.4423 201.95 72.9838 201.642C72.5254 201.334 72.5262 200.836 72.9857 200.529C73.4453 200.223 74.1895 200.224 74.6479 200.532Z" fill="white" fill-opacity="0.15"/>
<path d="M87.9302 209.453C88.3886 209.761 88.3878 210.259 87.9282 210.565C87.4687 210.872 86.7245 210.87 86.2661 210.563C85.8076 210.255 85.8084 209.757 86.268 209.45C86.7275 209.144 87.4717 209.145 87.9302 209.453Z" fill="white" fill-opacity="0.15"/>
<path d="M101.212 218.374C101.671 218.682 101.67 219.18 101.21 219.486C100.751 219.793 100.007 219.791 99.5483 219.483C99.0898 219.175 99.0907 218.678 99.5502 218.371C100.01 218.065 100.754 218.066 101.212 218.374Z" fill="white" fill-opacity="0.15"/>
<path d="M114.495 227.295C114.953 227.603 114.952 228.101 114.493 228.407C114.033 228.714 113.289 228.712 112.831 228.404C112.372 228.096 112.373 227.598 112.832 227.292C113.292 226.986 114.036 226.987 114.495 227.295Z" fill="white" fill-opacity="0.15"/>
<path d="M127.777 236.216C128.235 236.524 128.234 237.022 127.775 237.328C127.315 237.634 126.571 237.633 126.113 237.325C125.654 237.017 125.655 236.519 126.115 236.213C126.574 235.907 127.318 235.908 127.777 236.216Z" fill="white" fill-opacity="0.15"/>
<path d="M141.059 245.137C141.518 245.445 141.517 245.943 141.057 246.249C140.598 246.555 139.853 246.554 139.395 246.246C138.936 245.938 138.937 245.44 139.397 245.134C139.856 244.828 140.601 244.829 141.059 245.137Z" fill="white" fill-opacity="0.15"/>
<path d="M154.341 254.058C154.8 254.366 154.799 254.864 154.339 255.17C153.88 255.476 153.136 255.475 152.677 255.167C152.219 254.859 152.22 254.361 152.679 254.055C153.139 253.748 153.883 253.75 154.341 254.058Z" fill="white" fill-opacity="0.15"/>
<path d="M167.624 262.979C168.082 263.286 168.081 263.784 167.622 264.091C167.162 264.397 166.418 264.396 165.959 264.088C165.501 263.78 165.502 263.282 165.961 262.976C166.421 262.669 167.165 262.671 167.624 262.979Z" fill="white" fill-opacity="0.15"/>
<path d="M180.906 271.899C181.364 272.207 181.363 272.705 180.904 273.012C180.444 273.318 179.7 273.317 179.242 273.009C178.783 272.701 178.784 272.203 179.244 271.897C179.703 271.59 180.447 271.591 180.906 271.899Z" fill="white" fill-opacity="0.15"/>
<path d="M194.188 280.82C194.646 281.128 194.646 281.626 194.186 281.933C193.727 282.239 192.982 282.238 192.524 281.93C192.065 281.622 192.066 281.124 192.526 280.817C192.985 280.511 193.729 280.512 194.188 280.82Z" fill="white" fill-opacity="0.15"/>
<path d="M61.3963 173.815C61.8547 174.123 61.8539 174.621 61.3944 174.927C60.9348 175.234 60.1906 175.233 59.7322 174.925C59.2737 174.617 59.2746 174.119 59.7341 173.812C60.1936 173.506 60.9378 173.507 61.3963 173.815Z" fill="white" fill-opacity="0.15"/>
<path d="M74.6785 182.736C75.137 183.044 75.1361 183.542 74.6766 183.848C74.2171 184.155 73.4729 184.153 73.0144 183.846C72.5559 183.538 72.5568 183.04 73.0163 182.733C73.4758 182.427 74.22 182.428 74.6785 182.736Z" fill="white" fill-opacity="0.15"/>
<path d="M87.9607 191.657C88.4192 191.965 88.4184 192.463 87.9588 192.769C87.4993 193.076 86.7551 193.074 86.2966 192.766C85.8382 192.458 85.839 191.961 86.2985 191.654C86.7581 191.348 87.5023 191.349 87.9607 191.657Z" fill="white" fill-opacity="0.15"/>
<path d="M101.243 200.578C101.701 200.886 101.701 201.384 101.241 201.69C100.782 201.997 100.037 201.995 99.5789 201.687C99.1204 201.379 99.1212 200.881 99.5808 200.575C100.04 200.269 100.784 200.27 101.243 200.578Z" fill="white" fill-opacity="0.15"/>
<path d="M114.525 209.499C114.984 209.807 114.983 210.305 114.523 210.611C114.064 210.917 113.32 210.916 112.861 210.608C112.403 210.3 112.403 209.802 112.863 209.496C113.323 209.19 114.067 209.191 114.525 209.499Z" fill="white" fill-opacity="0.15"/>
<path d="M127.807 218.42C128.266 218.728 128.265 219.226 127.806 219.532C127.346 219.838 126.602 219.837 126.143 219.529C125.685 219.221 125.686 218.723 126.145 218.417C126.605 218.111 127.349 218.112 127.807 218.42Z" fill="white" fill-opacity="0.15"/>
<path d="M141.09 227.341C141.548 227.649 141.547 228.147 141.088 228.453C140.628 228.759 139.884 228.758 139.426 228.45C138.967 228.142 138.968 227.644 139.427 227.338C139.887 227.031 140.631 227.033 141.09 227.341Z" fill="white" fill-opacity="0.15"/>
<path d="M154.372 236.262C154.83 236.569 154.829 237.067 154.37 237.374C153.91 237.68 153.166 237.679 152.708 237.371C152.249 237.063 152.25 236.565 152.71 236.259C153.169 235.952 153.913 235.954 154.372 236.262Z" fill="white" fill-opacity="0.15"/>
<path d="M167.654 245.182C168.113 245.49 168.112 245.988 167.652 246.295C167.193 246.601 166.448 246.6 165.99 246.292C165.532 245.984 165.532 245.486 165.992 245.18C166.451 244.873 167.196 244.874 167.654 245.182Z" fill="white" fill-opacity="0.15"/>
<path d="M180.936 254.103C181.395 254.411 181.394 254.909 180.934 255.216C180.475 255.522 179.731 255.521 179.272 255.213C178.814 254.905 178.815 254.407 179.274 254.1C179.734 253.794 180.478 253.795 180.936 254.103Z" fill="white" fill-opacity="0.15"/>
<path d="M194.219 263.024C194.677 263.332 194.676 263.83 194.217 264.136C193.757 264.443 193.013 264.442 192.554 264.134C192.096 263.826 192.097 263.328 192.556 263.021C193.016 262.715 193.76 262.716 194.219 263.024Z" fill="white" fill-opacity="0.15"/>
<path d="M207.501 271.945C207.959 272.253 207.958 272.751 207.499 273.057C207.039 273.364 206.295 273.362 205.837 273.055C205.378 272.747 205.379 272.249 205.839 271.942C206.298 271.636 207.042 271.637 207.501 271.945Z" fill="white" fill-opacity="0.15"/>
<path d="M74.7091 164.94C75.1676 165.248 75.1667 165.746 74.7072 166.052C74.2476 166.359 73.5035 166.357 73.045 166.049C72.5865 165.741 72.5874 165.244 73.0469 164.937C73.5064 164.631 74.2506 164.632 74.7091 164.94Z" fill="white" fill-opacity="0.15"/>
<path d="M87.9913 173.861C88.4498 174.169 88.4489 174.667 87.9894 174.973C87.5299 175.28 86.7857 175.278 86.3272 174.97C85.8687 174.662 85.8696 174.164 86.3291 173.858C86.7887 173.552 87.5328 173.553 87.9913 173.861Z" fill="white" fill-opacity="0.15"/>
<path d="M101.274 182.782C101.732 183.09 101.731 183.588 101.272 183.894C100.812 184.2 100.068 184.199 99.6094 183.891C99.151 183.583 99.1518 183.085 99.6114 182.779C100.071 182.473 100.815 182.474 101.274 182.782Z" fill="white" fill-opacity="0.15"/>
<path d="M114.556 191.703C115.014 192.011 115.013 192.509 114.554 192.815C114.094 193.121 113.35 193.12 112.892 192.812C112.433 192.504 112.434 192.006 112.894 191.7C113.353 191.394 114.097 191.395 114.556 191.703Z" fill="white" fill-opacity="0.15"/>
<path d="M127.838 200.624C128.296 200.932 128.296 201.43 127.836 201.736C127.377 202.042 126.632 202.041 126.174 201.733C125.715 201.425 125.716 200.927 126.176 200.621C126.635 200.314 127.38 200.316 127.838 200.624Z" fill="white" fill-opacity="0.15"/>
<path d="M141.12 209.545C141.579 209.852 141.578 210.35 141.118 210.657C140.659 210.963 139.915 210.962 139.456 210.654C138.998 210.346 138.999 209.848 139.458 209.542C139.918 209.235 140.662 209.237 141.12 209.545Z" fill="white" fill-opacity="0.15"/>
<path d="M154.402 218.465C154.861 218.773 154.86 219.271 154.401 219.578C153.941 219.884 153.197 219.883 152.738 219.575C152.28 219.267 152.281 218.769 152.74 218.463C153.2 218.156 153.944 218.157 154.402 218.465Z" fill="white" fill-opacity="0.15"/>
<path d="M167.685 227.386C168.143 227.694 168.142 228.192 167.683 228.499C167.223 228.805 166.479 228.804 166.021 228.496C165.562 228.188 165.563 227.69 166.022 227.383C166.482 227.077 167.226 227.078 167.685 227.386Z" fill="white" fill-opacity="0.15"/>
<path d="M180.967 236.307C181.425 236.615 181.425 237.113 180.965 237.419C180.505 237.726 179.761 237.725 179.303 237.417C178.844 237.109 178.845 236.611 179.305 236.304C179.764 235.998 180.508 235.999 180.967 236.307Z" fill="white" fill-opacity="0.15"/>
<path d="M194.249 245.228C194.708 245.536 194.707 246.034 194.247 246.34C193.788 246.647 193.044 246.645 192.585 246.338C192.127 246.03 192.127 245.532 192.587 245.225C193.046 244.919 193.791 244.92 194.249 245.228Z" fill="white" fill-opacity="0.15"/>
<path d="M207.531 254.149C207.99 254.457 207.989 254.955 207.529 255.261C207.07 255.568 206.326 255.566 205.867 255.258C205.409 254.95 205.41 254.453 205.869 254.146C206.329 253.84 207.073 253.841 207.531 254.149Z" fill="white" fill-opacity="0.15"/>
<path d="M220.814 263.07C221.272 263.378 221.271 263.876 220.812 264.182C220.352 264.489 219.608 264.487 219.149 264.179C218.691 263.871 218.692 263.373 219.151 263.067C219.611 262.761 220.355 262.762 220.814 263.07Z" fill="white" fill-opacity="0.15"/>
<path d="M88.0219 156.065C88.4804 156.373 88.4795 156.871 88.02 157.177C87.5604 157.483 86.8163 157.482 86.3578 157.174C85.8993 156.866 85.9002 156.368 86.3597 156.062C86.8192 155.756 87.5634 155.757 88.0219 156.065Z" fill="white" fill-opacity="0.15"/>
<path d="M101.304 164.986C101.763 165.294 101.762 165.792 101.302 166.098C100.843 166.404 100.098 166.403 99.64 166.095C99.1815 165.787 99.1824 165.289 99.6419 164.983C100.101 164.677 100.846 164.678 101.304 164.986Z" fill="white" fill-opacity="0.15"/>
<path d="M114.586 173.907C115.045 174.215 115.044 174.713 114.584 175.019C114.125 175.325 113.381 175.324 112.922 175.016C112.464 174.708 112.465 174.21 112.924 173.904C113.384 173.597 114.128 173.599 114.586 173.907Z" fill="white" fill-opacity="0.15"/>
<path d="M127.869 182.828C128.327 183.135 128.326 183.633 127.867 183.94C127.407 184.246 126.663 184.245 126.204 183.937C125.746 183.629 125.747 183.131 126.206 182.825C126.666 182.518 127.41 182.52 127.869 182.828Z" fill="white" fill-opacity="0.15"/>
<path d="M141.151 191.748C141.609 192.056 141.608 192.554 141.149 192.861C140.689 193.167 139.945 193.166 139.487 192.858C139.028 192.55 139.029 192.052 139.489 191.746C139.948 191.439 140.692 191.44 141.151 191.748Z" fill="white" fill-opacity="0.15"/>
<path d="M154.433 200.669C154.891 200.977 154.891 201.475 154.431 201.782C153.972 202.088 153.227 202.087 152.769 201.779C152.31 201.471 152.311 200.973 152.771 200.666C153.23 200.36 153.975 200.361 154.433 200.669Z" fill="white" fill-opacity="0.15"/>
<path d="M167.715 209.59C168.174 209.898 168.173 210.396 167.713 210.702C167.254 211.009 166.51 211.008 166.051 210.7C165.593 210.392 165.594 209.894 166.053 209.587C166.513 209.281 167.257 209.282 167.715 209.59Z" fill="white" fill-opacity="0.15"/>
<path d="M180.997 218.511C181.456 218.819 181.455 219.317 180.996 219.623C180.536 219.93 179.792 219.928 179.333 219.621C178.875 219.313 178.876 218.815 179.335 218.508C179.795 218.202 180.539 218.203 180.997 218.511Z" fill="white" fill-opacity="0.15"/>
<path d="M194.28 227.432C194.738 227.74 194.737 228.238 194.278 228.544C193.818 228.851 193.074 228.849 192.616 228.541C192.157 228.233 192.158 227.736 192.618 227.429C193.077 227.123 193.821 227.124 194.28 227.432Z" fill="white" fill-opacity="0.15"/>
<path d="M207.562 236.353C208.02 236.661 208.02 237.159 207.56 237.465C207.1 237.772 206.356 237.77 205.898 237.462C205.439 237.154 205.44 236.656 205.9 236.35C206.359 236.044 207.103 236.045 207.562 236.353Z" fill="white" fill-opacity="0.15"/>
<path d="M220.844 245.274C221.303 245.582 221.302 246.08 220.842 246.386C220.383 246.692 219.639 246.691 219.18 246.383C218.722 246.075 218.722 245.577 219.182 245.271C219.642 244.965 220.386 244.966 220.844 245.274Z" fill="white" fill-opacity="0.15"/>
<path d="M234.126 254.195C234.585 254.503 234.584 255.001 234.124 255.307C233.665 255.613 232.921 255.612 232.462 255.304C232.004 254.996 232.005 254.498 232.464 254.192C232.924 253.886 233.668 253.887 234.126 254.195Z" fill="white" fill-opacity="0.15"/>
<path d="M101.335 147.19C101.793 147.498 101.792 147.996 101.333 148.302C100.873 148.608 100.129 148.607 99.6706 148.299C99.2121 147.991 99.213 147.493 99.6725 147.187C100.132 146.88 100.876 146.882 101.335 147.19Z" fill="white" fill-opacity="0.15"/>
<path d="M114.617 156.111C115.075 156.418 115.075 156.916 114.615 157.223C114.155 157.529 113.411 157.528 112.953 157.22C112.494 156.912 112.495 156.414 112.955 156.108C113.414 155.801 114.158 155.803 114.617 156.111Z" fill="white" fill-opacity="0.15"/>
<path d="M127.899 165.031C128.358 165.339 128.357 165.837 127.897 166.144C127.438 166.45 126.694 166.449 126.235 166.141C125.777 165.833 125.777 165.335 126.237 165.029C126.696 164.722 127.441 164.723 127.899 165.031Z" fill="white" fill-opacity="0.15"/>
<path d="M141.181 173.952C141.64 174.26 141.639 174.758 141.179 175.065C140.72 175.371 139.976 175.37 139.517 175.062C139.059 174.754 139.06 174.256 139.519 173.949C139.979 173.643 140.723 173.644 141.181 173.952Z" fill="white" fill-opacity="0.15"/>
<path d="M154.464 182.873C154.922 183.181 154.921 183.679 154.462 183.985C154.002 184.292 153.258 184.291 152.8 183.983C152.341 183.675 152.342 183.177 152.801 182.87C153.261 182.564 154.005 182.565 154.464 182.873Z" fill="white" fill-opacity="0.15"/>
<path d="M167.746 191.794C168.204 192.102 168.203 192.6 167.744 192.906C167.284 193.213 166.54 193.211 166.082 192.904C165.623 192.596 165.624 192.098 166.084 191.791C166.543 191.485 167.287 191.486 167.746 191.794Z" fill="white" fill-opacity="0.15"/>
<path d="M181.028 200.715C181.487 201.023 181.486 201.521 181.026 201.827C180.567 202.134 179.822 202.132 179.364 201.824C178.905 201.516 178.906 201.019 179.366 200.712C179.825 200.406 180.57 200.407 181.028 200.715Z" fill="white" fill-opacity="0.15"/>
<path d="M194.31 209.636C194.769 209.944 194.768 210.442 194.308 210.748C193.849 211.055 193.105 211.053 192.646 210.745C192.188 210.437 192.189 209.939 192.648 209.633C193.108 209.327 193.852 209.328 194.31 209.636Z" fill="white" fill-opacity="0.15"/>
<path d="M207.593 218.557C208.051 218.865 208.05 219.363 207.591 219.669C207.131 219.975 206.387 219.974 205.928 219.666C205.47 219.358 205.471 218.86 205.93 218.554C206.39 218.248 207.134 218.249 207.593 218.557Z" fill="white" fill-opacity="0.15"/>
<path d="M220.875 227.478C221.333 227.786 221.332 228.284 220.873 228.59C220.413 228.896 219.669 228.895 219.211 228.587C218.752 228.279 218.753 227.781 219.213 227.475C219.672 227.168 220.416 227.17 220.875 227.478Z" fill="white" fill-opacity="0.15"/>
<path d="M234.157 236.399C234.615 236.707 234.615 237.205 234.155 237.511C233.696 237.817 232.951 237.816 232.493 237.508C232.034 237.2 232.035 236.702 232.495 236.396C232.954 236.089 233.698 236.091 234.157 236.399Z" fill="white" fill-opacity="0.15"/>
<path d="M247.439 245.32C247.898 245.627 247.897 246.125 247.437 246.432C246.978 246.738 246.234 246.737 245.775 246.429C245.317 246.121 245.317 245.623 245.777 245.317C246.237 245.01 246.981 245.012 247.439 245.32Z" fill="white" fill-opacity="0.15"/>
<path d="M114.647 138.314C115.106 138.622 115.105 139.12 114.646 139.427C114.186 139.733 113.442 139.732 112.983 139.424C112.525 139.116 112.526 138.618 112.985 138.312C113.445 138.005 114.189 138.006 114.647 138.314Z" fill="white" fill-opacity="0.15"/>
<path d="M127.93 147.235C128.388 147.543 128.387 148.041 127.928 148.348C127.468 148.654 126.724 148.653 126.266 148.345C125.807 148.037 125.808 147.539 126.268 147.232C126.727 146.926 127.471 146.927 127.93 147.235Z" fill="white" fill-opacity="0.15"/>
<path d="M141.212 156.156C141.67 156.464 141.67 156.962 141.21 157.268C140.751 157.575 140.006 157.574 139.548 157.266C139.089 156.958 139.09 156.46 139.55 156.153C140.009 155.847 140.753 155.848 141.212 156.156Z" fill="white" fill-opacity="0.15"/>
<path d="M154.494 165.077C154.953 165.385 154.952 165.883 154.492 166.189C154.033 166.496 153.289 166.494 152.83 166.187C152.372 165.879 152.372 165.381 152.832 165.074C153.292 164.768 154.036 164.769 154.494 165.077Z" fill="white" fill-opacity="0.15"/>
<path d="M167.776 173.998C168.235 174.306 168.234 174.804 167.774 175.11C167.315 175.417 166.571 175.415 166.112 175.107C165.654 174.799 165.655 174.302 166.114 173.995C166.574 173.689 167.318 173.69 167.776 173.998Z" fill="white" fill-opacity="0.15"/>
<path d="M181.059 182.919C181.517 183.227 181.516 183.725 181.057 184.031C180.597 184.338 179.853 184.336 179.395 184.028C178.936 183.72 178.937 183.222 179.396 182.916C179.856 182.61 180.6 182.611 181.059 182.919Z" fill="white" fill-opacity="0.15"/>
<path d="M194.341 191.84C194.799 192.148 194.798 192.646 194.339 192.952C193.879 193.258 193.135 193.257 192.677 192.949C192.218 192.641 192.219 192.143 192.679 191.837C193.138 191.531 193.882 191.532 194.341 191.84Z" fill="white" fill-opacity="0.15"/>
<path d="M207.623 200.761C208.082 201.069 208.081 201.567 207.621 201.873C207.162 202.179 206.417 202.178 205.959 201.87C205.501 201.562 205.501 201.064 205.961 200.758C206.42 200.451 207.165 200.453 207.623 200.761Z" fill="white" fill-opacity="0.15"/>
<path d="M220.905 209.682C221.364 209.99 221.363 210.488 220.903 210.794C220.444 211.1 219.7 211.099 219.241 210.791C218.783 210.483 218.784 209.985 219.243 209.679C219.703 209.372 220.447 209.374 220.905 209.682Z" fill="white" fill-opacity="0.15"/>
<path d="M234.188 218.603C234.646 218.91 234.645 219.408 234.186 219.715C233.726 220.021 232.982 220.02 232.523 219.712C232.065 219.404 232.066 218.906 232.525 218.6C232.985 218.293 233.729 218.295 234.188 218.603Z" fill="white" fill-opacity="0.15"/>
<path d="M247.47 227.523C247.928 227.831 247.927 228.329 247.468 228.636C247.008 228.942 246.264 228.941 245.806 228.633C245.347 228.325 245.348 227.827 245.808 227.521C246.267 227.214 247.011 227.215 247.47 227.523Z" fill="white" fill-opacity="0.15"/>
<path d="M260.752 236.444C261.21 236.752 261.21 237.25 260.75 237.557C260.291 237.863 259.546 237.862 259.088 237.554C258.629 237.246 258.63 236.748 259.09 236.441C259.549 236.135 260.294 236.136 260.752 236.444Z" fill="white" fill-opacity="0.15"/>
<path d="M127.96 129.439C128.419 129.747 128.418 130.245 127.958 130.551C127.499 130.858 126.755 130.857 126.296 130.549C125.838 130.241 125.839 129.743 126.298 129.436C126.758 129.13 127.502 129.131 127.96 129.439Z" fill="white" fill-opacity="0.15"/>
<path d="M141.243 138.36C141.701 138.668 141.7 139.166 141.241 139.472C140.781 139.779 140.037 139.777 139.578 139.47C139.12 139.162 139.121 138.664 139.58 138.357C140.04 138.051 140.784 138.052 141.243 138.36Z" fill="white" fill-opacity="0.15"/>
<path d="M154.525 147.281C154.983 147.589 154.982 148.087 154.523 148.393C154.063 148.7 153.319 148.698 152.861 148.39C152.402 148.082 152.403 147.585 152.863 147.278C153.322 146.972 154.066 146.973 154.525 147.281Z" fill="white" fill-opacity="0.15"/>
<path d="M167.807 156.202C168.265 156.51 168.265 157.008 167.805 157.314C167.346 157.621 166.601 157.619 166.143 157.311C165.684 157.003 165.685 156.505 166.145 156.199C166.604 155.893 167.349 155.894 167.807 156.202Z" fill="white" fill-opacity="0.15"/>
<path d="M181.089 165.123C181.548 165.431 181.547 165.929 181.087 166.235C180.628 166.541 179.884 166.54 179.425 166.232C178.967 165.924 178.967 165.426 179.427 165.12C179.887 164.814 180.631 164.815 181.089 165.123Z" fill="white" fill-opacity="0.15"/>
<path d="M194.371 174.044C194.83 174.352 194.829 174.85 194.37 175.156C193.91 175.462 193.166 175.461 192.707 175.153C192.249 174.845 192.25 174.347 192.709 174.041C193.169 173.734 193.913 173.736 194.371 174.044Z" fill="white" fill-opacity="0.15"/>
<path d="M207.654 182.965C208.112 183.273 208.111 183.771 207.652 184.077C207.192 184.383 206.448 184.382 205.99 184.074C205.531 183.766 205.532 183.268 205.991 182.962C206.451 182.655 207.195 182.657 207.654 182.965Z" fill="white" fill-opacity="0.15"/>
<path d="M220.936 191.886C221.394 192.193 221.394 192.691 220.934 192.998C220.474 193.304 219.73 193.303 219.272 192.995C218.813 192.687 218.814 192.189 219.274 191.883C219.733 191.576 220.477 191.578 220.936 191.886Z" fill="white" fill-opacity="0.15"/>
<path d="M234.218 200.806C234.677 201.114 234.676 201.612 234.216 201.919C233.757 202.225 233.012 202.224 232.554 201.916C232.096 201.608 232.096 201.11 232.556 200.804C233.015 200.497 233.76 200.498 234.218 200.806Z" fill="white" fill-opacity="0.15"/>
<path d="M247.5 209.727C247.959 210.035 247.958 210.533 247.498 210.84C247.039 211.146 246.295 211.145 245.836 210.837C245.378 210.529 245.379 210.031 245.838 209.724C246.298 209.418 247.042 209.419 247.5 209.727Z" fill="white" fill-opacity="0.15"/>
<path d="M260.783 218.648C261.241 218.956 261.24 219.454 260.781 219.76C260.321 220.067 259.577 220.066 259.118 219.758C258.66 219.45 258.661 218.952 259.12 218.645C259.58 218.339 260.324 218.34 260.783 218.648Z" fill="white" fill-opacity="0.15"/>
<path d="M274.065 227.569C274.523 227.877 274.522 228.375 274.063 228.681C273.603 228.988 272.859 228.986 272.401 228.679C271.942 228.371 271.943 227.873 272.403 227.566C272.862 227.26 273.606 227.261 274.065 227.569Z" fill="white" fill-opacity="0.15"/>
<path d="M141.273 120.564C141.732 120.872 141.731 121.37 141.271 121.676C140.812 121.983 140.067 121.981 139.609 121.673C139.151 121.365 139.151 120.867 139.611 120.561C140.07 120.255 140.815 120.256 141.273 120.564Z" fill="white" fill-opacity="0.15"/>
<path d="M154.555 129.485C155.014 129.793 155.013 130.291 154.553 130.597C154.094 130.904 153.35 130.902 152.891 130.594C152.433 130.286 152.434 129.788 152.893 129.482C153.353 129.176 154.097 129.177 154.555 129.485Z" fill="white" fill-opacity="0.15"/>
<path d="M167.838 138.406C168.296 138.714 168.295 139.212 167.836 139.518C167.376 139.824 166.632 139.823 166.173 139.515C165.715 139.207 165.716 138.709 166.175 138.403C166.635 138.097 167.379 138.098 167.838 138.406Z" fill="white" fill-opacity="0.15"/>
<path d="M181.12 147.327C181.578 147.635 181.577 148.133 181.118 148.439C180.658 148.745 179.914 148.744 179.456 148.436C178.997 148.128 178.998 147.63 179.458 147.324C179.917 147.017 180.661 147.019 181.12 147.327Z" fill="white" fill-opacity="0.15"/>
<path d="M194.402 156.248C194.86 156.556 194.86 157.054 194.4 157.36C193.941 157.666 193.196 157.665 192.738 157.357C192.279 157.049 192.28 156.551 192.74 156.245C193.199 155.938 193.944 155.94 194.402 156.248Z" fill="white" fill-opacity="0.15"/>
<path d="M207.684 165.169C208.143 165.476 208.142 165.974 207.682 166.281C207.223 166.587 206.479 166.586 206.02 166.278C205.562 165.97 205.563 165.472 206.022 165.166C206.482 164.859 207.226 164.861 207.684 165.169Z" fill="white" fill-opacity="0.15"/>
<path d="M220.966 174.089C221.425 174.397 221.424 174.895 220.965 175.202C220.505 175.508 219.761 175.507 219.302 175.199C218.844 174.891 218.845 174.393 219.304 174.087C219.764 173.78 220.508 173.781 220.966 174.089Z" fill="white" fill-opacity="0.15"/>
<path d="M234.249 183.01C234.707 183.318 234.706 183.816 234.247 184.123C233.787 184.429 233.043 184.428 232.585 184.12C232.126 183.812 232.127 183.314 232.587 183.007C233.046 182.701 233.79 182.702 234.249 183.01Z" fill="white" fill-opacity="0.15"/>
<path d="M247.531 191.931C247.989 192.239 247.989 192.737 247.529 193.043C247.069 193.35 246.325 193.349 245.867 193.041C245.408 192.733 245.409 192.235 245.869 191.928C246.328 191.622 247.072 191.623 247.531 191.931Z" fill="white" fill-opacity="0.15"/>
<path d="M260.813 200.852C261.272 201.16 261.271 201.658 260.811 201.964C260.352 202.271 259.608 202.269 259.149 201.961C258.691 201.654 258.691 201.156 259.151 200.849C259.61 200.543 260.355 200.544 260.813 200.852Z" fill="white" fill-opacity="0.15"/>
<path d="M274.095 209.773C274.554 210.081 274.553 210.579 274.093 210.885C273.634 211.192 272.89 211.19 272.431 210.882C271.973 210.574 271.974 210.076 272.433 209.77C272.893 209.464 273.637 209.465 274.095 209.773Z" fill="white" fill-opacity="0.15"/>
<path d="M287.378 218.694C287.836 219.002 287.835 219.5 287.376 219.806C286.916 220.113 286.172 220.111 285.714 219.803C285.255 219.495 285.256 218.997 285.715 218.691C286.175 218.385 286.919 218.386 287.378 218.694Z" fill="white" fill-opacity="0.15"/>
<path d="M154.586 111.689C155.044 111.997 155.044 112.495 154.584 112.801C154.124 113.107 153.38 113.106 152.922 112.798C152.463 112.49 152.464 111.992 152.924 111.686C153.383 111.38 154.127 111.381 154.586 111.689Z" fill="white" fill-opacity="0.15"/>
<path d="M167.868 120.61C168.327 120.918 168.326 121.416 167.866 121.722C167.407 122.028 166.663 122.027 166.204 121.719C165.746 121.411 165.746 120.913 166.206 120.607C166.665 120.3 167.41 120.302 167.868 120.61Z" fill="white" fill-opacity="0.15"/>
<path d="M181.15 129.531C181.609 129.839 181.608 130.337 181.148 130.643C180.689 130.949 179.945 130.948 179.486 130.64C179.028 130.332 179.029 129.834 179.488 129.528C179.948 129.221 180.692 129.223 181.15 129.531Z" fill="white" fill-opacity="0.15"/>
<path d="M194.433 138.452C194.891 138.759 194.89 139.257 194.431 139.564C193.971 139.87 193.227 139.869 192.768 139.561C192.31 139.253 192.311 138.755 192.77 138.449C193.23 138.142 193.974 138.144 194.433 138.452Z" fill="white" fill-opacity="0.15"/>
<path d="M207.715 147.372C208.173 147.68 208.172 148.178 207.713 148.485C207.253 148.791 206.509 148.79 206.051 148.482C205.592 148.174 205.593 147.676 206.053 147.37C206.512 147.063 207.256 147.064 207.715 147.372Z" fill="white" fill-opacity="0.15"/>
<path d="M220.997 156.293C221.456 156.601 221.455 157.099 220.995 157.406C220.536 157.712 219.791 157.711 219.333 157.403C218.874 157.095 218.875 156.597 219.335 156.29C219.794 155.984 220.539 155.985 220.997 156.293Z" fill="white" fill-opacity="0.15"/>
<path d="M234.279 165.214C234.738 165.522 234.737 166.02 234.277 166.326C233.818 166.633 233.074 166.632 232.615 166.324C232.157 166.016 232.158 165.518 232.617 165.211C233.077 164.905 233.821 164.906 234.279 165.214Z" fill="white" fill-opacity="0.15"/>
<path d="M247.562 174.135C248.02 174.443 248.019 174.941 247.56 175.247C247.1 175.554 246.356 175.552 245.897 175.244C245.439 174.937 245.44 174.439 245.899 174.132C246.359 173.826 247.103 173.827 247.562 174.135Z" fill="white" fill-opacity="0.15"/>
<path d="M260.844 183.056C261.302 183.364 261.301 183.862 260.842 184.168C260.382 184.475 259.638 184.473 259.18 184.165C258.721 183.857 258.722 183.359 259.182 183.053C259.641 182.747 260.385 182.748 260.844 183.056Z" fill="white" fill-opacity="0.15"/>
<path d="M274.126 191.977C274.584 192.285 274.584 192.783 274.124 193.089C273.665 193.396 272.92 193.394 272.462 193.086C272.003 192.778 272.004 192.28 272.464 191.974C272.923 191.668 273.667 191.669 274.126 191.977Z" fill="white" fill-opacity="0.15"/>
<path d="M287.408 200.898C287.867 201.206 287.866 201.704 287.406 202.01C286.947 202.316 286.203 202.315 285.744 202.007C285.286 201.699 285.286 201.201 285.746 200.895C286.206 200.589 286.95 200.59 287.408 200.898Z" fill="white" fill-opacity="0.15"/>
<path d="M300.69 209.819C301.149 210.127 301.148 210.625 300.689 210.931C300.229 211.237 299.485 211.236 299.026 210.928C298.568 210.62 298.569 210.122 299.028 209.816C299.488 209.509 300.232 209.511 300.69 209.819Z" fill="white" fill-opacity="0.15"/>
<path d="M167.899 102.814C168.357 103.122 168.356 103.62 167.897 103.926C167.437 104.232 166.693 104.231 166.235 103.923C165.776 103.615 165.777 103.117 166.237 102.811C166.696 102.504 167.44 102.506 167.899 102.814Z" fill="white" fill-opacity="0.15"/>
<path d="M181.181 111.734C181.639 112.042 181.639 112.54 181.179 112.847C180.72 113.153 179.975 113.152 179.517 112.844C179.058 112.536 179.059 112.038 179.519 111.732C179.978 111.425 180.722 111.427 181.181 111.734Z" fill="white" fill-opacity="0.15"/>
<path d="M194.463 120.655C194.922 120.963 194.921 121.461 194.461 121.768C194.002 122.074 193.258 122.073 192.799 121.765C192.341 121.457 192.341 120.959 192.801 120.653C193.261 120.346 194.005 120.347 194.463 120.655Z" fill="white" fill-opacity="0.15"/>
<path d="M207.745 129.576C208.204 129.884 208.203 130.382 207.743 130.689C207.284 130.995 206.54 130.994 206.081 130.686C205.623 130.378 205.624 129.88 206.083 129.573C206.543 129.267 207.287 129.268 207.745 129.576Z" fill="white" fill-opacity="0.15"/>
<path d="M221.028 138.497C221.486 138.805 221.485 139.303 221.026 139.609C220.566 139.916 219.822 139.915 219.364 139.607C218.905 139.299 218.906 138.801 219.365 138.494C219.825 138.188 220.569 138.189 221.028 138.497Z" fill="white" fill-opacity="0.15"/>
<path d="M234.31 147.418C234.768 147.726 234.767 148.224 234.308 148.53C233.848 148.837 233.104 148.835 232.646 148.527C232.187 148.22 232.188 147.722 232.648 147.415C233.107 147.109 233.851 147.11 234.31 147.418Z" fill="white" fill-opacity="0.15"/>
<path d="M247.592 156.339C248.051 156.647 248.05 157.145 247.59 157.451C247.131 157.758 246.386 157.756 245.928 157.448C245.47 157.14 245.47 156.642 245.93 156.336C246.389 156.03 247.134 156.031 247.592 156.339Z" fill="white" fill-opacity="0.15"/>
<path d="M260.874 165.26C261.333 165.568 261.332 166.066 260.872 166.372C260.413 166.679 259.669 166.677 259.21 166.369C258.752 166.061 258.753 165.563 259.212 165.257C259.672 164.951 260.416 164.952 260.874 165.26Z" fill="white" fill-opacity="0.15"/>
<path d="M274.157 174.181C274.615 174.489 274.614 174.987 274.155 175.293C273.695 175.599 272.951 175.598 272.492 175.29C272.034 174.982 272.035 174.484 272.494 174.178C272.954 173.872 273.698 173.873 274.157 174.181Z" fill="white" fill-opacity="0.15"/>
<path d="M287.439 183.102C287.897 183.41 287.896 183.908 287.437 184.214C286.977 184.52 286.233 184.519 285.775 184.211C285.316 183.903 285.317 183.405 285.777 183.099C286.236 182.792 286.98 182.794 287.439 183.102Z" fill="white" fill-opacity="0.15"/>
<path d="M300.721 192.023C301.179 192.331 301.179 192.828 300.719 193.135C300.26 193.441 299.515 193.44 299.057 193.132C298.598 192.824 298.599 192.326 299.059 192.02C299.518 191.713 300.263 191.715 300.721 192.023Z" fill="white" fill-opacity="0.15"/>
<path d="M314.003 200.943C314.462 201.251 314.461 201.749 314.001 202.056C313.542 202.362 312.798 202.361 312.339 202.053C311.881 201.745 311.882 201.247 312.341 200.941C312.801 200.634 313.545 200.636 314.003 200.943Z" fill="white" fill-opacity="0.15"/>
<path d="M181.212 93.9384C181.67 94.2463 181.669 94.7443 181.21 95.0507C180.75 95.357 180.006 95.3557 179.547 95.0478C179.089 94.7399 179.09 94.2419 179.549 93.9355C180.009 93.6292 180.753 93.6305 181.212 93.9384Z" fill="white" fill-opacity="0.15"/>
<path d="M194.494 102.859C194.952 103.167 194.951 103.665 194.492 103.972C194.032 104.278 193.288 104.277 192.83 103.969C192.371 103.661 192.372 103.163 192.832 102.856C193.291 102.55 194.035 102.551 194.494 102.859Z" fill="white" fill-opacity="0.15"/>
<path d="M207.776 111.78C208.234 112.088 208.234 112.586 207.774 112.892C207.315 113.199 206.57 113.198 206.112 112.89C205.653 112.582 205.654 112.084 206.114 111.777C206.573 111.471 207.318 111.472 207.776 111.78Z" fill="white" fill-opacity="0.15"/>
<path d="M221.058 120.701C221.517 121.009 221.516 121.507 221.056 121.813C220.597 122.12 219.853 122.118 219.394 121.81C218.936 121.503 218.936 121.005 219.396 120.698C219.856 120.392 220.6 120.393 221.058 120.701Z" fill="white" fill-opacity="0.15"/>
<path d="M234.34 129.622C234.799 129.93 234.798 130.428 234.339 130.734C233.879 131.041 233.135 131.039 232.676 130.731C232.218 130.423 232.219 129.925 232.678 129.619C233.138 129.313 233.882 129.314 234.34 129.622Z" fill="white" fill-opacity="0.15"/>
<path d="M247.623 138.543C248.081 138.851 248.08 139.349 247.621 139.655C247.161 139.961 246.417 139.96 245.959 139.652C245.5 139.344 245.501 138.846 245.96 138.54C246.42 138.234 247.164 138.235 247.623 138.543Z" fill="white" fill-opacity="0.15"/>
<path d="M260.905 147.464C261.363 147.772 261.363 148.27 260.903 148.576C260.443 148.882 259.699 148.881 259.241 148.573C258.782 148.265 258.783 147.767 259.243 147.461C259.702 147.155 260.446 147.156 260.905 147.464Z" fill="white" fill-opacity="0.15"/>
<path d="M274.187 156.385C274.646 156.693 274.645 157.191 274.185 157.497C273.726 157.803 272.981 157.802 272.523 157.494C272.065 157.186 272.065 156.688 272.525 156.382C272.984 156.075 273.729 156.077 274.187 156.385Z" fill="white" fill-opacity="0.15"/>
<path d="M287.469 165.306C287.928 165.614 287.927 166.111 287.467 166.418C287.008 166.724 286.264 166.723 285.805 166.415C285.347 166.107 285.348 165.609 285.807 165.303C286.267 164.996 287.011 164.998 287.469 165.306Z" fill="white" fill-opacity="0.15"/>
<path d="M300.752 174.226C301.21 174.534 301.209 175.032 300.75 175.339C300.29 175.645 299.546 175.644 299.087 175.336C298.629 175.028 298.63 174.53 299.089 174.224C299.549 173.917 300.293 173.919 300.752 174.226Z" fill="white" fill-opacity="0.15"/>
<path d="M314.034 183.147C314.492 183.455 314.491 183.953 314.032 184.26C313.572 184.566 312.828 184.565 312.37 184.257C311.911 183.949 311.912 183.451 312.372 183.145C312.831 182.838 313.575 182.839 314.034 183.147Z" fill="white" fill-opacity="0.15"/>
<path d="M327.316 192.068C327.775 192.376 327.774 192.874 327.314 193.181C326.855 193.487 326.11 193.486 325.652 193.178C325.193 192.87 325.194 192.372 325.654 192.065C326.113 191.759 326.858 191.76 327.316 192.068Z" fill="white" fill-opacity="0.15"/>
<path d="M194.524 85.0632C194.983 85.3711 194.982 85.8691 194.522 86.1754C194.063 86.4818 193.319 86.4805 192.86 86.1726C192.402 85.8647 192.403 85.3667 192.862 85.0603C193.322 84.754 194.066 84.7553 194.524 85.0632Z" fill="white" fill-opacity="0.15"/>
<path d="M207.807 93.9841C208.265 94.292 208.264 94.79 207.805 95.0963C207.345 95.4027 206.601 95.4014 206.142 95.0935C205.684 94.7856 205.685 94.2876 206.144 93.9812C206.604 93.6749 207.348 93.6762 207.807 93.9841Z" fill="white" fill-opacity="0.15"/>
<path d="M221.089 102.905C221.547 103.213 221.546 103.711 221.087 104.017C220.627 104.324 219.883 104.322 219.425 104.014C218.966 103.706 218.967 103.208 219.427 102.902C219.886 102.596 220.63 102.597 221.089 102.905Z" fill="white" fill-opacity="0.15"/>
<path d="M234.371 111.826C234.829 112.134 234.829 112.632 234.369 112.938C233.91 113.245 233.165 113.243 232.707 112.935C232.248 112.627 232.249 112.129 232.709 111.823C233.168 111.517 233.913 111.518 234.371 111.826Z" fill="white" fill-opacity="0.15"/>
<path d="M247.653 120.747C248.112 121.055 248.111 121.553 247.651 121.859C247.192 122.165 246.448 122.164 245.989 121.856C245.531 121.548 245.532 121.05 245.991 120.744C246.451 120.438 247.195 120.439 247.653 120.747Z" fill="white" fill-opacity="0.15"/>
<path d="M260.935 129.668C261.394 129.976 261.393 130.474 260.934 130.78C260.474 131.086 259.73 131.085 259.271 130.777C258.813 130.469 258.814 129.971 259.273 129.665C259.733 129.358 260.477 129.36 260.935 129.668Z" fill="white" fill-opacity="0.15"/>
<path d="M274.218 138.589C274.676 138.897 274.675 139.394 274.216 139.701C273.756 140.007 273.012 140.006 272.554 139.698C272.095 139.39 272.096 138.892 272.556 138.586C273.015 138.279 273.759 138.281 274.218 138.589Z" fill="white" fill-opacity="0.15"/>
<path d="M287.5 147.509C287.958 147.817 287.958 148.315 287.498 148.622C287.038 148.928 286.294 148.927 285.836 148.619C285.377 148.311 285.378 147.813 285.838 147.507C286.297 147.2 287.041 147.202 287.5 147.509Z" fill="white" fill-opacity="0.15"/>
<path d="M300.782 156.43C301.241 156.738 301.24 157.236 300.78 157.543C300.321 157.849 299.577 157.848 299.118 157.54C298.66 157.232 298.66 156.734 299.12 156.428C299.579 156.121 300.324 156.122 300.782 156.43Z" fill="white" fill-opacity="0.15"/>
<path d="M314.064 165.351C314.523 165.659 314.522 166.157 314.062 166.464C313.603 166.77 312.859 166.769 312.4 166.461C311.942 166.153 311.943 165.655 312.402 165.348C312.862 165.042 313.606 165.043 314.064 165.351Z" fill="white" fill-opacity="0.15"/>
<path d="M327.347 174.272C327.805 174.58 327.804 175.078 327.345 175.384C326.885 175.691 326.141 175.69 325.683 175.382C325.224 175.074 325.225 174.576 325.684 174.269C326.144 173.963 326.888 173.964 327.347 174.272Z" fill="white" fill-opacity="0.15"/>
<path d="M340.629 183.193C341.087 183.501 341.086 183.999 340.627 184.305C340.167 184.612 339.423 184.61 338.965 184.302C338.506 183.995 338.507 183.497 338.967 183.19C339.426 182.884 340.17 182.885 340.629 183.193Z" fill="white" fill-opacity="0.15"/>
<path d="M207.837 76.188C208.296 76.4959 208.295 76.9939 207.835 77.3002C207.376 77.6066 206.632 77.6053 206.173 77.2974C205.715 76.9895 205.715 76.4915 206.175 76.1851C206.634 75.8788 207.379 75.8801 207.837 76.188Z" fill="white" fill-opacity="0.15"/>
<path d="M221.119 85.1089C221.578 85.4168 221.577 85.9148 221.117 86.2211C220.658 86.5275 219.914 86.5262 219.455 86.2183C218.997 85.9104 218.998 85.4124 219.457 85.106C219.917 84.7997 220.661 84.801 221.119 85.1089Z" fill="white" fill-opacity="0.15"/>
<path d="M234.402 94.0298C234.86 94.3377 234.859 94.8357 234.4 95.142C233.94 95.4484 233.196 95.4471 232.737 95.1392C232.279 94.8313 232.28 94.3333 232.739 94.0269C233.199 93.7206 233.943 93.7219 234.402 94.0298Z" fill="white" fill-opacity="0.15"/>
<path d="M247.684 102.951C248.142 103.259 248.141 103.757 247.682 104.063C247.222 104.369 246.478 104.368 246.02 104.06C245.561 103.752 245.562 103.254 246.022 102.948C246.481 102.641 247.225 102.643 247.684 102.951Z" fill="white" fill-opacity="0.15"/>
<path d="M260.966 111.872C261.425 112.18 261.424 112.677 260.964 112.984C260.505 113.29 259.76 113.289 259.302 112.981C258.843 112.673 258.844 112.175 259.304 111.869C259.763 111.562 260.508 111.564 260.966 111.872Z" fill="white" fill-opacity="0.15"/>
<path d="M274.248 120.792C274.707 121.1 274.706 121.598 274.246 121.905C273.787 122.211 273.043 122.21 272.584 121.902C272.126 121.594 272.127 121.096 272.586 120.79C273.046 120.483 273.79 120.485 274.248 120.792Z" fill="white" fill-opacity="0.15"/>
<path d="M287.531 129.713C287.989 130.021 287.988 130.519 287.529 130.826C287.069 131.132 286.325 131.131 285.866 130.823C285.408 130.515 285.409 130.017 285.868 129.711C286.328 129.404 287.072 129.405 287.531 129.713Z" fill="white" fill-opacity="0.15"/>
<path d="M300.813 138.634C301.271 138.942 301.27 139.44 300.811 139.747C300.351 140.053 299.607 140.052 299.149 139.744C298.69 139.436 298.691 138.938 299.151 138.631C299.61 138.325 300.354 138.326 300.813 138.634Z" fill="white" fill-opacity="0.15"/>
<path d="M314.095 147.555C314.553 147.863 314.553 148.361 314.093 148.667C313.634 148.974 312.889 148.973 312.431 148.665C311.972 148.357 311.973 147.859 312.433 147.552C312.892 147.246 313.636 147.247 314.095 147.555Z" fill="white" fill-opacity="0.15"/>
<path d="M327.377 156.476C327.836 156.784 327.835 157.282 327.375 157.588C326.916 157.895 326.172 157.893 325.713 157.585C325.255 157.278 325.255 156.78 325.715 156.473C326.175 156.167 326.919 156.168 327.377 156.476Z" fill="white" fill-opacity="0.15"/>
<path d="M340.659 165.397C341.118 165.705 341.117 166.203 340.657 166.509C340.198 166.816 339.454 166.814 338.995 166.506C338.537 166.198 338.538 165.7 338.997 165.394C339.457 165.088 340.201 165.089 340.659 165.397Z" fill="white" fill-opacity="0.15"/>
<path d="M353.942 174.318C354.4 174.626 354.399 175.124 353.94 175.43C353.48 175.736 352.736 175.735 352.278 175.427C351.819 175.119 351.82 174.621 352.279 174.315C352.739 174.009 353.483 174.01 353.942 174.318Z" fill="white" fill-opacity="0.15"/>
<path d="M221.15 67.3128C221.608 67.6207 221.608 68.1187 221.148 68.425C220.689 68.7314 219.944 68.7301 219.486 68.4222C219.027 68.1143 219.028 67.6163 219.488 67.3099C219.947 67.0036 220.691 67.0049 221.15 67.3128Z" fill="white" fill-opacity="0.15"/>
<path d="M234.432 76.2337C234.891 76.5416 234.89 77.0396 234.43 77.3459C233.971 77.6523 233.227 77.651 232.768 77.3431C232.31 77.0352 232.31 76.5372 232.77 76.2308C233.23 75.9245 233.974 75.9258 234.432 76.2337Z" fill="white" fill-opacity="0.15"/>
<path d="M247.714 85.1546C248.173 85.4625 248.172 85.9605 247.712 86.2668C247.253 86.5732 246.509 86.5719 246.05 86.264C245.592 85.9561 245.593 85.4581 246.052 85.1517C246.512 84.8454 247.256 84.8467 247.714 85.1546Z" fill="white" fill-opacity="0.15"/>
<path d="M260.997 94.0755C261.455 94.3834 261.454 94.8814 260.995 95.1877C260.535 95.4941 259.791 95.4928 259.333 95.1849C258.874 94.877 258.875 94.379 259.334 94.0726C259.794 93.7663 260.538 93.7676 260.997 94.0755Z" fill="white" fill-opacity="0.15"/>
<path d="M274.279 102.996C274.737 103.304 274.736 103.802 274.277 104.109C273.817 104.415 273.073 104.414 272.615 104.106C272.156 103.798 272.157 103.3 272.617 102.994C273.076 102.687 273.82 102.688 274.279 102.996Z" fill="white" fill-opacity="0.15"/>
<path d="M287.561 111.917C288.02 112.225 288.019 112.723 287.559 113.03C287.1 113.336 286.355 113.335 285.897 113.027C285.439 112.719 285.439 112.221 285.899 111.914C286.358 111.608 287.103 111.609 287.561 111.917Z" fill="white" fill-opacity="0.15"/>
<path d="M300.843 120.838C301.302 121.146 301.301 121.644 300.841 121.95C300.382 122.257 299.638 122.256 299.179 121.948C298.721 121.64 298.722 121.142 299.181 120.835C299.641 120.529 300.385 120.53 300.843 120.838Z" fill="white" fill-opacity="0.15"/>
<path d="M314.126 129.759C314.584 130.067 314.583 130.565 314.124 130.871C313.664 131.178 312.92 131.176 312.461 130.868C312.003 130.561 312.004 130.063 312.463 129.756C312.923 129.45 313.667 129.451 314.126 129.759Z" fill="white" fill-opacity="0.15"/>
<path d="M327.408 138.68C327.866 138.988 327.865 139.486 327.406 139.792C326.946 140.099 326.202 140.097 325.744 139.789C325.285 139.481 325.286 138.983 325.746 138.677C326.205 138.371 326.949 138.372 327.408 138.68Z" fill="white" fill-opacity="0.15"/>
<path d="M340.69 147.601C341.148 147.909 341.148 148.407 340.688 148.713C340.229 149.019 339.484 149.018 339.026 148.71C338.567 148.402 338.568 147.904 339.028 147.598C339.487 147.292 340.232 147.293 340.69 147.601Z" fill="white" fill-opacity="0.15"/>
<path d="M353.972 156.522C354.431 156.83 354.43 157.328 353.97 157.634C353.511 157.94 352.767 157.939 352.308 157.631C351.85 157.323 351.85 156.825 352.31 156.519C352.77 156.213 353.514 156.214 353.972 156.522Z" fill="white" fill-opacity="0.15"/>
<path d="M367.254 165.443C367.713 165.751 367.712 166.249 367.253 166.555C366.793 166.861 366.049 166.86 365.59 166.552C365.132 166.244 365.133 165.746 365.592 165.44C366.052 165.133 366.796 165.135 367.254 165.443Z" fill="white" fill-opacity="0.15"/>
<path d="M21.7401 200.362C22.1986 200.67 22.1977 201.168 21.7382 201.474C21.2786 201.78 20.5345 201.779 20.076 201.471C19.6175 201.163 19.6184 200.665 20.0779 200.359C20.5374 200.053 21.2816 200.054 21.7401 200.362Z" fill="white" fill-opacity="0.15"/>
<mask id="path-6-inside-1_2402_6389" fill="white">
<path d="M283.966 37.8772C285.871 36.6075 288.956 36.6123 290.856 37.8885L324.117 60.2278C325.206 60.9591 325.667 61.9491 325.507 62.9L325.624 62.8997L325.623 70.4981L325.536 70.498C325.501 71.3019 325.026 72.0982 324.108 72.7103L266.63 111.029C264.726 112.299 261.641 112.293 259.741 111.017L226.481 88.6779C226.075 88.4056 225.757 88.0973 225.525 87.7687L225.182 87.7687L225.181 87.1056C225.016 86.625 225.016 86.1243 225.181 85.6441L225.181 79.2318C225.017 78.752 225.017 78.2524 225.18 77.773L225.182 77.4064L225.339 77.4067C225.575 76.9641 225.959 76.549 226.489 76.1954L283.966 37.8772Z"/>
</mask>
<path d="M283.966 37.8772C285.871 36.6075 288.956 36.6123 290.856 37.8885L324.117 60.2278C325.206 60.9591 325.667 61.9491 325.507 62.9L325.624 62.8997L325.623 70.4981L325.536 70.498C325.501 71.3019 325.026 72.0982 324.108 72.7103L266.63 111.029C264.726 112.299 261.641 112.293 259.741 111.017L226.481 88.6779C226.075 88.4056 225.757 88.0973 225.525 87.7687L225.182 87.7687L225.181 87.1056C225.016 86.625 225.016 86.1243 225.181 85.6441L225.181 79.2318C225.017 78.752 225.017 78.2524 225.18 77.773L225.182 77.4064L225.339 77.4067C225.575 76.9641 225.959 76.549 226.489 76.1954L283.966 37.8772Z" fill="#09080D"/>
<path d="M290.856 37.8885L291.431 37.5053L291.431 37.5053L290.856 37.8885ZM325.507 62.9L324.7 62.8382L324.597 63.446L325.511 63.4433L325.507 62.9ZM325.624 62.8997L326.436 62.9005L326.436 62.354L325.62 62.3564L325.624 62.8997ZM325.623 70.4981L325.622 71.0414L326.435 71.0428L326.435 70.4989L325.623 70.4981ZM325.536 70.498L325.537 69.9547L324.747 69.9533L324.724 70.4816L325.536 70.498ZM324.108 72.7103L324.682 73.0954L324.108 72.7103ZM266.63 111.029L267.204 111.414L267.204 111.414L266.63 111.029ZM226.481 88.6779L225.906 89.061L225.906 89.0611L226.481 88.6779ZM225.525 87.7687L226.259 87.5371L226.039 87.2255L225.524 87.2254L225.525 87.7687ZM225.182 87.7687L224.37 87.7686L224.371 88.3119L225.183 88.312L225.182 87.7687ZM225.181 87.1056L225.993 87.1056L225.992 87.0445L225.972 86.985L225.181 87.1056ZM225.181 85.6441L225.972 85.766L225.993 85.7062L225.993 85.6449L225.181 85.6441ZM225.181 79.2318L225.993 79.2326L225.993 79.1712L225.973 79.1114L225.181 79.2318ZM225.18 77.773L225.972 77.8947L225.992 77.8357L225.992 77.7752L225.18 77.773ZM225.182 77.4064L225.183 76.8631L224.372 76.8617L224.37 77.4042L225.182 77.4064ZM225.339 77.4067L225.338 77.95L225.912 77.951L226.104 77.5896L225.339 77.4067ZM283.966 37.8772L284.54 38.2624C286.127 37.2042 288.698 37.2083 290.281 38.2717L290.856 37.8885L291.431 37.5053C289.214 36.0163 285.615 36.0108 283.393 37.492L283.966 37.8772ZM290.856 37.8885L290.281 38.2717L323.542 60.6109L324.117 60.2278L324.692 59.8446L291.431 37.5053L290.856 37.8885ZM324.117 60.2278L323.542 60.6109C324.449 61.2198 324.834 62.0437 324.7 62.8382L325.507 62.9L326.313 62.9618C326.501 61.8544 325.963 60.6983 324.692 59.8446L324.117 60.2278ZM325.507 62.9L325.511 63.4433L325.629 63.443L325.624 62.8997L325.62 62.3564L325.502 62.3567L325.507 62.9ZM325.624 62.8997L324.812 62.8989L324.811 70.4973L325.623 70.4981L326.435 70.4989L326.436 62.9005L325.624 62.8997ZM325.623 70.4981L325.624 69.9548L325.537 69.9547L325.536 70.498L325.535 71.0413L325.622 71.0414L325.623 70.4981ZM325.536 70.498L324.724 70.4816C324.695 71.1526 324.3 71.8152 323.535 72.3251L324.108 72.7103L324.682 73.0954C325.753 72.3813 326.307 71.4511 326.347 70.5143L325.536 70.498ZM324.108 72.7103L323.535 72.3251L266.057 110.644L266.63 111.029L267.204 111.414L324.682 73.0954L324.108 72.7103ZM266.63 111.029L266.057 110.644C264.47 111.702 261.899 111.697 260.316 110.634L259.741 111.017L259.166 111.4C261.383 112.889 264.982 112.895 267.204 111.414L266.63 111.029ZM259.741 111.017L260.316 110.634L227.055 88.2947L226.481 88.6779L225.906 89.0611L259.166 111.4L259.741 111.017ZM226.481 88.6779L227.055 88.2947C226.717 88.0675 226.452 87.8108 226.259 87.5371L225.525 87.7687L224.791 88.0003C225.062 88.3838 225.433 88.7437 225.906 89.061L226.481 88.6779ZM225.525 87.7687L225.524 87.2254L225.181 87.2254L225.182 87.7687L225.183 88.312L225.526 88.312L225.525 87.7687ZM225.182 87.7687L225.994 87.7687L225.993 87.1056L225.181 87.1056L224.369 87.1055L224.37 87.7686L225.182 87.7687ZM225.181 87.1056L225.972 86.985C225.835 86.5844 225.835 86.1667 225.972 85.766L225.181 85.6441L224.389 85.5221C224.198 86.082 224.197 86.6655 224.389 87.2261L225.181 87.1056ZM225.181 85.6441L225.993 85.6449L225.993 79.2326L225.181 79.2318L224.369 79.231L224.369 85.6433L225.181 85.6441ZM225.181 79.2318L225.973 79.1114C225.836 78.7111 225.836 78.2943 225.972 77.8947L225.18 77.773L224.389 77.6513C224.198 78.2106 224.199 78.7929 224.39 79.3521L225.181 79.2318ZM225.18 77.773L225.992 77.7752L225.994 77.4086L225.182 77.4064L224.37 77.4042L224.368 77.7708L225.18 77.773ZM225.182 77.4064L225.181 77.9497L225.338 77.95L225.339 77.4067L225.34 76.8634L225.183 76.8631L225.182 77.4064ZM225.339 77.4067L226.104 77.5896C226.3 77.2219 226.619 76.8762 227.062 76.5805L226.489 76.1954L225.916 75.8102C225.298 76.2217 224.85 76.7063 224.574 77.2238L225.339 77.4067ZM226.489 76.1954L227.062 76.5805L284.54 38.2624L283.966 37.8772L283.393 37.492L225.916 75.8102L226.489 76.1954Z" fill="white" fill-opacity="0.25" mask="url(#path-6-inside-1_2402_6389)"/>
<rect width="77.3694" height="48.3559" rx="4.14479" transform="matrix(0.83205 -0.5547 0.830139 0.557556 223.529 75.7317)" fill="#201F2D"/>
<rect x="0.831095" y="0.00142801" width="76.3694" height="47.3559" rx="3.64479" transform="matrix(0.83205 -0.5547 0.830139 0.557556 223.667 76.1933)" stroke="white" stroke-opacity="0.1"/>
<rect opacity="0.2" width="31.9306" height="4.83729" rx="2" transform="matrix(0.83205 -0.5547 0.830139 0.557556 252.017 67.5505)" fill="#D9D9D9"/>
<rect opacity="0.1" width="25.7496" height="3.06554" rx="1.53277" transform="matrix(0.83205 -0.5547 0.830139 0.557556 272.534 83.9558)" fill="#D9D9D9"/>
<g clip-path="url(#clip0_2402_6389)">
<path fill-rule="evenodd" clip-rule="evenodd" d="M240.293 71.721C238.216 73.1053 238.212 75.3536 240.284 76.745C241.943 77.8595 244.42 78.0835 246.411 77.4213C246.632 77.318 246.59 77.1955 246.492 77.1294C246.402 77.0696 246.102 76.8744 245.788 76.6634C245.018 77.4094 244.37 77.3016 244.084 77.21C243.934 77.1658 243.418 77.0644 243.169 77.1111C242.967 77.1516 242.606 77.1604 242.916 76.9474C243.207 76.7469 243.695 76.7917 243.878 76.8203C244.784 76.9757 245.165 76.5085 245.282 76.2983C245.071 76.1127 245.006 75.9367 245.02 75.8017C244.09 76.2963 242.893 76.6616 241.459 75.6983C241.051 75.4244 240.859 75.1006 240.836 74.7646C240.705 74.7267 240.189 74.5563 239.88 74.0722C239.88 74.0722 240.097 73.7962 241.298 73.6413C241.514 73.3842 241.792 73.1429 242.111 72.9299C242.431 72.7169 242.792 72.5323 243.177 72.3885C243.409 71.5819 243.827 71.4413 243.827 71.4413C244.549 71.6498 244.802 71.9956 244.858 72.0837C245.36 72.1002 245.838 72.2266 246.251 72.5037C247.69 73.4701 247.13 74.2699 246.387 74.8903C246.641 74.8782 246.983 74.951 247.335 75.1871C247.836 75.524 248.235 75.7978 248.361 75.8828C248.46 75.949 248.647 75.9807 248.798 75.8302C249.786 74.5068 249.455 72.8452 247.801 71.7339C245.729 70.3424 242.369 70.3367 240.293 71.721Z" fill="#F7F7F8"/>
</g>
<path d="M267.382 88.176L267.518 88.267C267.835 88.4803 268.041 88.7564 268.104 89.0541C268.168 89.3519 268.086 89.6553 267.871 89.9191C267.656 90.1829 267.319 90.3931 266.911 90.5181C266.503 90.6432 266.044 90.6765 265.605 90.6131C265.166 90.5497 264.768 90.393 264.473 90.1663C264.177 89.9396 263.998 89.6551 263.964 89.3553C263.929 89.0554 264.04 88.7563 264.281 88.5024C264.521 88.2485 264.878 88.0536 265.297 87.9466" stroke="#42946E" stroke-linecap="round" stroke-linejoin="round"/>
<path d="M266.34 87.476L266.338 89.4492L265.454 89.4477" stroke="#42946E" stroke-linecap="round" stroke-linejoin="round"/>
<path d="M61.1815 80.3611L61.1815 73.9523C61.0167 73.4711 61.0167 72.9699 61.1815 72.489L61.1815 72.125L61.3402 72.125C61.5757 71.6826 61.9586 71.2676 62.4887 70.9142L119.967 32.5956C121.871 31.3258 124.956 31.3311 126.856 32.6074L160.117 54.9466C161.205 55.6778 161.669 56.6675 161.509 57.6183L161.624 57.6183L161.624 65.2171L161.537 65.2171C161.503 66.0208 161.026 66.8171 160.109 67.429L102.631 105.748C100.726 107.017 97.6416 107.012 95.7414 105.736L62.4808 83.3965C62.0751 83.1241 61.7563 82.8158 61.5241 82.487L61.1815 82.487L61.1815 81.8247C61.0166 81.3434 61.0166 80.8421 61.1815 80.3611Z" fill="#09080D"/>
<path d="M61.5266 73.8948L61.5081 73.8401C61.3682 73.4315 61.3682 73.009 61.5081 72.6008L61.5266 72.5461L61.5266 72.47L61.5481 72.47L61.6448 72.2874C61.8492 71.9033 62.1894 71.5285 62.6799 71.2014L120.158 32.8831C121.042 32.2938 122.219 31.9904 123.412 31.9924C124.606 31.9945 125.781 32.3015 126.663 32.8938L159.924 55.2336C160.93 55.9093 161.301 56.7763 161.168 57.5608L161.1 57.9641L161.279 57.9641L161.279 64.8713L161.206 64.8713L161.193 65.2024C161.164 65.8706 160.767 66.5756 159.917 67.1418L102.439 105.46C101.555 106.049 100.378 106.353 99.1848 106.351C97.9915 106.349 96.8158 106.042 95.9338 105.449L62.6731 83.1096C62.298 82.8576 62.0108 82.5775 61.8059 82.2874L61.7034 82.1418L61.5266 82.1418L61.5266 81.7668L61.5081 81.7131C61.368 81.3044 61.3681 80.8812 61.5081 80.4729L61.5266 80.4182L61.5266 73.8948Z" stroke="white" stroke-opacity="0.25" stroke-width="0.690798"/>
<rect x="0.831095" y="0.00142801" width="76.3694" height="47.3559" rx="3.64479" transform="matrix(0.83205 -0.5547 0.830139 0.557556 59.667 72.9116)" fill="#201F2D" stroke="#4E4D51"/>
<rect opacity="0.2" width="31.9306" height="4.83729" rx="2" transform="matrix(0.83205 -0.5547 0.830139 0.557556 86.0171 65.5503)" fill="#D9D9D9"/>
<rect opacity="0.1" width="25.7496" height="3.06554" rx="1.53277" transform="matrix(0.83205 -0.5547 0.830139 0.557556 106.534 81.9556)" fill="#D9D9D9"/>
<g clip-path="url(#clip1_2402_6389)">
<path fill-rule="evenodd" clip-rule="evenodd" d="M76.2928 69.7207C74.2163 71.1051 74.2124 73.3533 76.2842 74.7448C77.9434 75.8592 80.4207 76.0833 82.4115 75.421C82.6322 75.3178 82.5902 75.1952 82.4918 75.1291C82.4027 75.0693 82.1027 74.8741 81.7887 74.6632C81.0178 75.4092 80.3704 75.3013 80.0843 75.2098C79.9343 75.1656 79.4182 75.0642 79.1695 75.1109C78.9676 75.1513 78.6063 75.1601 78.9163 74.9471C79.2076 74.7467 79.6956 74.7915 79.8785 74.8201C80.7839 74.9755 81.1648 74.5083 81.2825 74.2981C81.0717 74.1125 81.0063 73.9365 81.0206 73.8015C80.0906 74.296 78.8934 74.6614 77.4591 73.698C77.0513 73.4242 76.8595 73.1004 76.8366 72.7644C76.7053 72.7265 76.1894 72.556 75.8805 72.0719C75.8805 72.0719 76.0968 71.796 77.2984 71.641C77.5147 71.3839 77.792 71.1426 78.1114 70.9296C78.4309 70.7167 78.7925 70.532 79.1776 70.3882C79.4089 69.5817 79.8268 69.4411 79.8268 69.4411C80.5491 69.6496 80.8019 69.9954 80.858 70.0834C81.3601 70.1 81.8385 70.2264 82.251 70.5034C83.69 71.4699 83.1302 72.2696 82.3877 72.8901C82.6411 72.878 82.9835 72.9508 83.3351 73.1869C83.8366 73.5237 84.235 73.7976 84.3616 73.8826C84.46 73.9487 84.6476 73.9804 84.7981 73.83C85.7858 72.5066 85.4555 70.8449 83.8009 69.7336C81.7292 68.3422 78.3693 68.3364 76.2928 69.7207Z" fill="#F7F7F8"/>
</g>
<path d="M101.382 86.1758L101.518 86.2667C101.835 86.48 102.041 86.7561 102.105 87.0539C102.168 87.3516 102.087 87.655 101.872 87.9189C101.656 88.1827 101.32 88.3928 100.911 88.5179C100.503 88.643 100.045 88.6763 99.6052 88.6129C99.1658 88.5495 98.7686 88.3927 98.4728 88.1661C98.177 87.9394 97.9985 87.6549 97.9639 87.355C97.9293 87.0552 98.0405 86.756 98.2809 86.5021C98.5212 86.2483 98.8779 86.0533 99.2977 85.9464" stroke="#42946E" stroke-linecap="round" stroke-linejoin="round"/>
<path d="M100.34 85.4758L100.338 87.4489L99.4542 87.4474" stroke="#42946E" stroke-linecap="round" stroke-linejoin="round"/>
<mask id="path-23-inside-2_2402_6389" fill="white">
<path d="M207.071 159.57C208.975 158.3 212.06 158.305 213.961 159.581L247.221 181.921C248.31 182.652 248.772 183.642 248.611 184.593L248.729 184.593L248.728 192.191L248.64 192.191C248.606 192.995 248.131 193.791 247.213 194.403L189.735 232.722C187.83 233.991 184.746 233.986 182.846 232.71L149.585 210.371C149.18 210.098 148.862 209.79 148.63 209.462L148.286 209.462L148.285 208.798C148.121 208.318 148.121 207.817 148.285 207.337L148.286 200.925C148.122 200.445 148.121 199.945 148.285 199.466L148.286 199.099L148.444 199.1C148.679 198.657 149.063 198.242 149.594 197.888L207.071 159.57Z"/>
</mask>
<path d="M207.071 159.57C208.975 158.3 212.06 158.305 213.961 159.581L247.221 181.921C248.31 182.652 248.772 183.642 248.611 184.593L248.729 184.593L248.728 192.191L248.64 192.191C248.606 192.995 248.131 193.791 247.213 194.403L189.735 232.722C187.83 233.991 184.746 233.986 182.846 232.71L149.585 210.371C149.18 210.098 148.862 209.79 148.63 209.462L148.286 209.462L148.285 208.798C148.121 208.318 148.121 207.817 148.285 207.337L148.286 200.925C148.122 200.445 148.121 199.945 148.285 199.466L148.286 199.099L148.444 199.1C148.679 198.657 149.063 198.242 149.594 197.888L207.071 159.57Z" fill="#09080D"/>
<path d="M207.071 159.57L207.644 159.955L207.071 159.57ZM213.961 159.581L214.535 159.198L214.535 159.198L213.961 159.581ZM248.611 184.593L247.804 184.531L247.702 185.139L248.616 185.136L248.611 184.593ZM248.729 184.593L249.541 184.593L249.541 184.047L248.724 184.049L248.729 184.593ZM248.728 192.191L248.727 192.734L249.54 192.736L249.54 192.192L248.728 192.191ZM248.64 192.191L248.641 191.648L247.851 191.646L247.829 192.175L248.64 192.191ZM189.735 232.722L190.308 233.107L190.308 233.107L189.735 232.722ZM149.585 210.371L149.01 210.754L149.01 210.754L149.585 210.371ZM148.63 209.462L149.364 209.23L149.144 208.918L148.629 208.918L148.63 209.462ZM148.286 209.462L147.474 209.461L147.476 210.005L148.287 210.005L148.286 209.462ZM148.285 208.798L149.097 208.798L149.097 208.737L149.077 208.678L148.285 208.798ZM148.285 207.337L149.077 207.459L149.097 207.399L149.097 207.338L148.285 207.337ZM148.286 200.925L149.098 200.925L149.098 200.864L149.077 200.804L148.286 200.925ZM148.285 199.466L149.076 199.588L149.097 199.529L149.097 199.468L148.285 199.466ZM148.286 199.099L148.287 198.556L147.477 198.555L147.474 199.097L148.286 199.099ZM148.444 199.1L148.443 199.643L149.016 199.644L149.209 199.282L148.444 199.1ZM149.594 197.888L149.02 197.503L149.594 197.888ZM207.071 159.57L207.644 159.955C209.232 158.897 211.802 158.901 213.386 159.965L213.961 159.581L214.535 159.198C212.318 157.709 208.719 157.704 206.497 159.185L207.071 159.57ZM213.961 159.581L213.386 159.965L246.647 182.304L247.221 181.921L247.796 181.537L214.535 159.198L213.961 159.581ZM247.221 181.921L246.647 182.304C247.553 182.913 247.939 183.737 247.804 184.531L248.611 184.593L249.418 184.655C249.605 183.547 249.067 182.391 247.796 181.537L247.221 181.921ZM248.611 184.593L248.616 185.136L248.733 185.136L248.729 184.593L248.724 184.049L248.606 184.05L248.611 184.593ZM248.729 184.593L247.917 184.592L247.916 192.19L248.728 192.191L249.54 192.192L249.541 184.593L248.729 184.593ZM248.728 192.191L248.729 191.648L248.641 191.648L248.64 192.191L248.639 192.734L248.727 192.734L248.728 192.191ZM248.64 192.191L247.829 192.175C247.8 192.845 247.404 193.508 246.639 194.018L247.213 194.403L247.786 194.788C248.857 194.074 249.412 193.144 249.452 192.207L248.64 192.191ZM247.213 194.403L246.639 194.018L189.161 232.337L189.735 232.722L190.308 233.107L247.786 194.788L247.213 194.403ZM189.735 232.722L189.161 232.337C187.574 233.395 185.004 233.39 183.421 232.327L182.846 232.71L182.271 233.093C184.488 234.582 188.086 234.588 190.308 233.107L189.735 232.722ZM182.846 232.71L183.421 232.327L150.16 209.988L149.585 210.371L149.01 210.754L182.271 233.093L182.846 232.71ZM149.585 210.371L150.16 209.988C149.822 209.76 149.557 209.504 149.364 209.23L148.63 209.462L147.896 209.693C148.167 210.077 148.538 210.437 149.01 210.754L149.585 210.371ZM148.63 209.462L148.629 208.918L148.285 208.918L148.286 209.462L148.287 210.005L148.631 210.005L148.63 209.462ZM148.286 209.462L149.098 209.462L149.097 208.798L148.285 208.798L147.473 208.798L147.474 209.461L148.286 209.462ZM148.285 208.798L149.077 208.678C148.939 208.277 148.94 207.86 149.077 207.459L148.285 207.337L147.494 207.215C147.302 207.775 147.302 208.358 147.494 208.919L148.285 208.798ZM148.285 207.337L149.097 207.338L149.098 200.925L148.286 200.925L147.474 200.924L147.473 207.336L148.285 207.337ZM148.286 200.925L149.077 200.804C148.94 200.404 148.94 199.987 149.076 199.588L148.285 199.466L147.493 199.344C147.302 199.903 147.303 200.486 147.494 201.045L148.286 200.925ZM148.285 199.466L149.097 199.468L149.098 199.101L148.286 199.099L147.474 199.097L147.473 199.464L148.285 199.466ZM148.286 199.099L148.285 199.643L148.443 199.643L148.444 199.1L148.445 198.556L148.287 198.556L148.286 199.099ZM148.444 199.1L149.209 199.282C149.404 198.915 149.724 198.569 150.167 198.273L149.594 197.888L149.02 197.503C148.403 197.915 147.954 198.399 147.679 198.917L148.444 199.1ZM149.594 197.888L150.167 198.273L207.644 159.955L207.071 159.57L206.497 159.185L149.02 197.503L149.594 197.888Z" fill="white" fill-opacity="0.25" mask="url(#path-23-inside-2_2402_6389)"/>
<rect x="0.831095" y="0.00142801" width="76.3694" height="47.3559" rx="3.64479" transform="matrix(0.83205 -0.5547 0.830139 0.557556 146.771 199.886)" fill="#201F2D" stroke="#4E4D51"/>
<rect opacity="0.2" width="31.9306" height="4.83729" rx="2" transform="matrix(0.83205 -0.5547 0.830139 0.557556 174.017 191.551)" fill="#D9D9D9"/>
<rect opacity="0.1" width="25.7496" height="3.06554" rx="1.53277" transform="matrix(0.83205 -0.5547 0.830139 0.557556 194.534 206.956)" fill="#D9D9D9"/>
<g clip-path="url(#clip2_2402_6389)">
<path d="M163.266 195.739C162.961 195.944 162.694 196.157 162.482 196.359C161.857 196.955 161.999 197.234 162.516 197.581L163.198 198.039L164.991 196.844L165.218 196.996L162.752 198.641C162.231 198.988 162.087 199.502 162.539 199.997C163.055 200.564 163.474 200.855 164.357 201.218C165.014 201.489 165.696 201.539 166.217 201.192L166.834 200.781L166.016 200.232C165.426 199.835 165.417 199.144 166.025 198.738L167.816 197.544C168.315 197.212 168.303 196.671 167.804 196.336L166.1 195.192C165.615 194.866 164.841 194.895 164.274 195.165C163.914 195.336 163.571 195.533 163.266 195.739V195.739ZM162.845 196.753C163.03 196.63 163.335 196.632 163.523 196.759C163.711 196.885 163.712 197.088 163.527 197.211C163.341 197.335 163.038 197.334 162.85 197.207C162.662 197.081 162.659 196.877 162.845 196.753V196.753Z" fill="url(#paint0_linear_2402_6389)"/>
<path d="M167.233 195.653L168.027 196.187C168.643 196.6 168.638 197.297 168.041 197.695L166.25 198.889C165.759 199.217 165.772 199.769 166.263 200.098L167.966 201.242C168.451 201.568 169.159 201.478 169.772 201.255C170.506 200.988 171.081 200.646 171.563 200.061C171.884 199.672 172.067 199.199 171.551 198.853L170.869 198.395L169.078 199.589L168.85 199.436L171.538 197.644C172.059 197.297 171.891 196.924 171.528 196.437C171.155 195.936 170.608 195.579 169.71 195.216C169.063 194.954 168.428 194.856 167.906 195.204L167.233 195.653L167.233 195.653ZM170.54 199.222C170.726 199.098 171.028 199.1 171.216 199.226C171.405 199.353 171.407 199.556 171.221 199.68C171.036 199.804 170.732 199.802 170.543 199.675C170.355 199.549 170.354 199.346 170.54 199.222Z" fill="url(#paint1_linear_2402_6389)"/>
</g>
<path d="M190.382 213.176L190.518 213.267C190.835 213.48 191.041 213.756 191.104 214.054C191.168 214.352 191.086 214.655 190.871 214.919C190.656 215.183 190.319 215.393 189.911 215.518C189.503 215.643 189.044 215.676 188.605 215.613C188.166 215.549 187.768 215.393 187.473 215.166C187.177 214.939 186.998 214.655 186.964 214.355C186.929 214.055 187.04 213.756 187.281 213.502C187.521 213.248 187.878 213.053 188.297 212.946" stroke="#42946E" stroke-linecap="round" stroke-linejoin="round"/>
<path d="M189.34 212.476L189.338 214.449L188.454 214.447" stroke="#42946E" stroke-linecap="round" stroke-linejoin="round"/>
<path opacity="0.5" d="M244.43 96.1741L236.154 102.873C234.747 104.012 233.93 105.726 233.93 107.537V157.422C233.93 159.451 232.904 161.342 231.204 162.449L224.93 166.536" stroke="#853BCE" stroke-dasharray="3 3"/>
<path d="M129.43 80.6741L151.35 95.8842C152.966 97.0053 153.93 98.8471 153.93 100.814V158.501C153.93 160.486 154.912 162.343 156.553 163.46L177.43 177.674" stroke="#853BCE" stroke-dasharray="3 3"/>
<path d="M141.68 89.1741L151.35 95.8842C152.966 97.0053 153.93 98.8471 153.93 100.814V129.674" stroke="url(#paint2_linear_2402_6389)" stroke-width="3" stroke-linecap="round"/>
<path opacity="0.5" d="M253.43 58.1741L189.297 15.4187C187.262 14.0621 184.607 14.0763 182.587 15.4546L142.93 42.5105" stroke="#853BCE" stroke-dasharray="3 3"/>
<path d="M221.43 36.6743L189.292 15.4001C187.259 14.0541 184.613 14.0726 182.599 15.4469L159.18 31.4243L143.43 42.1743" stroke="url(#paint3_linear_2402_6389)" stroke-width="3" stroke-linecap="round"/>
<path d="M27.4297 1.67432L57.9297 25.6743C71.7933 34.8516 79.5661 39.997 93.4297 49.1743" stroke="url(#paint4_linear_2402_6389)" stroke-width="3" stroke-linecap="round"/>
<defs>
<linearGradient id="paint0_linear_2402_6389" x1="159.627" y1="198.45" x2="167.224" y2="197.562" gradientUnits="userSpaceOnUse">
<stop stop-color="#5A9FD4"/>
<stop offset="1" stop-color="#306998"/>
</linearGradient>
<linearGradient id="paint1_linear_2402_6389" x1="171.025" y1="198.488" x2="167.583" y2="197.62" gradientUnits="userSpaceOnUse">
<stop stop-color="#FFD43B"/>
<stop offset="1" stop-color="#FFE873"/>
</linearGradient>
<linearGradient id="paint2_linear_2402_6389" x1="151.43" y1="140.674" x2="132.95" y2="132.227" gradientUnits="userSpaceOnUse">
<stop stop-color="#2C1AFB" stop-opacity="0"/>
<stop offset="1" stop-color="#F71AFB"/>
</linearGradient>
<linearGradient id="paint3_linear_2402_6389" x1="215.43" y1="37.1743" x2="170.93" y2="13.6743" gradientUnits="userSpaceOnUse">
<stop stop-color="#8145B5"/>
<stop offset="1" stop-color="#2C1AFB" stop-opacity="0"/>
</linearGradient>
<linearGradient id="paint4_linear_2402_6389" x1="87.4296" y1="49.6743" x2="42.9296" y2="26.1743" gradientUnits="userSpaceOnUse">
<stop stop-color="#8145B5"/>
<stop offset="1" stop-color="#2C1AFB" stop-opacity="0"/>
</linearGradient>
<clipPath id="clip0_2402_6389">
<rect width="9.03398" height="9.03398" fill="white" transform="matrix(0.83205 -0.5547 0.830139 0.557556 236.534 74.2266)"/>
</clipPath>
<clipPath id="clip1_2402_6389">
<rect width="9.03398" height="9.03398" fill="white" transform="matrix(0.83205 -0.5547 0.830139 0.557556 72.5344 72.2263)"/>
</clipPath>
<clipPath id="clip2_2402_6389">
<rect width="9.03398" height="9.03398" fill="white" transform="matrix(0.83205 -0.5547 0.830139 0.557556 159.534 198.226)"/>
</clipPath>
</defs>
</svg>
