<svg width="382" height="322" viewBox="0 0 382 322" fill="none" xmlns="http://www.w3.org/2000/svg">
<path d="M212.539 58.9733C214.444 57.7036 217.529 57.7088 219.429 58.9851L378.851 166.059C382.894 168.775 382.894 177.968 378.842 180.67L169.623 320.149C167.719 321.419 164.634 321.414 162.734 320.137L3.31195 213.063C-0.73088 210.348 -0.732292 201.154 3.31976 198.453L212.539 58.9733Z" fill="black" fill-opacity="0.7"/>
<path d="M215.985 58.5244C217.155 58.5264 218.299 58.8285 219.15 59.4004L378.572 166.475C380.391 167.696 381.383 170.464 381.382 173.369C381.381 176.274 380.387 179.039 378.564 180.254L169.346 319.733C168.492 320.302 167.347 320.6 166.178 320.598C165.008 320.596 163.864 320.294 163.013 319.723L3.59082 212.648C1.77196 211.427 0.779492 208.658 0.780273 205.753C0.781065 202.848 1.77482 200.084 3.59668 198.869L212.816 59.3896C213.67 58.8207 214.816 58.5224 215.985 58.5244Z" stroke="white" stroke-opacity="0.12"/>
<rect width="259.74" height="200.332" rx="4.14479" transform="matrix(0.83205 -0.5547 0.830139 0.557556 -0.128418 200.752)" fill="#181622"/>
<rect x="0.831095" y="0.00142801" width="258.74" height="199.332" rx="3.64479" transform="matrix(0.83205 -0.5547 0.830139 0.557556 0.00997868 201.214)" stroke="white" stroke-opacity="0.15"/>
<path d="M33.6117 209.362C34.0701 209.67 34.0693 210.168 33.6098 210.474C33.1502 210.78 32.406 210.779 31.9476 210.471C31.4891 210.163 31.49 209.665 31.9495 209.359C32.409 209.053 33.1532 209.054 33.6117 209.362Z" fill="white" fill-opacity="0.15"/>
<path d="M46.8939 218.283C47.3524 218.591 47.3515 219.089 46.892 219.395C46.4325 219.701 45.6883 219.7 45.2298 219.392C44.7713 219.084 44.7722 218.586 45.2317 218.28C45.6912 217.973 46.4354 217.975 46.8939 218.283Z" fill="white" fill-opacity="0.15"/>
<path d="M60.1761 227.204C60.6346 227.511 60.6337 228.009 60.1742 228.316C59.7147 228.622 58.9705 228.621 58.512 228.313C58.0536 228.005 58.0544 227.507 58.5139 227.201C58.9735 226.894 59.7177 226.896 60.1761 227.204Z" fill="white" fill-opacity="0.15"/>
<path d="M73.4584 236.124C73.9168 236.432 73.916 236.93 73.4564 237.237C72.9969 237.543 72.2527 237.542 71.7943 237.234C71.3358 236.926 71.3366 236.428 71.7962 236.122C72.2557 235.815 72.9999 235.816 73.4584 236.124Z" fill="white" fill-opacity="0.15"/>
<path d="M86.7406 245.045C87.1991 245.353 87.1982 245.851 86.7387 246.158C86.2791 246.464 85.535 246.463 85.0765 246.155C84.618 245.847 84.6189 245.349 85.0784 245.042C85.5379 244.736 86.2821 244.737 86.7406 245.045Z" fill="white" fill-opacity="0.15"/>
<path d="M100.023 253.966C100.481 254.274 100.48 254.772 100.021 255.078C99.5614 255.385 98.8172 255.384 98.3587 255.076C97.9002 254.768 97.9011 254.27 98.3606 253.963C98.8201 253.657 99.5643 253.658 100.023 253.966Z" fill="white" fill-opacity="0.15"/>
<path d="M113.305 262.887C113.764 263.195 113.763 263.693 113.303 263.999C112.844 264.306 112.099 264.304 111.641 263.997C111.182 263.689 111.183 263.191 111.643 262.884C112.102 262.578 112.847 262.579 113.305 262.887Z" fill="white" fill-opacity="0.15"/>
<path d="M126.587 271.808C127.046 272.116 127.045 272.614 126.585 272.92C126.126 273.227 125.382 273.225 124.923 272.917C124.465 272.609 124.466 272.112 124.925 271.805C125.385 271.499 126.129 271.5 126.587 271.808Z" fill="white" fill-opacity="0.15"/>
<path d="M139.869 280.729C140.328 281.037 140.327 281.535 139.868 281.841C139.408 282.148 138.664 282.146 138.205 281.838C137.747 281.53 137.748 281.032 138.207 280.726C138.667 280.42 139.411 280.421 139.869 280.729Z" fill="white" fill-opacity="0.15"/>
<path d="M153.152 289.65C153.61 289.958 153.609 290.456 153.15 290.762C152.69 291.068 151.946 291.067 151.488 290.759C151.029 290.451 151.03 289.953 151.49 289.647C151.949 289.341 152.693 289.342 153.152 289.65Z" fill="white" fill-opacity="0.15"/>
<path d="M166.434 298.571C166.892 298.879 166.892 299.377 166.432 299.683C165.973 299.989 165.228 299.988 164.77 299.68C164.311 299.372 164.312 298.874 164.772 298.568C165.231 298.262 165.975 298.263 166.434 298.571Z" fill="white" fill-opacity="0.15"/>
<path d="M33.6423 191.566C34.1007 191.874 34.0999 192.372 33.6403 192.678C33.1808 192.984 32.4366 192.983 31.9781 192.675C31.5197 192.367 31.5205 191.869 31.9801 191.563C32.4396 191.256 33.1838 191.258 33.6423 191.566Z" fill="white" fill-opacity="0.15"/>
<path d="M46.9245 200.487C47.3829 200.794 47.3821 201.292 46.9226 201.599C46.463 201.905 45.7188 201.904 45.2604 201.596C44.8019 201.288 44.8028 200.79 45.2623 200.484C45.7218 200.177 46.466 200.179 46.9245 200.487Z" fill="white" fill-opacity="0.15"/>
<path d="M60.2067 209.407C60.6652 209.715 60.6643 210.213 60.2048 210.52C59.7453 210.826 59.0011 210.825 58.5426 210.517C58.0841 210.209 58.085 209.711 58.5445 209.405C59.004 209.098 59.7482 209.099 60.2067 209.407Z" fill="white" fill-opacity="0.15"/>
<path d="M73.4889 218.328C73.9474 218.636 73.9466 219.134 73.487 219.441C73.0275 219.747 72.2833 219.746 71.8248 219.438C71.3664 219.13 71.3672 218.632 71.8267 218.325C72.2863 218.019 73.0305 218.02 73.4889 218.328Z" fill="white" fill-opacity="0.15"/>
<path d="M86.7712 227.249C87.2296 227.557 87.2288 228.055 86.7692 228.361C86.3097 228.668 85.5655 228.667 85.1071 228.359C84.6486 228.051 84.6494 227.553 85.109 227.246C85.5685 226.94 86.3127 226.941 86.7712 227.249Z" fill="white" fill-opacity="0.15"/>
<path d="M100.053 236.17C100.512 236.478 100.511 236.976 100.051 237.282C99.5919 237.589 98.8478 237.587 98.3893 237.28C97.9308 236.972 97.9317 236.474 98.3912 236.167C98.8507 235.861 99.5949 235.862 100.053 236.17Z" fill="white" fill-opacity="0.15"/>
<path d="M113.336 245.091C113.794 245.399 113.793 245.897 113.334 246.203C112.874 246.51 112.13 246.508 111.672 246.2C111.213 245.892 111.214 245.395 111.673 245.088C112.133 244.782 112.877 244.783 113.336 245.091Z" fill="white" fill-opacity="0.15"/>
<path d="M126.618 254.012C127.076 254.32 127.075 254.818 126.616 255.124C126.156 255.431 125.412 255.429 124.954 255.121C124.495 254.813 124.496 254.315 124.956 254.009C125.415 253.703 126.159 253.704 126.618 254.012Z" fill="white" fill-opacity="0.15"/>
<path d="M139.9 262.933C140.359 263.241 140.358 263.739 139.898 264.045C139.439 264.351 138.694 264.35 138.236 264.042C137.777 263.734 137.778 263.236 138.238 262.93C138.697 262.624 139.442 262.625 139.9 262.933Z" fill="white" fill-opacity="0.15"/>
<path d="M153.182 271.854C153.641 272.162 153.64 272.66 153.18 272.966C152.721 273.272 151.977 273.271 151.518 272.963C151.06 272.655 151.061 272.157 151.52 271.851C151.98 271.545 152.724 271.546 153.182 271.854Z" fill="white" fill-opacity="0.15"/>
<path d="M166.465 280.775C166.923 281.083 166.922 281.581 166.463 281.887C166.003 282.193 165.259 282.192 164.8 281.884C164.342 281.576 164.343 281.078 164.802 280.772C165.262 280.465 166.006 280.467 166.465 280.775Z" fill="white" fill-opacity="0.15"/>
<path d="M179.747 289.696C180.205 290.003 180.204 290.501 179.745 290.808C179.285 291.114 178.541 291.113 178.083 290.805C177.624 290.497 177.625 289.999 178.085 289.693C178.544 289.386 179.288 289.388 179.747 289.696Z" fill="white" fill-opacity="0.15"/>
<path d="M46.9551 182.69C47.4135 182.998 47.4127 183.496 46.9531 183.803C46.4936 184.109 45.7494 184.108 45.291 183.8C44.8325 183.492 44.8333 182.994 45.2929 182.688C45.7524 182.381 46.4966 182.382 46.9551 182.69Z" fill="white" fill-opacity="0.15"/>
<path d="M60.2373 191.611C60.6958 191.919 60.6949 192.417 60.2354 192.724C59.7758 193.03 59.0317 193.029 58.5732 192.721C58.1147 192.413 58.1156 191.915 58.5751 191.608C59.0346 191.302 59.7788 191.303 60.2373 191.611Z" fill="white" fill-opacity="0.15"/>
<path d="M73.5195 200.532C73.978 200.84 73.9771 201.338 73.5176 201.644C73.0581 201.951 72.3139 201.95 71.8554 201.642C71.3969 201.334 71.3978 200.836 71.8573 200.529C72.3168 200.223 73.061 200.224 73.5195 200.532Z" fill="white" fill-opacity="0.15"/>
<path d="M86.8017 209.453C87.2602 209.761 87.2594 210.259 86.7998 210.565C86.3403 210.872 85.5961 210.87 85.1376 210.563C84.6792 210.255 84.68 209.757 85.1395 209.45C85.5991 209.144 86.3433 209.145 86.8017 209.453Z" fill="white" fill-opacity="0.15"/>
<path d="M100.084 218.374C100.542 218.682 100.542 219.18 100.082 219.486C99.6225 219.793 98.8783 219.791 98.4199 219.483C97.9614 219.175 97.9622 218.678 98.4218 218.371C98.8813 218.065 99.6255 218.066 100.084 218.374Z" fill="white" fill-opacity="0.15"/>
<path d="M113.366 227.295C113.825 227.603 113.824 228.101 113.364 228.407C112.905 228.714 112.161 228.712 111.702 228.404C111.244 228.096 111.244 227.598 111.704 227.292C112.164 226.986 112.908 226.987 113.366 227.295Z" fill="white" fill-opacity="0.15"/>
<path d="M126.648 236.216C127.107 236.524 127.106 237.022 126.647 237.328C126.187 237.634 125.443 237.633 124.984 237.325C124.526 237.017 124.527 236.519 124.986 236.213C125.446 235.907 126.19 235.908 126.648 236.216Z" fill="white" fill-opacity="0.15"/>
<path d="M139.931 245.137C140.389 245.445 140.388 245.943 139.929 246.249C139.469 246.555 138.725 246.554 138.267 246.246C137.808 245.938 137.809 245.44 138.268 245.134C138.728 244.828 139.472 244.829 139.931 245.137Z" fill="white" fill-opacity="0.15"/>
<path d="M153.213 254.058C153.671 254.366 153.67 254.864 153.211 255.17C152.751 255.476 152.007 255.475 151.549 255.167C151.09 254.859 151.091 254.361 151.551 254.055C152.01 253.748 152.754 253.75 153.213 254.058Z" fill="white" fill-opacity="0.15"/>
<path d="M166.495 262.979C166.954 263.286 166.953 263.784 166.493 264.091C166.034 264.397 165.289 264.396 164.831 264.088C164.373 263.78 164.373 263.282 164.833 262.976C165.292 262.669 166.037 262.671 166.495 262.979Z" fill="white" fill-opacity="0.15"/>
<path d="M179.777 271.899C180.236 272.207 180.235 272.705 179.775 273.012C179.316 273.318 178.572 273.317 178.113 273.009C177.655 272.701 177.656 272.203 178.115 271.897C178.575 271.59 179.319 271.591 179.777 271.899Z" fill="white" fill-opacity="0.15"/>
<path d="M193.06 280.82C193.518 281.128 193.517 281.626 193.058 281.933C192.598 282.239 191.854 282.238 191.395 281.93C190.937 281.622 190.938 281.124 191.397 280.817C191.857 280.511 192.601 280.512 193.06 280.82Z" fill="white" fill-opacity="0.15"/>
<path d="M60.2679 173.815C60.7263 174.123 60.7255 174.621 60.2659 174.927C59.8064 175.234 59.0622 175.233 58.6038 174.925C58.1453 174.617 58.1461 174.119 58.6057 173.812C59.0652 173.506 59.8094 173.507 60.2679 173.815Z" fill="white" fill-opacity="0.15"/>
<path d="M73.5501 182.736C74.0086 183.044 74.0077 183.542 73.5482 183.848C73.0886 184.155 72.3445 184.153 71.886 183.846C71.4275 183.538 71.4284 183.04 71.8879 182.733C72.3474 182.427 73.0916 182.428 73.5501 182.736Z" fill="white" fill-opacity="0.15"/>
<path d="M86.8323 191.657C87.2908 191.965 87.2899 192.463 86.8304 192.769C86.3709 193.076 85.6267 193.074 85.1682 192.766C84.7097 192.458 84.7106 191.961 85.1701 191.654C85.6297 191.348 86.3738 191.349 86.8323 191.657Z" fill="white" fill-opacity="0.15"/>
<path d="M100.115 200.578C100.573 200.886 100.572 201.384 100.113 201.69C99.6531 201.997 98.9089 201.995 98.4504 201.687C97.992 201.379 97.9928 200.881 98.4524 200.575C98.9119 200.269 99.6561 200.27 100.115 200.578Z" fill="white" fill-opacity="0.15"/>
<path d="M113.397 209.499C113.855 209.807 113.854 210.305 113.395 210.611C112.935 210.917 112.191 210.916 111.733 210.608C111.274 210.3 111.275 209.802 111.735 209.496C112.194 209.19 112.938 209.191 113.397 209.499Z" fill="white" fill-opacity="0.15"/>
<path d="M126.679 218.42C127.137 218.728 127.137 219.226 126.677 219.532C126.218 219.838 125.473 219.837 125.015 219.529C124.556 219.221 124.557 218.723 125.017 218.417C125.476 218.111 126.221 218.112 126.679 218.42Z" fill="white" fill-opacity="0.15"/>
<path d="M139.961 227.341C140.42 227.649 140.419 228.147 139.959 228.453C139.5 228.759 138.756 228.758 138.297 228.45C137.839 228.142 137.84 227.644 138.299 227.338C138.759 227.031 139.503 227.033 139.961 227.341Z" fill="white" fill-opacity="0.15"/>
<path d="M153.243 236.262C153.702 236.569 153.701 237.067 153.242 237.374C152.782 237.68 152.038 237.679 151.579 237.371C151.121 237.063 151.122 236.565 151.581 236.259C152.041 235.952 152.785 235.954 153.243 236.262Z" fill="white" fill-opacity="0.15"/>
<path d="M166.526 245.182C166.984 245.49 166.983 245.988 166.524 246.295C166.064 246.601 165.32 246.6 164.862 246.292C164.403 245.984 164.404 245.486 164.863 245.18C165.323 244.873 166.067 244.874 166.526 245.182Z" fill="white" fill-opacity="0.15"/>
<path d="M179.808 254.103C180.266 254.411 180.266 254.909 179.806 255.216C179.346 255.522 178.602 255.521 178.144 255.213C177.685 254.905 177.686 254.407 178.146 254.1C178.605 253.794 179.349 253.795 179.808 254.103Z" fill="white" fill-opacity="0.15"/>
<path d="M193.09 263.024C193.549 263.332 193.548 263.83 193.088 264.136C192.629 264.443 191.885 264.442 191.426 264.134C190.968 263.826 190.968 263.328 191.428 263.021C191.887 262.715 192.632 262.716 193.09 263.024Z" fill="white" fill-opacity="0.15"/>
<path d="M206.372 271.945C206.831 272.253 206.83 272.751 206.37 273.057C205.911 273.364 205.167 273.362 204.708 273.055C204.25 272.747 204.251 272.249 204.71 271.942C205.17 271.636 205.914 271.637 206.372 271.945Z" fill="white" fill-opacity="0.15"/>
<path d="M73.5807 164.94C74.0391 165.248 74.0383 165.746 73.5788 166.052C73.1192 166.359 72.375 166.357 71.9166 166.049C71.4581 165.741 71.4589 165.244 71.9185 164.937C72.378 164.631 73.1222 164.632 73.5807 164.94Z" fill="white" fill-opacity="0.15"/>
<path d="M86.8629 173.861C87.3214 174.169 87.3205 174.667 86.861 174.973C86.4015 175.28 85.6573 175.278 85.1988 174.97C84.7403 174.662 84.7412 174.164 85.2007 173.858C85.6602 173.552 86.4044 173.553 86.8629 173.861Z" fill="white" fill-opacity="0.15"/>
<path d="M100.145 182.782C100.604 183.09 100.603 183.588 100.143 183.894C99.6837 184.2 98.9395 184.199 98.481 183.891C98.0225 183.583 98.0234 183.085 98.4829 182.779C98.9425 182.473 99.6867 182.474 100.145 182.782Z" fill="white" fill-opacity="0.15"/>
<path d="M113.427 191.703C113.886 192.011 113.885 192.509 113.425 192.815C112.966 193.121 112.222 193.12 111.763 192.812C111.305 192.504 111.306 192.006 111.765 191.7C112.225 191.394 112.969 191.395 113.427 191.703Z" fill="white" fill-opacity="0.15"/>
<path d="M126.71 200.624C127.168 200.932 127.167 201.43 126.708 201.736C126.248 202.042 125.504 202.041 125.045 201.733C124.587 201.425 124.588 200.927 125.047 200.621C125.507 200.314 126.251 200.316 126.71 200.624Z" fill="white" fill-opacity="0.15"/>
<path d="M139.992 209.545C140.45 209.852 140.449 210.35 139.99 210.657C139.53 210.963 138.786 210.962 138.328 210.654C137.869 210.346 137.87 209.848 138.33 209.542C138.789 209.235 139.533 209.237 139.992 209.545Z" fill="white" fill-opacity="0.15"/>
<path d="M153.274 218.465C153.733 218.773 153.732 219.271 153.272 219.578C152.813 219.884 152.068 219.883 151.61 219.575C151.151 219.267 151.152 218.769 151.612 218.463C152.071 218.156 152.816 218.157 153.274 218.465Z" fill="white" fill-opacity="0.15"/>
<path d="M166.556 227.386C167.015 227.694 167.014 228.192 166.554 228.499C166.095 228.805 165.351 228.804 164.892 228.496C164.434 228.188 164.435 227.69 164.894 227.383C165.354 227.077 166.098 227.078 166.556 227.386Z" fill="white" fill-opacity="0.15"/>
<path d="M179.838 236.307C180.297 236.615 180.296 237.113 179.837 237.419C179.377 237.726 178.633 237.725 178.174 237.417C177.716 237.109 177.717 236.611 178.176 236.304C178.636 235.998 179.38 235.999 179.838 236.307Z" fill="white" fill-opacity="0.15"/>
<path d="M193.121 245.228C193.579 245.536 193.578 246.034 193.119 246.34C192.659 246.647 191.915 246.645 191.457 246.338C190.998 246.03 190.999 245.532 191.459 245.225C191.918 244.919 192.662 244.92 193.121 245.228Z" fill="white" fill-opacity="0.15"/>
<path d="M206.403 254.149C206.861 254.457 206.861 254.955 206.401 255.261C205.942 255.568 205.197 255.566 204.739 255.258C204.28 254.95 204.281 254.453 204.741 254.146C205.2 253.84 205.944 253.841 206.403 254.149Z" fill="white" fill-opacity="0.15"/>
<path d="M219.685 263.07C220.144 263.378 220.143 263.876 219.683 264.182C219.224 264.489 218.48 264.487 218.021 264.179C217.563 263.871 217.563 263.373 218.023 263.067C218.483 262.761 219.227 262.762 219.685 263.07Z" fill="white" fill-opacity="0.15"/>
<path d="M86.8935 156.065C87.3519 156.373 87.3511 156.871 86.8916 157.177C86.432 157.483 85.6878 157.482 85.2294 157.174C84.7709 156.866 84.7718 156.368 85.2313 156.062C85.6908 155.756 86.435 155.757 86.8935 156.065Z" fill="white" fill-opacity="0.15"/>
<path d="M100.176 164.986C100.634 165.294 100.633 165.792 100.174 166.098C99.7143 166.404 98.9701 166.403 98.5116 166.095C98.0531 165.787 98.054 165.289 98.5135 164.983C98.973 164.677 99.7172 164.678 100.176 164.986Z" fill="white" fill-opacity="0.15"/>
<path d="M113.458 173.907C113.916 174.215 113.916 174.713 113.456 175.019C112.996 175.325 112.252 175.324 111.794 175.016C111.335 174.708 111.336 174.21 111.796 173.904C112.255 173.597 112.999 173.599 113.458 173.907Z" fill="white" fill-opacity="0.15"/>
<path d="M126.74 182.828C127.199 183.135 127.198 183.633 126.738 183.94C126.279 184.246 125.535 184.245 125.076 183.937C124.618 183.629 124.618 183.131 125.078 182.825C125.537 182.518 126.282 182.52 126.74 182.828Z" fill="white" fill-opacity="0.15"/>
<path d="M140.022 191.748C140.481 192.056 140.48 192.554 140.02 192.861C139.561 193.167 138.817 193.166 138.358 192.858C137.9 192.55 137.901 192.052 138.36 191.746C138.82 191.439 139.564 191.44 140.022 191.748Z" fill="white" fill-opacity="0.15"/>
<path d="M153.305 200.669C153.763 200.977 153.762 201.475 153.303 201.782C152.843 202.088 152.099 202.087 151.641 201.779C151.182 201.471 151.183 200.973 151.642 200.666C152.102 200.36 152.846 200.361 153.305 200.669Z" fill="white" fill-opacity="0.15"/>
<path d="M166.587 209.59C167.045 209.898 167.044 210.396 166.585 210.702C166.125 211.009 165.381 211.008 164.923 210.7C164.464 210.392 164.465 209.894 164.925 209.587C165.384 209.281 166.128 209.282 166.587 209.59Z" fill="white" fill-opacity="0.15"/>
<path d="M179.869 218.511C180.328 218.819 180.327 219.317 179.867 219.623C179.408 219.93 178.663 219.928 178.205 219.621C177.746 219.313 177.747 218.815 178.207 218.508C178.666 218.202 179.411 218.203 179.869 218.511Z" fill="white" fill-opacity="0.15"/>
<path d="M193.151 227.432C193.61 227.74 193.609 228.238 193.149 228.544C192.69 228.851 191.946 228.849 191.487 228.541C191.029 228.233 191.03 227.736 191.489 227.429C191.949 227.123 192.693 227.124 193.151 227.432Z" fill="white" fill-opacity="0.15"/>
<path d="M206.434 236.353C206.892 236.661 206.891 237.159 206.432 237.465C205.972 237.772 205.228 237.77 204.769 237.462C204.311 237.154 204.312 236.656 204.771 236.35C205.231 236.044 205.975 236.045 206.434 236.353Z" fill="white" fill-opacity="0.15"/>
<path d="M219.716 245.274C220.174 245.582 220.173 246.08 219.714 246.386C219.254 246.692 218.51 246.691 218.052 246.383C217.593 246.075 217.594 245.577 218.054 245.271C218.513 244.965 219.257 244.966 219.716 245.274Z" fill="white" fill-opacity="0.15"/>
<path d="M232.998 254.195C233.456 254.503 233.456 255.001 232.996 255.307C232.537 255.613 231.792 255.612 231.334 255.304C230.875 254.996 230.876 254.498 231.336 254.192C231.795 253.886 232.54 253.887 232.998 254.195Z" fill="white" fill-opacity="0.15"/>
<path d="M100.206 147.19C100.665 147.498 100.664 147.996 100.204 148.302C99.7448 148.608 99.0006 148.607 98.5422 148.299C98.0837 147.991 98.0846 147.493 98.5441 147.187C99.0036 146.88 99.7478 146.882 100.206 147.19Z" fill="white" fill-opacity="0.15"/>
<path d="M113.489 156.111C113.947 156.418 113.946 156.916 113.487 157.223C113.027 157.529 112.283 157.528 111.824 157.22C111.366 156.912 111.367 156.414 111.826 156.108C112.286 155.801 113.03 155.803 113.489 156.111Z" fill="white" fill-opacity="0.15"/>
<path d="M126.771 165.031C127.229 165.339 127.228 165.837 126.769 166.144C126.309 166.45 125.565 166.449 125.107 166.141C124.648 165.833 124.649 165.335 125.109 165.029C125.568 164.722 126.312 164.723 126.771 165.031Z" fill="white" fill-opacity="0.15"/>
<path d="M140.053 173.952C140.511 174.26 140.511 174.758 140.051 175.065C139.592 175.371 138.847 175.37 138.389 175.062C137.93 174.754 137.931 174.256 138.391 173.949C138.85 173.643 139.594 173.644 140.053 173.952Z" fill="white" fill-opacity="0.15"/>
<path d="M153.335 182.873C153.794 183.181 153.793 183.679 153.333 183.985C152.874 184.292 152.13 184.291 151.671 183.983C151.213 183.675 151.213 183.177 151.673 182.87C152.133 182.564 152.877 182.565 153.335 182.873Z" fill="white" fill-opacity="0.15"/>
<path d="M166.617 191.794C167.076 192.102 167.075 192.6 166.616 192.906C166.156 193.213 165.412 193.211 164.953 192.904C164.495 192.596 164.496 192.098 164.955 191.791C165.415 191.485 166.159 191.486 166.617 191.794Z" fill="white" fill-opacity="0.15"/>
<path d="M179.9 200.715C180.358 201.023 180.357 201.521 179.898 201.827C179.438 202.134 178.694 202.132 178.236 201.824C177.777 201.516 177.778 201.019 178.237 200.712C178.697 200.406 179.441 200.407 179.9 200.715Z" fill="white" fill-opacity="0.15"/>
<path d="M193.182 209.636C193.64 209.944 193.639 210.442 193.18 210.748C192.72 211.055 191.976 211.053 191.518 210.745C191.059 210.437 191.06 209.939 191.52 209.633C191.979 209.327 192.723 209.328 193.182 209.636Z" fill="white" fill-opacity="0.15"/>
<path d="M206.464 218.557C206.923 218.865 206.922 219.363 206.462 219.669C206.003 219.975 205.258 219.974 204.8 219.666C204.342 219.358 204.342 218.86 204.802 218.554C205.261 218.248 206.006 218.249 206.464 218.557Z" fill="white" fill-opacity="0.15"/>
<path d="M219.746 227.478C220.205 227.786 220.204 228.284 219.744 228.59C219.285 228.896 218.541 228.895 218.082 228.587C217.624 228.279 217.625 227.781 218.084 227.475C218.544 227.168 219.288 227.17 219.746 227.478Z" fill="white" fill-opacity="0.15"/>
<path d="M233.029 236.399C233.487 236.707 233.486 237.205 233.027 237.511C232.567 237.817 231.823 237.816 231.364 237.508C230.906 237.2 230.907 236.702 231.366 236.396C231.826 236.089 232.57 236.091 233.029 236.399Z" fill="white" fill-opacity="0.15"/>
<path d="M246.311 245.32C246.769 245.627 246.768 246.125 246.309 246.432C245.849 246.738 245.105 246.737 244.647 246.429C244.188 246.121 244.189 245.623 244.649 245.317C245.108 245.01 245.852 245.012 246.311 245.32Z" fill="white" fill-opacity="0.15"/>
<path d="M113.519 138.314C113.978 138.622 113.977 139.12 113.517 139.427C113.058 139.733 112.313 139.732 111.855 139.424C111.397 139.116 111.397 138.618 111.857 138.312C112.316 138.005 113.061 138.006 113.519 138.314Z" fill="white" fill-opacity="0.15"/>
<path d="M126.801 147.235C127.26 147.543 127.259 148.041 126.799 148.348C126.34 148.654 125.596 148.653 125.137 148.345C124.679 148.037 124.68 147.539 125.139 147.232C125.599 146.926 126.343 146.927 126.801 147.235Z" fill="white" fill-opacity="0.15"/>
<path d="M140.084 156.156C140.542 156.464 140.541 156.962 140.082 157.268C139.622 157.575 138.878 157.574 138.419 157.266C137.961 156.958 137.962 156.46 138.421 156.153C138.881 155.847 139.625 155.848 140.084 156.156Z" fill="white" fill-opacity="0.15"/>
<path d="M153.366 165.077C153.824 165.385 153.823 165.883 153.364 166.189C152.904 166.496 152.16 166.494 151.702 166.187C151.243 165.879 151.244 165.381 151.704 165.074C152.163 164.768 152.907 164.769 153.366 165.077Z" fill="white" fill-opacity="0.15"/>
<path d="M166.648 173.998C167.106 174.306 167.106 174.804 166.646 175.11C166.187 175.417 165.442 175.415 164.984 175.107C164.525 174.799 164.526 174.302 164.986 173.995C165.445 173.689 166.19 173.69 166.648 173.998Z" fill="white" fill-opacity="0.15"/>
<path d="M179.93 182.919C180.389 183.227 180.388 183.725 179.928 184.031C179.469 184.338 178.725 184.336 178.266 184.028C177.808 183.72 177.809 183.222 178.268 182.916C178.728 182.61 179.472 182.611 179.93 182.919Z" fill="white" fill-opacity="0.15"/>
<path d="M193.212 191.84C193.671 192.148 193.67 192.646 193.211 192.952C192.751 193.258 192.007 193.257 191.548 192.949C191.09 192.641 191.091 192.143 191.55 191.837C192.01 191.531 192.754 191.532 193.212 191.84Z" fill="white" fill-opacity="0.15"/>
<path d="M206.495 200.761C206.953 201.069 206.952 201.567 206.493 201.873C206.033 202.179 205.289 202.178 204.831 201.87C204.372 201.562 204.373 201.064 204.832 200.758C205.292 200.451 206.036 200.453 206.495 200.761Z" fill="white" fill-opacity="0.15"/>
<path d="M219.777 209.682C220.235 209.99 220.235 210.488 219.775 210.794C219.315 211.1 218.571 211.099 218.113 210.791C217.654 210.483 217.655 209.985 218.115 209.679C218.574 209.372 219.318 209.374 219.777 209.682Z" fill="white" fill-opacity="0.15"/>
<path d="M233.059 218.603C233.518 218.91 233.517 219.408 233.057 219.715C232.598 220.021 231.854 220.02 231.395 219.712C230.937 219.404 230.937 218.906 231.397 218.6C231.856 218.293 232.601 218.295 233.059 218.603Z" fill="white" fill-opacity="0.15"/>
<path d="M246.341 227.523C246.8 227.831 246.799 228.329 246.339 228.636C245.88 228.942 245.136 228.941 244.677 228.633C244.219 228.325 244.22 227.827 244.679 227.521C245.139 227.214 245.883 227.215 246.341 227.523Z" fill="white" fill-opacity="0.15"/>
<path d="M259.624 236.444C260.082 236.752 260.081 237.25 259.622 237.557C259.162 237.863 258.418 237.862 257.959 237.554C257.501 237.246 257.502 236.748 257.961 236.441C258.421 236.135 259.165 236.136 259.624 236.444Z" fill="white" fill-opacity="0.15"/>
<path d="M126.832 129.439C127.29 129.747 127.29 130.245 126.83 130.551C126.37 130.858 125.626 130.857 125.168 130.549C124.709 130.241 124.71 129.743 125.17 129.436C125.629 129.13 126.373 129.131 126.832 129.439Z" fill="white" fill-opacity="0.15"/>
<path d="M140.114 138.36C140.573 138.668 140.572 139.166 140.112 139.472C139.653 139.779 138.908 139.777 138.45 139.47C137.992 139.162 137.992 138.664 138.452 138.357C138.911 138.051 139.656 138.052 140.114 138.36Z" fill="white" fill-opacity="0.15"/>
<path d="M153.396 147.281C153.855 147.589 153.854 148.087 153.394 148.393C152.935 148.7 152.191 148.698 151.732 148.39C151.274 148.082 151.275 147.585 151.734 147.278C152.194 146.972 152.938 146.973 153.396 147.281Z" fill="white" fill-opacity="0.15"/>
<path d="M166.679 156.202C167.137 156.51 167.136 157.008 166.677 157.314C166.217 157.621 165.473 157.619 165.014 157.311C164.556 157.003 164.557 156.505 165.016 156.199C165.476 155.893 166.22 155.894 166.679 156.202Z" fill="white" fill-opacity="0.15"/>
<path d="M179.961 165.123C180.419 165.431 180.418 165.929 179.959 166.235C179.499 166.541 178.755 166.54 178.297 166.232C177.838 165.924 177.839 165.426 178.299 165.12C178.758 164.814 179.502 164.815 179.961 165.123Z" fill="white" fill-opacity="0.15"/>
<path d="M193.243 174.044C193.701 174.352 193.701 174.85 193.241 175.156C192.782 175.462 192.037 175.461 191.579 175.153C191.12 174.845 191.121 174.347 191.581 174.041C192.04 173.734 192.785 173.736 193.243 174.044Z" fill="white" fill-opacity="0.15"/>
<path d="M206.525 182.965C206.984 183.273 206.983 183.771 206.523 184.077C206.064 184.383 205.32 184.382 204.861 184.074C204.403 183.766 204.404 183.268 204.863 182.962C205.323 182.655 206.067 182.657 206.525 182.965Z" fill="white" fill-opacity="0.15"/>
<path d="M219.807 191.886C220.266 192.193 220.265 192.691 219.806 192.998C219.346 193.304 218.602 193.303 218.143 192.995C217.685 192.687 217.686 192.189 218.145 191.883C218.605 191.576 219.349 191.578 219.807 191.886Z" fill="white" fill-opacity="0.15"/>
<path d="M233.09 200.806C233.548 201.114 233.547 201.612 233.088 201.919C232.628 202.225 231.884 202.224 231.426 201.916C230.967 201.608 230.968 201.11 231.428 200.804C231.887 200.497 232.631 200.498 233.09 200.806Z" fill="white" fill-opacity="0.15"/>
<path d="M246.372 209.727C246.83 210.035 246.83 210.533 246.37 210.84C245.91 211.146 245.166 211.145 244.708 210.837C244.249 210.529 244.25 210.031 244.71 209.724C245.169 209.418 245.913 209.419 246.372 209.727Z" fill="white" fill-opacity="0.15"/>
<path d="M259.654 218.648C260.113 218.956 260.112 219.454 259.652 219.76C259.193 220.067 258.449 220.066 257.99 219.758C257.532 219.45 257.532 218.952 257.992 218.645C258.452 218.339 259.196 218.34 259.654 218.648Z" fill="white" fill-opacity="0.15"/>
<path d="M272.936 227.569C273.395 227.877 273.394 228.375 272.934 228.681C272.475 228.988 271.731 228.986 271.272 228.679C270.814 228.371 270.815 227.873 271.274 227.566C271.734 227.26 272.478 227.261 272.936 227.569Z" fill="white" fill-opacity="0.15"/>
<path d="M140.145 120.564C140.603 120.872 140.602 121.37 140.143 121.676C139.683 121.983 138.939 121.981 138.481 121.673C138.022 121.365 138.023 120.867 138.483 120.561C138.942 120.255 139.686 120.256 140.145 120.564Z" fill="white" fill-opacity="0.15"/>
<path d="M153.427 129.485C153.885 129.793 153.885 130.291 153.425 130.597C152.965 130.904 152.221 130.902 151.763 130.594C151.304 130.286 151.305 129.788 151.765 129.482C152.224 129.176 152.968 129.177 153.427 129.485Z" fill="white" fill-opacity="0.15"/>
<path d="M166.709 138.406C167.168 138.714 167.167 139.212 166.707 139.518C166.248 139.824 165.504 139.823 165.045 139.515C164.587 139.207 164.587 138.709 165.047 138.403C165.506 138.097 166.251 138.098 166.709 138.406Z" fill="white" fill-opacity="0.15"/>
<path d="M179.991 147.327C180.45 147.635 180.449 148.133 179.989 148.439C179.53 148.745 178.786 148.744 178.327 148.436C177.869 148.128 177.87 147.63 178.329 147.324C178.789 147.017 179.533 147.019 179.991 147.327Z" fill="white" fill-opacity="0.15"/>
<path d="M193.274 156.248C193.732 156.556 193.731 157.054 193.272 157.36C192.812 157.666 192.068 157.665 191.61 157.357C191.151 157.049 191.152 156.551 191.611 156.245C192.071 155.938 192.815 155.94 193.274 156.248Z" fill="white" fill-opacity="0.15"/>
<path d="M206.556 165.169C207.014 165.476 207.013 165.974 206.554 166.281C206.094 166.587 205.35 166.586 204.892 166.278C204.433 165.97 204.434 165.472 204.894 165.166C205.353 164.859 206.097 164.861 206.556 165.169Z" fill="white" fill-opacity="0.15"/>
<path d="M219.838 174.089C220.297 174.397 220.296 174.895 219.836 175.202C219.377 175.508 218.632 175.507 218.174 175.199C217.715 174.891 217.716 174.393 218.176 174.087C218.635 173.78 219.38 173.781 219.838 174.089Z" fill="white" fill-opacity="0.15"/>
<path d="M233.12 183.01C233.579 183.318 233.578 183.816 233.118 184.123C232.659 184.429 231.915 184.428 231.456 184.12C230.998 183.812 230.999 183.314 231.458 183.007C231.918 182.701 232.662 182.702 233.12 183.01Z" fill="white" fill-opacity="0.15"/>
<path d="M246.403 191.931C246.861 192.239 246.86 192.737 246.401 193.043C245.941 193.35 245.197 193.349 244.738 193.041C244.28 192.733 244.281 192.235 244.74 191.928C245.2 191.622 245.944 191.623 246.403 191.931Z" fill="white" fill-opacity="0.15"/>
<path d="M259.685 200.852C260.143 201.16 260.142 201.658 259.683 201.964C259.223 202.271 258.479 202.269 258.021 201.961C257.562 201.654 257.563 201.156 258.023 200.849C258.482 200.543 259.226 200.544 259.685 200.852Z" fill="white" fill-opacity="0.15"/>
<path d="M272.967 209.773C273.425 210.081 273.425 210.579 272.965 210.885C272.506 211.192 271.761 211.19 271.303 210.882C270.844 210.574 270.845 210.076 271.305 209.77C271.764 209.464 272.508 209.465 272.967 209.773Z" fill="white" fill-opacity="0.15"/>
<path d="M286.249 218.694C286.708 219.002 286.707 219.5 286.247 219.806C285.788 220.113 285.044 220.111 284.585 219.803C284.127 219.495 284.127 218.997 284.587 218.691C285.047 218.385 285.791 218.386 286.249 218.694Z" fill="white" fill-opacity="0.15"/>
<path d="M153.457 111.689C153.916 111.997 153.915 112.495 153.456 112.801C152.996 113.107 152.252 113.106 151.793 112.798C151.335 112.49 151.336 111.992 151.795 111.686C152.255 111.38 152.999 111.381 153.457 111.689Z" fill="white" fill-opacity="0.15"/>
<path d="M166.74 120.61C167.198 120.918 167.197 121.416 166.738 121.722C166.278 122.028 165.534 122.027 165.076 121.719C164.617 121.411 164.618 120.913 165.078 120.607C165.537 120.3 166.281 120.302 166.74 120.61Z" fill="white" fill-opacity="0.15"/>
<path d="M180.022 129.531C180.48 129.839 180.48 130.337 180.02 130.643C179.561 130.949 178.816 130.948 178.358 130.64C177.899 130.332 177.9 129.834 178.36 129.528C178.819 129.221 179.563 129.223 180.022 129.531Z" fill="white" fill-opacity="0.15"/>
<path d="M193.304 138.452C193.763 138.759 193.762 139.257 193.302 139.564C192.843 139.87 192.099 139.869 191.64 139.561C191.182 139.253 191.182 138.755 191.642 138.449C192.102 138.142 192.846 138.144 193.304 138.452Z" fill="white" fill-opacity="0.15"/>
<path d="M206.586 147.372C207.045 147.68 207.044 148.178 206.584 148.485C206.125 148.791 205.381 148.79 204.922 148.482C204.464 148.174 204.465 147.676 204.924 147.37C205.384 147.063 206.128 147.064 206.586 147.372Z" fill="white" fill-opacity="0.15"/>
<path d="M219.869 156.293C220.327 156.601 220.326 157.099 219.867 157.406C219.407 157.712 218.663 157.711 218.205 157.403C217.746 157.095 217.747 156.597 218.206 156.29C218.666 155.984 219.41 155.985 219.869 156.293Z" fill="white" fill-opacity="0.15"/>
<path d="M233.151 165.214C233.609 165.522 233.608 166.02 233.149 166.326C232.689 166.633 231.945 166.632 231.487 166.324C231.028 166.016 231.029 165.518 231.489 165.211C231.948 164.905 232.692 164.906 233.151 165.214Z" fill="white" fill-opacity="0.15"/>
<path d="M246.433 174.135C246.892 174.443 246.891 174.941 246.431 175.247C245.972 175.554 245.227 175.552 244.769 175.244C244.311 174.937 244.311 174.439 244.771 174.132C245.23 173.826 245.975 173.827 246.433 174.135Z" fill="white" fill-opacity="0.15"/>
<path d="M259.715 183.056C260.174 183.364 260.173 183.862 259.713 184.168C259.254 184.475 258.51 184.473 258.051 184.165C257.593 183.857 257.594 183.359 258.053 183.053C258.513 182.747 259.257 182.748 259.715 183.056Z" fill="white" fill-opacity="0.15"/>
<path d="M272.998 191.977C273.456 192.285 273.455 192.783 272.996 193.089C272.536 193.396 271.792 193.394 271.333 193.086C270.875 192.778 270.876 192.28 271.335 191.974C271.795 191.668 272.539 191.669 272.998 191.977Z" fill="white" fill-opacity="0.15"/>
<path d="M286.28 200.898C286.738 201.206 286.737 201.704 286.278 202.01C285.818 202.316 285.074 202.315 284.616 202.007C284.157 201.699 284.158 201.201 284.618 200.895C285.077 200.589 285.821 200.59 286.28 200.898Z" fill="white" fill-opacity="0.15"/>
<path d="M299.562 209.819C300.02 210.127 300.02 210.625 299.56 210.931C299.101 211.237 298.356 211.236 297.898 210.928C297.439 210.62 297.44 210.122 297.9 209.816C298.359 209.509 299.104 209.511 299.562 209.819Z" fill="white" fill-opacity="0.15"/>
<path d="M166.77 102.814C167.229 103.122 167.228 103.62 166.768 103.926C166.309 104.232 165.565 104.231 165.106 103.923C164.648 103.615 164.649 103.117 165.108 102.811C165.568 102.504 166.312 102.506 166.77 102.814Z" fill="white" fill-opacity="0.15"/>
<path d="M180.053 111.734C180.511 112.042 180.51 112.54 180.051 112.847C179.591 113.153 178.847 113.152 178.388 112.844C177.93 112.536 177.931 112.038 178.39 111.732C178.85 111.425 179.594 111.427 180.053 111.734Z" fill="white" fill-opacity="0.15"/>
<path d="M193.335 120.655C193.793 120.963 193.792 121.461 193.333 121.768C192.873 122.074 192.129 122.073 191.671 121.765C191.212 121.457 191.213 120.959 191.673 120.653C192.132 120.346 192.876 120.347 193.335 120.655Z" fill="white" fill-opacity="0.15"/>
<path d="M206.617 129.576C207.075 129.884 207.075 130.382 206.615 130.689C206.156 130.995 205.411 130.994 204.953 130.686C204.494 130.378 204.495 129.88 204.955 129.573C205.414 129.267 206.159 129.268 206.617 129.576Z" fill="white" fill-opacity="0.15"/>
<path d="M219.899 138.497C220.358 138.805 220.357 139.303 219.897 139.609C219.438 139.916 218.694 139.915 218.235 139.607C217.777 139.299 217.777 138.801 218.237 138.494C218.697 138.188 219.441 138.189 219.899 138.497Z" fill="white" fill-opacity="0.15"/>
<path d="M233.181 147.418C233.64 147.726 233.639 148.224 233.18 148.53C232.72 148.837 231.976 148.835 231.517 148.527C231.059 148.22 231.06 147.722 231.519 147.415C231.979 147.109 232.723 147.11 233.181 147.418Z" fill="white" fill-opacity="0.15"/>
<path d="M246.464 156.339C246.922 156.647 246.921 157.145 246.462 157.451C246.002 157.758 245.258 157.756 244.8 157.448C244.341 157.14 244.342 156.642 244.801 156.336C245.261 156.03 246.005 156.031 246.464 156.339Z" fill="white" fill-opacity="0.15"/>
<path d="M259.746 165.26C260.204 165.568 260.204 166.066 259.744 166.372C259.284 166.679 258.54 166.677 258.082 166.369C257.623 166.061 257.624 165.563 258.084 165.257C258.543 164.951 259.287 164.952 259.746 165.26Z" fill="white" fill-opacity="0.15"/>
<path d="M273.028 174.181C273.487 174.489 273.486 174.987 273.026 175.293C272.567 175.599 271.822 175.598 271.364 175.29C270.906 174.982 270.906 174.484 271.366 174.178C271.825 173.872 272.57 173.873 273.028 174.181Z" fill="white" fill-opacity="0.15"/>
<path d="M286.31 183.102C286.769 183.41 286.768 183.908 286.308 184.214C285.849 184.52 285.105 184.519 284.646 184.211C284.188 183.903 284.189 183.405 284.648 183.099C285.108 182.792 285.852 182.794 286.31 183.102Z" fill="white" fill-opacity="0.15"/>
<path d="M299.593 192.023C300.051 192.331 300.05 192.828 299.591 193.135C299.131 193.441 298.387 193.44 297.928 193.132C297.47 192.824 297.471 192.326 297.93 192.02C298.39 191.713 299.134 191.715 299.593 192.023Z" fill="white" fill-opacity="0.15"/>
<path d="M312.875 200.943C313.333 201.251 313.332 201.749 312.873 202.056C312.413 202.362 311.669 202.361 311.211 202.053C310.752 201.745 310.753 201.247 311.213 200.941C311.672 200.634 312.416 200.636 312.875 200.943Z" fill="white" fill-opacity="0.15"/>
<path d="M180.083 93.9384C180.542 94.2463 180.541 94.7443 180.081 95.0507C179.622 95.357 178.877 95.3557 178.419 95.0478C177.961 94.7399 177.961 94.2419 178.421 93.9355C178.88 93.6292 179.625 93.6305 180.083 93.9384Z" fill="white" fill-opacity="0.15"/>
<path d="M193.365 102.859C193.824 103.167 193.823 103.665 193.363 103.972C192.904 104.278 192.16 104.277 191.701 103.969C191.243 103.661 191.244 103.163 191.703 102.856C192.163 102.55 192.907 102.551 193.365 102.859Z" fill="white" fill-opacity="0.15"/>
<path d="M206.648 111.78C207.106 112.088 207.105 112.586 206.646 112.892C206.186 113.199 205.442 113.198 204.983 112.89C204.525 112.582 204.526 112.084 204.985 111.777C205.445 111.471 206.189 111.472 206.648 111.78Z" fill="white" fill-opacity="0.15"/>
<path d="M219.93 120.701C220.388 121.009 220.387 121.507 219.928 121.813C219.468 122.12 218.724 122.118 218.266 121.81C217.807 121.503 217.808 121.005 218.268 120.698C218.727 120.392 219.471 120.393 219.93 120.701Z" fill="white" fill-opacity="0.15"/>
<path d="M233.212 129.622C233.67 129.93 233.67 130.428 233.21 130.734C232.751 131.041 232.006 131.039 231.548 130.731C231.089 130.423 231.09 129.925 231.55 129.619C232.009 129.313 232.754 129.314 233.212 129.622Z" fill="white" fill-opacity="0.15"/>
<path d="M246.494 138.543C246.953 138.851 246.952 139.349 246.492 139.655C246.033 139.961 245.289 139.96 244.83 139.652C244.372 139.344 244.373 138.846 244.832 138.54C245.292 138.234 246.036 138.235 246.494 138.543Z" fill="white" fill-opacity="0.15"/>
<path d="M259.776 147.464C260.235 147.772 260.234 148.27 259.775 148.576C259.315 148.882 258.571 148.881 258.112 148.573C257.654 148.265 257.655 147.767 258.114 147.461C258.574 147.155 259.318 147.156 259.776 147.464Z" fill="white" fill-opacity="0.15"/>
<path d="M273.059 156.385C273.517 156.693 273.516 157.191 273.057 157.497C272.597 157.803 271.853 157.802 271.395 157.494C270.936 157.186 270.937 156.688 271.397 156.382C271.856 156.075 272.6 156.077 273.059 156.385Z" fill="white" fill-opacity="0.15"/>
<path d="M286.341 165.306C286.799 165.614 286.799 166.111 286.339 166.418C285.879 166.724 285.135 166.723 284.677 166.415C284.218 166.107 284.219 165.609 284.679 165.303C285.138 164.996 285.882 164.998 286.341 165.306Z" fill="white" fill-opacity="0.15"/>
<path d="M299.623 174.226C300.082 174.534 300.081 175.032 299.621 175.339C299.162 175.645 298.418 175.644 297.959 175.336C297.501 175.028 297.501 174.53 297.961 174.224C298.42 173.917 299.165 173.919 299.623 174.226Z" fill="white" fill-opacity="0.15"/>
<path d="M312.905 183.147C313.364 183.455 313.363 183.953 312.903 184.26C312.444 184.566 311.7 184.565 311.241 184.257C310.783 183.949 310.784 183.451 311.243 183.145C311.703 182.838 312.447 182.839 312.905 183.147Z" fill="white" fill-opacity="0.15"/>
<path d="M326.188 192.068C326.646 192.376 326.645 192.874 326.186 193.181C325.726 193.487 324.982 193.486 324.524 193.178C324.065 192.87 324.066 192.372 324.525 192.065C324.985 191.759 325.729 191.76 326.188 192.068Z" fill="white" fill-opacity="0.15"/>
<path d="M193.396 85.0632C193.854 85.3711 193.854 85.8691 193.394 86.1754C192.934 86.4818 192.19 86.4805 191.732 86.1726C191.273 85.8647 191.274 85.3667 191.734 85.0603C192.193 84.754 192.937 84.7553 193.396 85.0632Z" fill="white" fill-opacity="0.15"/>
<path d="M206.678 93.9841C207.137 94.292 207.136 94.79 206.676 95.0963C206.217 95.4027 205.473 95.4014 205.014 95.0935C204.556 94.7856 204.556 94.2876 205.016 93.9812C205.475 93.6749 206.22 93.6762 206.678 93.9841Z" fill="white" fill-opacity="0.15"/>
<path d="M219.96 102.905C220.419 103.213 220.418 103.711 219.958 104.017C219.499 104.324 218.755 104.322 218.296 104.014C217.838 103.706 217.839 103.208 218.298 102.902C218.758 102.596 219.502 102.597 219.96 102.905Z" fill="white" fill-opacity="0.15"/>
<path d="M233.243 111.826C233.701 112.134 233.7 112.632 233.241 112.938C232.781 113.245 232.037 113.243 231.578 112.935C231.12 112.627 231.121 112.129 231.58 111.823C232.04 111.517 232.784 111.518 233.243 111.826Z" fill="white" fill-opacity="0.15"/>
<path d="M246.525 120.747C246.983 121.055 246.982 121.553 246.523 121.859C246.063 122.165 245.319 122.164 244.861 121.856C244.402 121.548 244.403 121.05 244.863 120.744C245.322 120.438 246.066 120.439 246.525 120.747Z" fill="white" fill-opacity="0.15"/>
<path d="M259.807 129.668C260.266 129.976 260.265 130.474 259.805 130.78C259.346 131.086 258.601 131.085 258.143 130.777C257.684 130.469 257.685 129.971 258.145 129.665C258.604 129.358 259.349 129.36 259.807 129.668Z" fill="white" fill-opacity="0.15"/>
<path d="M273.089 138.589C273.548 138.897 273.547 139.394 273.087 139.701C272.628 140.007 271.884 140.006 271.425 139.698C270.967 139.39 270.968 138.892 271.427 138.586C271.887 138.279 272.631 138.281 273.089 138.589Z" fill="white" fill-opacity="0.15"/>
<path d="M286.372 147.509C286.83 147.817 286.829 148.315 286.37 148.622C285.91 148.928 285.166 148.927 284.707 148.619C284.249 148.311 284.25 147.813 284.709 147.507C285.169 147.2 285.913 147.202 286.372 147.509Z" fill="white" fill-opacity="0.15"/>
<path d="M299.654 156.43C300.112 156.738 300.111 157.236 299.652 157.543C299.192 157.849 298.448 157.848 297.99 157.54C297.531 157.232 297.532 156.734 297.992 156.428C298.451 156.121 299.195 156.122 299.654 156.43Z" fill="white" fill-opacity="0.15"/>
<path d="M312.936 165.351C313.394 165.659 313.394 166.157 312.934 166.464C312.475 166.77 311.73 166.769 311.272 166.461C310.813 166.153 310.814 165.655 311.274 165.348C311.733 165.042 312.477 165.043 312.936 165.351Z" fill="white" fill-opacity="0.15"/>
<path d="M326.218 174.272C326.677 174.58 326.676 175.078 326.216 175.384C325.757 175.691 325.013 175.69 324.554 175.382C324.096 175.074 324.096 174.576 324.556 174.269C325.016 173.963 325.76 173.964 326.218 174.272Z" fill="white" fill-opacity="0.15"/>
<path d="M339.5 183.193C339.959 183.501 339.958 183.999 339.499 184.305C339.039 184.612 338.295 184.61 337.836 184.302C337.378 183.995 337.379 183.497 337.838 183.19C338.298 182.884 339.042 182.885 339.5 183.193Z" fill="white" fill-opacity="0.15"/>
<path d="M206.709 76.188C207.167 76.4959 207.166 76.9939 206.707 77.3002C206.247 77.6066 205.503 77.6053 205.045 77.2974C204.586 76.9895 204.587 76.4915 205.047 76.1851C205.506 75.8788 206.25 75.8801 206.709 76.188Z" fill="white" fill-opacity="0.15"/>
<path d="M219.991 85.1089C220.449 85.4168 220.449 85.9148 219.989 86.2211C219.53 86.5275 218.785 86.5262 218.327 86.2183C217.868 85.9104 217.869 85.4124 218.329 85.106C218.788 84.7997 219.532 84.801 219.991 85.1089Z" fill="white" fill-opacity="0.15"/>
<path d="M233.273 94.0298C233.732 94.3377 233.731 94.8357 233.271 95.142C232.812 95.4484 232.068 95.4471 231.609 95.1392C231.151 94.8313 231.151 94.3333 231.611 94.0269C232.071 93.7206 232.815 93.7219 233.273 94.0298Z" fill="white" fill-opacity="0.15"/>
<path d="M246.555 102.951C247.014 103.259 247.013 103.757 246.553 104.063C246.094 104.369 245.35 104.368 244.891 104.06C244.433 103.752 244.434 103.254 244.893 102.948C245.353 102.641 246.097 102.643 246.555 102.951Z" fill="white" fill-opacity="0.15"/>
<path d="M259.838 111.872C260.296 112.18 260.295 112.677 259.836 112.984C259.376 113.29 258.632 113.289 258.174 112.981C257.715 112.673 257.716 112.175 258.175 111.869C258.635 111.562 259.379 111.564 259.838 111.872Z" fill="white" fill-opacity="0.15"/>
<path d="M273.12 120.792C273.578 121.1 273.577 121.598 273.118 121.905C272.658 122.211 271.914 122.21 271.456 121.902C270.997 121.594 270.998 121.096 271.458 120.79C271.917 120.483 272.661 120.485 273.12 120.792Z" fill="white" fill-opacity="0.15"/>
<path d="M286.402 129.713C286.861 130.021 286.86 130.519 286.4 130.826C285.941 131.132 285.196 131.131 284.738 130.823C284.28 130.515 284.28 130.017 284.74 129.711C285.199 129.404 285.944 129.405 286.402 129.713Z" fill="white" fill-opacity="0.15"/>
<path d="M299.684 138.634C300.143 138.942 300.142 139.44 299.682 139.747C299.223 140.053 298.479 140.052 298.02 139.744C297.562 139.436 297.563 138.938 298.022 138.631C298.482 138.325 299.226 138.326 299.684 138.634Z" fill="white" fill-opacity="0.15"/>
<path d="M312.967 147.555C313.425 147.863 313.424 148.361 312.965 148.667C312.505 148.974 311.761 148.973 311.302 148.665C310.844 148.357 310.845 147.859 311.304 147.552C311.764 147.246 312.508 147.247 312.967 147.555Z" fill="white" fill-opacity="0.15"/>
<path d="M326.249 156.476C326.707 156.784 326.706 157.282 326.247 157.588C325.787 157.895 325.043 157.893 324.585 157.585C324.126 157.278 324.127 156.78 324.587 156.473C325.046 156.167 325.79 156.168 326.249 156.476Z" fill="white" fill-opacity="0.15"/>
<path d="M339.531 165.397C339.989 165.705 339.989 166.203 339.529 166.509C339.07 166.816 338.325 166.814 337.867 166.506C337.408 166.198 337.409 165.7 337.869 165.394C338.328 165.088 339.073 165.089 339.531 165.397Z" fill="white" fill-opacity="0.15"/>
<path d="M352.813 174.318C353.272 174.626 353.271 175.124 352.811 175.43C352.352 175.736 351.608 175.735 351.149 175.427C350.691 175.119 350.692 174.621 351.151 174.315C351.611 174.009 352.355 174.01 352.813 174.318Z" fill="white" fill-opacity="0.15"/>
<path d="M220.022 67.3128C220.48 67.6207 220.479 68.1187 220.02 68.425C219.56 68.7314 218.816 68.7301 218.357 68.4222C217.899 68.1143 217.9 67.6163 218.359 67.3099C218.819 67.0036 219.563 67.0049 220.022 67.3128Z" fill="white" fill-opacity="0.15"/>
<path d="M233.304 76.2337C233.762 76.5416 233.761 77.0396 233.302 77.3459C232.842 77.6523 232.098 77.651 231.64 77.3431C231.181 77.0352 231.182 76.5372 231.642 76.2308C232.101 75.9245 232.845 75.9258 233.304 76.2337Z" fill="white" fill-opacity="0.15"/>
<path d="M246.586 85.1546C247.044 85.4625 247.044 85.9605 246.584 86.2668C246.125 86.5732 245.38 86.5719 244.922 86.264C244.463 85.9561 244.464 85.4581 244.924 85.1517C245.383 84.8454 246.128 84.8467 246.586 85.1546Z" fill="white" fill-opacity="0.15"/>
<path d="M259.868 94.0755C260.327 94.3834 260.326 94.8814 259.866 95.1877C259.407 95.4941 258.663 95.4928 258.204 95.1849C257.746 94.877 257.746 94.379 258.206 94.0726C258.666 93.7663 259.41 93.7676 259.868 94.0755Z" fill="white" fill-opacity="0.15"/>
<path d="M273.15 102.996C273.609 103.304 273.608 103.802 273.149 104.109C272.689 104.415 271.945 104.414 271.486 104.106C271.028 103.798 271.029 103.3 271.488 102.994C271.948 102.687 272.692 102.688 273.15 102.996Z" fill="white" fill-opacity="0.15"/>
<path d="M286.433 111.917C286.891 112.225 286.89 112.723 286.431 113.03C285.971 113.336 285.227 113.335 284.769 113.027C284.31 112.719 284.311 112.221 284.77 111.914C285.23 111.608 285.974 111.609 286.433 111.917Z" fill="white" fill-opacity="0.15"/>
<path d="M299.715 120.838C300.173 121.146 300.173 121.644 299.713 121.95C299.253 122.257 298.509 122.256 298.051 121.948C297.592 121.64 297.593 121.142 298.053 120.835C298.512 120.529 299.256 120.53 299.715 120.838Z" fill="white" fill-opacity="0.15"/>
<path d="M312.997 129.759C313.456 130.067 313.455 130.565 312.995 130.871C312.536 131.178 311.791 131.176 311.333 130.868C310.875 130.561 310.875 130.063 311.335 129.756C311.794 129.45 312.539 129.451 312.997 129.759Z" fill="white" fill-opacity="0.15"/>
<path d="M326.279 138.68C326.738 138.988 326.737 139.486 326.277 139.792C325.818 140.099 325.074 140.097 324.615 139.789C324.157 139.481 324.158 138.983 324.617 138.677C325.077 138.371 325.821 138.372 326.279 138.68Z" fill="white" fill-opacity="0.15"/>
<path d="M339.562 147.601C340.02 147.909 340.019 148.407 339.56 148.713C339.1 149.019 338.356 149.018 337.897 148.71C337.439 148.402 337.44 147.904 337.899 147.598C338.359 147.292 339.103 147.293 339.562 147.601Z" fill="white" fill-opacity="0.15"/>
<path d="M352.844 156.522C353.302 156.83 353.301 157.328 352.842 157.634C352.382 157.94 351.638 157.939 351.18 157.631C350.721 157.323 350.722 156.825 351.182 156.519C351.641 156.213 352.385 156.214 352.844 156.522Z" fill="white" fill-opacity="0.15"/>
<path d="M366.126 165.443C366.584 165.751 366.584 166.249 366.124 166.555C365.665 166.861 364.92 166.86 364.462 166.552C364.003 166.244 364.004 165.746 364.464 165.44C364.923 165.133 365.668 165.135 366.126 165.443Z" fill="white" fill-opacity="0.15"/>
<path d="M20.6117 200.362C21.0701 200.67 21.0693 201.168 20.6098 201.474C20.1502 201.78 19.406 201.779 18.9476 201.471C18.4891 201.163 18.49 200.665 18.9495 200.359C19.409 200.053 20.1532 200.054 20.6117 200.362Z" fill="white" fill-opacity="0.15"/>
<path d="M40.3982 171.317L40.3796 171.262C40.2398 170.854 40.2397 170.431 40.3796 170.023L40.3982 169.968L40.3982 169.893L40.4187 169.893L40.5164 169.709C40.7208 169.325 41.061 168.951 41.5515 168.624L99.03 130.305C99.9141 129.716 101.091 129.413 102.284 129.415C103.477 129.417 104.653 129.724 105.535 130.316L138.796 152.656C139.802 153.331 140.172 154.198 140.04 154.983L139.971 155.386L140.15 155.386L140.15 162.293L140.078 162.293L140.064 162.625C140.035 163.293 139.638 163.998 138.789 164.564L81.3103 202.882C80.4263 203.472 79.2497 203.775 78.0564 203.773C76.8631 203.771 75.6874 203.464 74.8054 202.872L41.5447 180.532C41.1696 180.28 40.8823 180 40.6775 179.709L40.575 179.564L40.3982 179.564L40.3982 179.189L40.3796 179.135C40.2396 178.726 40.2396 178.303 40.3796 177.895L40.3982 177.841L40.3982 171.317Z" fill="#09080D" stroke="#14799C" stroke-width="0.690798"/>
<rect x="0.831095" y="0.00142801" width="76.3694" height="47.3559" rx="3.64479" transform="matrix(0.83205 -0.5547 0.830139 0.557556 38.5385 170.334)" fill="#1C1A28" stroke="#14799C"/>
<path d="M40.398 150.176L40.3794 150.121C40.2395 149.713 40.2395 149.29 40.3794 148.882L40.398 148.827L40.398 148.752L40.4185 148.752L40.5161 148.569C40.7206 148.185 41.0607 147.81 41.5513 147.483L99.0298 109.164C99.9138 108.575 101.09 108.272 102.284 108.274C103.477 108.276 104.653 108.583 105.535 109.175L138.795 131.515C139.801 132.191 140.172 133.058 140.04 133.842L139.971 134.245L140.15 134.245L140.15 141.153L140.078 141.153L140.064 141.484C140.035 142.152 139.638 142.857 138.789 143.423L81.3101 181.741C80.4261 182.331 79.2495 182.634 78.0562 182.632C76.8628 182.63 75.6871 182.323 74.8052 181.731L41.5444 159.391C41.1693 159.139 40.8821 158.859 40.6772 158.569L40.5747 158.423L40.398 158.423L40.398 158.048L40.3794 157.994C40.2393 157.586 40.2394 157.162 40.3794 156.754L40.398 156.7L40.398 150.176Z" fill="#09080D" stroke="#14799C" stroke-width="0.690798"/>
<rect x="0.831095" y="0.00142801" width="76.3694" height="47.3559" rx="3.64479" transform="matrix(0.83205 -0.5547 0.830139 0.557556 38.5383 149.194)" fill="#1C1A28" stroke="#14799C"/>
<path d="M40.3982 126.035L40.3796 125.98C40.2398 125.572 40.2397 125.149 40.3796 124.741L40.3982 124.687L40.3982 124.611L40.4187 124.611L40.5164 124.428C40.7208 124.044 41.061 123.669 41.5515 123.342L99.03 85.0234C99.9141 84.4341 101.091 84.1308 102.284 84.1328C103.477 84.1349 104.653 84.4419 105.535 85.0342L138.796 107.374C139.802 108.05 140.172 108.917 140.04 109.701L139.971 110.104L140.15 110.104L140.15 117.012L140.078 117.012L140.064 117.343C140.035 118.011 139.638 118.716 138.789 119.282L81.3103 157.601C80.4263 158.19 79.2497 158.493 78.0564 158.491C76.8631 158.489 75.6874 158.182 74.8054 157.59L41.5447 135.25C41.1696 134.998 40.8823 134.718 40.6775 134.428L40.575 134.282L40.3982 134.282L40.3982 133.907L40.3796 133.854C40.2396 133.445 40.2396 133.022 40.3796 132.613L40.3982 132.56L40.3982 126.035Z" fill="#09080D" stroke="#14799C" stroke-width="0.690798"/>
<rect x="0.831095" y="0.00142801" width="76.3694" height="47.3559" rx="3.64479" transform="matrix(0.83205 -0.5547 0.830139 0.557556 38.5385 125.053)" fill="#1C1A28" stroke="#14799C"/>
<path d="M40.3982 100.035L40.3796 99.9805C40.2398 99.5719 40.2397 99.1494 40.3796 98.7412L40.3982 98.6865L40.3982 98.6113L40.4187 98.6113L40.5164 98.4277C40.7208 98.0437 41.061 97.6689 41.5515 97.3418L99.03 59.0234C99.9141 58.4341 101.091 58.1308 102.284 58.1328C103.477 58.1349 104.653 58.4419 105.535 59.0342L138.796 81.374C139.802 82.0497 140.172 82.9167 140.04 83.7012L139.971 84.1045L140.15 84.1045L140.15 91.0117L140.078 91.0117L140.064 91.3428C140.035 92.011 139.638 92.716 138.789 93.2822L81.3103 131.601C80.4263 132.19 79.2497 132.493 78.0564 132.491C76.8631 132.489 75.6874 132.182 74.8054 131.59L41.5447 109.25C41.1696 108.998 40.8823 108.718 40.6775 108.428L40.575 108.282L40.3982 108.282L40.3982 107.907L40.3796 107.854C40.2396 107.445 40.2396 107.022 40.3796 106.613L40.3982 106.56L40.3982 100.035Z" fill="#09080D" stroke="#14799C" stroke-width="0.690798"/>
<rect x="0.831095" y="0.00142801" width="76.3694" height="47.3559" rx="3.64479" transform="matrix(0.83205 -0.5547 0.830139 0.557556 38.5385 99.0527)" fill="#1C1A28" stroke="#14799C"/>
<path d="M40.0531 80.3611L40.0531 73.9523C39.8883 73.4711 39.8883 72.9699 40.0531 72.489L40.0531 72.125L40.2118 72.125C40.4473 71.6826 40.8301 71.2676 41.3603 70.9142L98.8382 32.5956C100.743 31.3258 103.827 31.3311 105.728 32.6074L138.988 54.9466C140.077 55.6778 140.541 56.6675 140.38 57.6183L140.495 57.6183L140.495 65.2171L140.409 65.2171C140.374 66.0208 139.898 66.8171 138.98 67.429L81.5024 105.748C79.5977 107.017 76.5132 107.012 74.6129 105.736L41.3523 83.3965C40.9467 83.1241 40.6279 82.8158 40.3957 82.487L40.0531 82.487L40.0531 81.8247C39.8882 81.3434 39.8882 80.8421 40.0531 80.3611Z" fill="#09080D"/>
<path d="M40.3982 73.8948L40.3796 73.8401C40.2398 73.4315 40.2397 73.009 40.3796 72.6008L40.3982 72.5461L40.3982 72.47L40.4197 72.47L40.5164 72.2874C40.7208 71.9033 41.061 71.5285 41.5515 71.2014L99.03 32.8831C99.914 32.2938 101.091 31.9904 102.284 31.9924C103.477 31.9945 104.653 32.3015 105.535 32.8938L138.796 55.2336C139.802 55.9093 140.172 56.7763 140.04 57.5608L139.971 57.9641L140.15 57.9641L140.15 64.8713L140.078 64.8713L140.064 65.2024C140.035 65.8706 139.638 66.5756 138.789 67.1418L81.3103 105.46C80.4263 106.049 79.2497 106.353 78.0564 106.351C76.8631 106.349 75.6874 106.042 74.8054 105.449L41.5447 83.1096C41.1695 82.8576 40.8823 82.5775 40.6775 82.2874L40.575 82.1418L40.3982 82.1418L40.3982 81.7668L40.3796 81.7131C40.2396 81.3044 40.2396 80.8812 40.3796 80.4729L40.3982 80.4182L40.3982 73.8948Z" stroke="white" stroke-opacity="0.25" stroke-width="0.690798"/>
<rect x="0.831095" y="0.00142801" width="76.3694" height="47.3559" rx="3.64479" transform="matrix(0.83205 -0.5547 0.830139 0.557556 38.5385 72.9116)" fill="#201F2D" stroke="#4E4D51"/>
<rect opacity="0.2" width="31.9306" height="4.83729" rx="2" transform="matrix(0.83205 -0.5547 0.830139 0.557556 64.8884 65.5505)" fill="#D9D9D9"/>
<rect opacity="0.1" width="25.7496" height="3.06554" rx="1.53277" transform="matrix(0.83205 -0.5547 0.830139 0.557556 85.406 81.9556)" fill="#D9D9D9"/>
<g clip-path="url(#clip0_2402_6437)">
<path fill-rule="evenodd" clip-rule="evenodd" d="M55.1644 69.7207C53.0879 71.1051 53.084 73.3533 55.1557 74.7448C56.815 75.8592 59.2923 76.0833 61.2831 75.421C61.5038 75.3178 61.4618 75.1952 61.3634 75.1291C61.2743 75.0693 60.9743 74.8741 60.6603 74.6632C59.8894 75.4092 59.242 75.3013 58.9559 75.2098C58.8058 75.1656 58.2898 75.0642 58.041 75.1109C57.8392 75.1513 57.4778 75.1601 57.7879 74.9471C58.0792 74.7467 58.5672 74.7915 58.7501 74.8201C59.6555 74.9755 60.0364 74.5083 60.1541 74.2981C59.9433 74.1125 59.8779 73.9365 59.8922 73.8015C58.9622 74.296 57.765 74.6614 56.3307 73.698C55.9229 73.4242 55.7311 73.1004 55.7082 72.7644C55.5768 72.7265 55.061 72.556 54.7521 72.0719C54.7521 72.0719 54.9684 71.796 56.17 71.641C56.3863 71.3839 56.6636 71.1426 56.983 70.9296C57.3025 70.7167 57.6641 70.532 58.0492 70.3882C58.2805 69.5817 58.6984 69.4411 58.6984 69.4411C59.4207 69.6496 59.6735 69.9954 59.7296 70.0834C60.2317 70.1 60.7101 70.2264 61.1226 70.5034C62.5616 71.4699 62.0018 72.2696 61.2593 72.8901C61.5127 72.878 61.8551 72.9508 62.2067 73.1869C62.7082 73.5237 63.1066 73.7976 63.2331 73.8826C63.3316 73.9487 63.5192 73.9804 63.6696 73.83C64.6574 72.5066 64.327 70.8449 62.6725 69.7336C60.6007 68.3422 57.2409 68.3364 55.1644 69.7207Z" fill="#F7F7F8"/>
</g>
<path d="M80.2541 86.176L80.3895 86.267C80.7067 86.4803 80.9125 86.7564 80.9763 87.0541C81.04 87.3519 80.9582 87.6553 80.7431 87.9191C80.5281 88.1829 80.1912 88.3931 79.7828 88.5181C79.3743 88.6432 78.9162 88.6765 78.4768 88.6131C78.0374 88.5497 77.6401 88.393 77.3443 88.1663C77.0486 87.9396 76.8701 87.6551 76.8355 87.3553C76.8009 87.0554 76.9121 86.7563 77.1524 86.5024C77.3928 86.2485 77.7495 86.0536 78.1693 85.9466" stroke="#42946E" stroke-linecap="round" stroke-linejoin="round"/>
<path d="M79.2119 85.476L79.2099 87.4492L78.3258 87.4477" stroke="#42946E" stroke-linecap="round" stroke-linejoin="round"/>
<path d="M127.398 240.035L127.38 239.98C127.24 239.572 127.24 239.149 127.38 238.741L127.398 238.687L127.398 238.611L127.419 238.611L127.516 238.428C127.721 238.044 128.061 237.669 128.552 237.342L186.03 199.023C186.914 198.434 188.091 198.131 189.284 198.133C190.477 198.135 191.653 198.442 192.535 199.034L225.796 221.374C226.802 222.05 227.172 222.917 227.04 223.701L226.971 224.104L227.15 224.104L227.15 231.012L227.078 231.012L227.064 231.343C227.035 232.011 226.638 232.716 225.789 233.282L168.31 271.601C167.426 272.19 166.25 272.493 165.056 272.491C163.863 272.489 162.687 272.182 161.805 271.59L128.545 249.25C128.17 248.998 127.882 248.718 127.677 248.428L127.575 248.282L127.398 248.282L127.398 247.907L127.38 247.854C127.24 247.445 127.24 247.022 127.38 246.613L127.398 246.56L127.398 240.035Z" fill="#09080D" stroke="#14799C" stroke-width="0.690798"/>
<rect x="0.831095" y="0.00142801" width="76.3694" height="47.3559" rx="3.64479" transform="matrix(0.83205 -0.5547 0.830139 0.557556 125.539 239.053)" fill="#1C1A28" stroke="#14799C"/>
<path d="M127.158 220.336L127.158 213.927C126.993 213.446 126.993 212.944 127.158 212.464L127.158 212.1L127.316 212.1C127.552 211.657 127.935 211.242 128.465 210.889L185.943 172.57C187.847 171.3 190.932 171.306 192.832 172.582L226.093 194.921C227.181 195.652 227.645 196.642 227.485 197.593L227.6 197.593L227.6 205.192L227.514 205.192C227.479 205.995 227.003 206.792 226.085 207.404L168.607 245.722C166.702 246.992 163.618 246.987 161.717 245.71L128.457 223.371C128.051 223.099 127.732 222.791 127.5 222.462L127.158 222.462L127.158 221.799C126.993 221.318 126.993 220.817 127.158 220.336Z" fill="#09080D"/>
<path d="M127.503 213.869L127.484 213.815C127.344 213.406 127.344 212.984 127.484 212.575L127.503 212.521L127.503 212.446L127.523 212.446L127.621 212.262C127.825 211.878 128.165 211.503 128.656 211.176L186.135 172.858C187.019 172.268 188.195 171.965 189.388 171.967C190.582 171.969 191.757 172.276 192.639 172.868L225.9 195.208C226.906 195.884 227.277 196.751 227.144 197.535L227.076 197.939L227.255 197.939L227.255 204.846L227.182 204.846L227.169 205.177C227.14 205.845 226.743 206.55 225.893 207.116L168.415 245.435C167.531 246.024 166.354 246.327 165.161 246.325C163.968 246.323 162.792 246.016 161.91 245.424L128.649 223.084C128.274 222.832 127.987 222.553 127.782 222.263L127.679 222.116L127.503 222.116L127.503 221.741L127.484 221.688C127.344 221.279 127.344 220.856 127.484 220.448L127.503 220.394L127.503 213.869Z" stroke="white" stroke-opacity="0.25" stroke-width="0.690798"/>
<rect x="0.831095" y="0.00142801" width="76.3694" height="47.3559" rx="3.64479" transform="matrix(0.83205 -0.5547 0.830139 0.557556 125.643 212.887)" fill="#201F2D" stroke="#4E4D51"/>
<rect opacity="0.2" width="31.9306" height="4.83729" rx="2" transform="matrix(0.83205 -0.5547 0.830139 0.557556 152.888 204.551)" fill="#D9D9D9"/>
<rect opacity="0.1" width="25.7496" height="3.06554" rx="1.53277" transform="matrix(0.83205 -0.5547 0.830139 0.557556 173.406 219.956)" fill="#D9D9D9"/>
<g clip-path="url(#clip1_2402_6437)">
<path d="M142.138 208.739C141.833 208.944 141.566 209.157 141.354 209.359C140.729 209.955 140.871 210.235 141.387 210.582L142.069 211.04L143.862 209.844L144.09 209.997L141.623 211.641C141.102 211.989 140.958 212.503 141.41 212.997C141.927 213.565 142.345 213.855 143.229 214.218C143.886 214.489 144.568 214.54 145.089 214.192L145.705 213.781L144.888 213.232C144.297 212.836 144.289 212.144 144.897 211.739L146.688 210.545C147.187 210.212 147.175 209.672 146.675 209.336L144.972 208.192C144.487 207.867 143.713 207.895 143.145 208.165C142.786 208.336 142.443 208.534 142.138 208.739V208.739ZM141.716 209.754C141.902 209.63 142.206 209.633 142.395 209.759C142.583 209.885 142.583 210.088 142.398 210.212C142.212 210.336 141.91 210.334 141.722 210.208C141.533 210.081 141.53 209.878 141.716 209.754V209.754Z" fill="url(#paint0_linear_2402_6437)"/>
<path d="M146.104 208.654L146.899 209.187C147.515 209.601 147.51 210.298 146.913 210.696L145.122 211.89C144.631 212.217 144.644 212.769 145.134 213.098L146.838 214.243C147.323 214.568 148.031 214.478 148.644 214.255C149.378 213.989 149.952 213.646 150.435 213.061C150.756 212.673 150.938 212.2 150.422 211.853L149.74 211.395L147.949 212.589L147.722 212.436L150.41 210.645C150.931 210.297 150.763 209.924 150.399 209.438C150.026 208.936 149.479 208.58 148.581 208.216C147.935 207.954 147.299 207.857 146.777 208.205L146.104 208.653L146.104 208.654ZM149.411 212.223C149.597 212.099 149.9 212.101 150.088 212.227C150.276 212.353 150.279 212.557 150.093 212.681C149.908 212.804 149.603 212.802 149.415 212.676C149.227 212.549 149.226 212.346 149.411 212.223Z" fill="url(#paint1_linear_2402_6437)"/>
</g>
<path d="M169.254 226.176L169.389 226.267C169.706 226.481 169.912 226.757 169.976 227.054C170.04 227.352 169.958 227.656 169.743 227.919C169.528 228.183 169.191 228.393 168.783 228.518C168.374 228.643 167.916 228.677 167.477 228.613C167.037 228.55 166.64 228.393 166.344 228.167C166.048 227.94 165.87 227.655 165.835 227.356C165.801 227.056 165.912 226.756 166.152 226.503C166.393 226.249 166.749 226.054 167.169 225.947" stroke="#42946E" stroke-linecap="round" stroke-linejoin="round"/>
<path d="M168.212 225.476L168.21 227.449L167.326 227.448" stroke="#42946E" stroke-linecap="round" stroke-linejoin="round"/>
<path d="M204.398 116.317L204.38 116.262C204.24 115.853 204.24 115.431 204.38 115.023L204.398 114.968L204.398 114.893L204.419 114.893L204.516 114.709C204.721 114.325 205.061 113.95 205.552 113.623L263.03 75.3049C263.914 74.7156 265.091 74.4123 266.284 74.4143C267.477 74.4164 268.653 74.7234 269.535 75.3157L302.796 97.6555C303.802 98.3312 304.172 99.1982 304.04 99.9827L303.971 100.386L304.15 100.386L304.15 107.293L304.078 107.293L304.064 107.624C304.035 108.293 303.638 108.997 302.789 109.564L245.31 147.882C244.426 148.471 243.25 148.775 242.056 148.773C240.863 148.771 239.687 148.464 238.805 147.871L205.545 125.531C205.17 125.28 204.882 124.999 204.677 124.709L204.575 124.564L204.398 124.564L204.398 124.189L204.38 124.135C204.24 123.726 204.24 123.303 204.38 122.895L204.398 122.841L204.398 116.317Z" fill="#09080D" stroke="#14799C" stroke-width="0.690798"/>
<rect x="0.831095" y="0.00142801" width="76.3694" height="47.3559" rx="3.64479" transform="matrix(0.83205 -0.5547 0.830139 0.557556 202.539 115.334)" fill="#1C1A28" stroke="#14799C"/>
<path d="M204.053 97.6422L204.053 91.2333C203.888 90.7521 203.888 90.2509 204.053 89.77L204.053 89.4061L204.212 89.4061C204.447 88.9637 204.83 88.5487 205.36 88.1952L262.838 49.8766C264.743 48.6068 267.827 48.6121 269.728 49.8884L302.988 72.2277C304.077 72.9588 304.541 73.9486 304.38 74.8994L304.495 74.8994L304.495 82.4981L304.409 82.4981C304.374 83.3019 303.898 84.0982 302.98 84.7101L245.502 123.029C243.598 124.298 240.513 124.293 238.613 123.017L205.352 100.678C204.947 100.405 204.628 100.097 204.396 99.7681L204.053 99.7681L204.053 99.1058C203.888 98.6245 203.888 98.1232 204.053 97.6422Z" fill="#09080D"/>
<path d="M204.398 91.1758L204.38 91.1211C204.24 90.7125 204.24 90.29 204.38 89.8818L204.398 89.8271L204.398 89.752L204.419 89.752L204.516 89.5684C204.721 89.1843 205.061 88.8095 205.552 88.4824L263.03 50.1641C263.914 49.5748 265.091 49.2714 266.284 49.2734C267.477 49.2755 268.653 49.5825 269.535 50.1748L302.796 72.5146C303.802 73.1903 304.172 74.0573 304.04 74.8418L303.971 75.2451L304.15 75.2451L304.15 82.1523L304.078 82.1523L304.064 82.4834C304.035 83.1517 303.638 83.8566 302.789 84.4229L245.31 122.741C244.426 123.33 243.25 123.634 242.056 123.632C240.863 123.63 239.687 123.323 238.805 122.73L205.545 100.391C205.17 100.139 204.882 99.8594 204.677 99.5693L204.575 99.4229L204.398 99.4229L204.398 99.0479L204.38 98.9941C204.24 98.5854 204.24 98.1622 204.38 97.7539L204.398 97.7002L204.398 91.1758Z" stroke="white" stroke-opacity="0.25" stroke-width="0.690798"/>
<rect x="0.831095" y="0.00142801" width="76.3694" height="47.3559" rx="3.64479" transform="matrix(0.83205 -0.5547 0.830139 0.557556 202.539 90.1933)" fill="#201F2D" stroke="#4E4D51"/>
<rect opacity="0.2" width="31.9306" height="4.83729" rx="2" transform="matrix(0.83205 -0.5547 0.830139 0.557556 230.888 81.5505)" fill="#D9D9D9"/>
<rect opacity="0.1" width="25.7496" height="3.06554" rx="1.53277" transform="matrix(0.83205 -0.5547 0.830139 0.557556 251.406 97.9558)" fill="#D9D9D9"/>
<g clip-path="url(#clip2_2402_6437)">
<path fill-rule="evenodd" clip-rule="evenodd" d="M219.164 85.721C217.087 87.1053 217.084 89.3536 219.155 90.745C220.815 91.8595 223.292 92.0835 225.283 91.4213C225.503 91.318 225.461 91.1955 225.363 91.1294C225.274 91.0696 224.974 90.8744 224.66 90.6634C223.889 91.4094 223.242 91.3016 222.955 91.21C222.805 91.1658 222.289 91.0644 222.041 91.1111C221.839 91.1516 221.477 91.1604 221.787 90.9474C222.079 90.7469 222.567 90.7917 222.75 90.8203C223.655 90.9757 224.036 90.5085 224.154 90.2983C223.943 90.1127 223.877 89.9367 223.892 89.8017C222.962 90.2963 221.764 90.6616 220.33 89.6983C219.922 89.4244 219.731 89.1006 219.708 88.7646C219.576 88.7267 219.06 88.5563 218.752 88.0722C218.752 88.0722 218.968 87.7962 220.169 87.6413C220.386 87.3842 220.663 87.1429 220.983 86.9299C221.302 86.7169 221.664 86.5323 222.049 86.3885C222.28 85.5819 222.698 85.4413 222.698 85.4413C223.42 85.6498 223.673 85.9956 223.729 86.0837C224.231 86.1002 224.71 86.2266 225.122 86.5037C226.561 87.4701 226.001 88.2699 225.259 88.8903C225.512 88.8782 225.855 88.951 226.206 89.1871C226.708 89.524 227.106 89.7978 227.233 89.8828C227.331 89.949 227.519 89.9807 227.669 89.8302C228.657 88.5068 228.327 86.8452 226.672 85.7339C224.6 84.3424 221.24 84.3367 219.164 85.721Z" fill="#F7F7F8"/>
</g>
<path d="M246.254 102.176L246.389 102.267C246.706 102.48 246.912 102.756 246.976 103.054C247.04 103.352 246.958 103.655 246.743 103.919C246.528 104.183 246.191 104.393 245.782 104.518C245.374 104.643 244.916 104.677 244.476 104.613C244.037 104.55 243.64 104.393 243.344 104.166C243.048 103.94 242.87 103.655 242.835 103.355C242.8 103.055 242.912 102.756 243.152 102.502C243.392 102.249 243.749 102.054 244.169 101.947" stroke="#42946E" stroke-linecap="round" stroke-linejoin="round"/>
<path d="M245.211 101.476L245.209 103.449L244.325 103.448" stroke="#42946E" stroke-linecap="round" stroke-linejoin="round"/>
<path opacity="0.9" d="M255.406 85.2268L255.406 30.2268M255.406 30.2268L248.406 39.2268M255.406 30.2268L262.406 39.2268" stroke="url(#paint2_linear_2402_6437)" stroke-width="2" stroke-linecap="round"/>
<path opacity="0.9" d="M173.406 205.227L173.406 150.227M173.406 150.227L166.406 159.227M173.406 150.227L180.406 159.227" stroke="url(#paint3_linear_2402_6437)" stroke-width="2" stroke-linecap="round"/>
<path opacity="0.9" d="M90.4058 59.2268L90.4058 4.22681M90.4058 4.22681L83.4058 13.2268M90.4058 4.22681L97.4058 13.2268" stroke="url(#paint4_linear_2402_6437)" stroke-width="2" stroke-linecap="round"/>
<defs>
<linearGradient id="paint0_linear_2402_6437" x1="138.498" y1="211.451" x2="146.095" y2="210.562" gradientUnits="userSpaceOnUse">
<stop stop-color="#5A9FD4"/>
<stop offset="1" stop-color="#306998"/>
</linearGradient>
<linearGradient id="paint1_linear_2402_6437" x1="149.897" y1="211.489" x2="146.455" y2="210.621" gradientUnits="userSpaceOnUse">
<stop stop-color="#FFD43B"/>
<stop offset="1" stop-color="#FFE873"/>
</linearGradient>
<linearGradient id="paint2_linear_2402_6437" x1="255.906" y1="35.7268" x2="255.906" y2="82.7267" gradientUnits="userSpaceOnUse">
<stop stop-color="#1AC3FB" stop-opacity="0.6"/>
<stop offset="1" stop-color="#2C1AFB" stop-opacity="0"/>
</linearGradient>
<linearGradient id="paint3_linear_2402_6437" x1="173.906" y1="155.727" x2="173.906" y2="202.727" gradientUnits="userSpaceOnUse">
<stop stop-color="#1AC3FB" stop-opacity="0.6"/>
<stop offset="1" stop-color="#2C1AFB" stop-opacity="0"/>
</linearGradient>
<linearGradient id="paint4_linear_2402_6437" x1="90.9057" y1="9.72681" x2="90.9057" y2="56.7267" gradientUnits="userSpaceOnUse">
<stop stop-color="#1AC3FB" stop-opacity="0.6"/>
<stop offset="1" stop-color="#2C1AFB" stop-opacity="0"/>
</linearGradient>
<clipPath id="clip0_2402_6437">
<rect width="9.03398" height="9.03398" fill="white" transform="matrix(0.83205 -0.5547 0.830139 0.557556 51.406 72.2263)"/>
</clipPath>
<clipPath id="clip1_2402_6437">
<rect width="9.03398" height="9.03398" fill="white" transform="matrix(0.83205 -0.5547 0.830139 0.557556 138.406 211.227)"/>
</clipPath>
<clipPath id="clip2_2402_6437">
<rect width="9.03398" height="9.03398" fill="white" transform="matrix(0.83205 -0.5547 0.830139 0.557556 215.406 88.2266)"/>
</clipPath>
</defs>
</svg>
