<svg width="384" height="278" viewBox="0 0 384 278" fill="none" xmlns="http://www.w3.org/2000/svg">
<path d="M213.668 11.299C215.573 10.0293 218.657 10.0344 220.558 11.3107L379.979 118.385C384.022 121.101 384.023 130.294 379.971 132.995L170.752 272.475C168.847 273.745 165.763 273.739 163.862 272.463L4.44037 165.389C0.397537 162.673 0.396126 153.48 4.44818 150.779L213.668 11.299Z" fill="black" fill-opacity="0.7"/>
<path d="M217.114 10.8501C218.283 10.8521 219.427 11.1542 220.279 11.7261L379.701 118.8C381.519 120.022 382.511 122.79 382.51 125.695C382.509 128.6 381.515 131.365 379.693 132.58L170.474 272.059C169.621 272.628 168.476 272.925 167.306 272.923C166.137 272.921 164.993 272.62 164.141 272.048L4.71924 164.974C2.90038 163.752 1.90791 160.984 1.90869 158.079C1.90948 155.174 2.90323 152.41 4.7251 151.195L213.945 11.7153C214.798 11.1463 215.944 10.8481 217.114 10.8501Z" stroke="white" stroke-opacity="0.12"/>
<rect width="259.74" height="200.332" rx="4.14479" transform="matrix(0.83205 -0.5547 0.830139 0.557556 1 153.078)" fill="#181622"/>
<rect x="0.831095" y="0.00142801" width="258.74" height="199.332" rx="3.64479" transform="matrix(0.83205 -0.5547 0.830139 0.557556 1.1384 153.54)" stroke="white" stroke-opacity="0.15"/>
<mask id="path-5-inside-1_2404_7148" fill="white">
<path d="M283.135 94.0621C285.04 92.7924 288.125 92.7972 290.025 94.0734L323.286 116.413C324.375 117.144 324.836 118.134 324.676 119.085L324.793 119.085L324.792 126.683L324.705 126.683C324.67 127.487 324.195 128.283 323.277 128.895L265.799 167.214C263.895 168.484 260.81 168.478 258.91 167.202L225.65 144.863C225.244 144.591 224.926 144.282 224.694 143.954L224.351 143.954L224.35 143.29C224.185 142.81 224.185 142.309 224.35 141.829L224.35 135.417C224.186 134.937 224.186 134.437 224.349 133.958L224.351 133.591L224.508 133.592C224.744 133.149 225.128 132.734 225.658 132.38L283.135 94.0621Z"/>
</mask>
<path d="M283.135 94.0621C285.04 92.7924 288.125 92.7972 290.025 94.0734L323.286 116.413C324.375 117.144 324.836 118.134 324.676 119.085L324.793 119.085L324.792 126.683L324.705 126.683C324.67 127.487 324.195 128.283 323.277 128.895L265.799 167.214C263.895 168.484 260.81 168.478 258.91 167.202L225.65 144.863C225.244 144.591 224.926 144.282 224.694 143.954L224.351 143.954L224.35 143.29C224.185 142.81 224.185 142.309 224.35 141.829L224.35 135.417C224.186 134.937 224.186 134.437 224.349 133.958L224.351 133.591L224.508 133.592C224.744 133.149 225.128 132.734 225.658 132.38L283.135 94.0621Z" fill="#09080D"/>
<path d="M283.135 94.0621L283.709 94.4473L283.135 94.0621ZM290.025 94.0734L290.6 93.6902L290.6 93.6902L290.025 94.0734ZM323.286 116.413L323.861 116.03L323.286 116.413ZM324.676 119.085L323.869 119.023L323.766 119.631L324.68 119.628L324.676 119.085ZM324.793 119.085L325.605 119.085L325.605 118.539L324.789 118.541L324.793 119.085ZM324.792 126.683L324.791 127.226L325.604 127.228L325.604 126.684L324.792 126.683ZM324.705 126.683L324.706 126.14L323.916 126.138L323.893 126.667L324.705 126.683ZM323.277 128.895L322.704 128.51L323.277 128.895ZM265.799 167.214L266.373 167.599L266.373 167.599L265.799 167.214ZM225.65 144.863L225.075 145.246L225.075 145.246L225.65 144.863ZM224.694 143.954L225.428 143.722L225.208 143.41L224.693 143.41L224.694 143.954ZM224.351 143.954L223.539 143.954L223.54 144.497L224.352 144.497L224.351 143.954ZM224.35 143.29L225.161 143.291L225.161 143.229L225.141 143.17L224.35 143.29ZM224.35 141.829L225.141 141.951L225.162 141.891L225.162 141.83L224.35 141.829ZM224.35 135.417L225.162 135.417L225.162 135.356L225.142 135.296L224.35 135.417ZM224.349 133.958L225.141 134.08L225.161 134.021L225.161 133.96L224.349 133.958ZM224.351 133.591L224.352 133.048L223.541 133.047L223.539 133.589L224.351 133.591ZM224.508 133.592L224.507 134.135L225.081 134.136L225.273 133.774L224.508 133.592ZM225.658 132.38L225.085 131.995L225.658 132.38ZM283.135 94.0621L283.709 94.4473C285.296 93.3891 287.867 93.3932 289.45 94.4566L290.025 94.0734L290.6 93.6902C288.383 92.2012 284.784 92.1957 282.562 93.677L283.135 94.0621ZM290.025 94.0734L289.45 94.4566L322.711 116.796L323.286 116.413L323.861 116.03L290.6 93.6902L290.025 94.0734ZM323.286 116.413L322.711 116.796C323.618 117.405 324.003 118.229 323.869 119.023L324.676 119.085L325.482 119.147C325.67 118.039 325.132 116.883 323.861 116.03L323.286 116.413ZM324.676 119.085L324.68 119.628L324.798 119.628L324.793 119.085L324.789 118.541L324.671 118.542L324.676 119.085ZM324.793 119.085L323.981 119.084L323.98 126.682L324.792 126.683L325.604 126.684L325.605 119.085L324.793 119.085ZM324.792 126.683L324.793 126.14L324.706 126.14L324.705 126.683L324.704 127.226L324.791 127.226L324.792 126.683ZM324.705 126.683L323.893 126.667C323.864 127.338 323.469 128 322.704 128.51L323.277 128.895L323.851 129.28C324.922 128.566 325.476 127.636 325.516 126.699L324.705 126.683ZM323.277 128.895L322.704 128.51L265.226 166.829L265.799 167.214L266.373 167.599L323.851 129.28L323.277 128.895ZM265.799 167.214L265.226 166.829C263.639 167.887 261.068 167.882 259.485 166.819L258.91 167.202L258.335 167.585C260.552 169.074 264.151 169.08 266.373 167.599L265.799 167.214ZM258.91 167.202L259.485 166.819L226.224 144.48L225.65 144.863L225.075 145.246L258.335 167.585L258.91 167.202ZM225.65 144.863L226.224 144.48C225.886 144.252 225.621 143.996 225.428 143.722L224.694 143.954L223.96 144.185C224.231 144.569 224.602 144.929 225.075 145.246L225.65 144.863ZM224.694 143.954L224.693 143.41L224.35 143.41L224.351 143.954L224.352 144.497L224.695 144.497L224.694 143.954ZM224.351 143.954L225.163 143.954L225.161 143.291L224.35 143.29L223.538 143.29L223.539 143.954L224.351 143.954ZM224.35 143.29L225.141 143.17C225.004 142.769 225.004 142.352 225.141 141.951L224.35 141.829L223.558 141.707C223.367 142.267 223.366 142.85 223.558 143.411L224.35 143.29ZM224.35 141.829L225.162 141.83L225.162 135.417L224.35 135.417L223.538 135.416L223.538 141.828L224.35 141.829ZM224.35 135.417L225.142 135.296C225.005 134.896 225.004 134.479 225.141 134.08L224.349 133.958L223.558 133.836C223.367 134.396 223.368 134.978 223.559 135.537L224.35 135.417ZM224.349 133.958L225.161 133.96L225.163 133.594L224.351 133.591L223.539 133.589L223.537 133.956L224.349 133.958ZM224.351 133.591L224.35 134.135L224.507 134.135L224.508 133.592L224.509 133.048L224.352 133.048L224.351 133.591ZM224.508 133.592L225.273 133.774C225.469 133.407 225.788 133.061 226.231 132.765L225.658 132.38L225.085 131.995C224.467 132.407 224.019 132.891 223.743 133.409L224.508 133.592ZM225.658 132.38L226.231 132.765L283.709 94.4473L283.135 94.0621L282.562 93.677L225.085 131.995L225.658 132.38Z" fill="white" fill-opacity="0.25" mask="url(#path-5-inside-1_2404_7148)"/>
<rect x="0.831095" y="0.00142801" width="76.3694" height="47.3559" rx="3.64479" transform="matrix(0.83205 -0.5547 0.830139 0.557556 222.836 134.378)" fill="#201F2D" stroke="#4E4D51"/>
<path d="M277.994 117.779L262.973 127.792C261.936 128.484 261.921 129.599 262.94 130.283L275.388 138.643C276.406 139.328 278.073 139.322 279.109 138.63L294.13 128.616C295.167 127.925 295.182 126.81 294.164 126.126L281.716 117.765C280.697 117.081 279.031 117.087 277.994 117.779Z" stroke="white" stroke-opacity="0.25" stroke-width="2"/>
<path d="M263.789 123.916L261.484 122.367C258.938 120.657 258.975 117.87 261.568 116.141C264.16 114.413 268.326 114.398 270.872 116.109L273.177 117.657" stroke="white" stroke-opacity="0.3" stroke-width="2" stroke-linecap="round"/>
<g opacity="0.8">
<path d="M277.86 127.74C278.638 127.222 278.649 126.385 277.885 125.872C277.121 125.359 275.871 125.364 275.094 125.882C274.316 126.401 274.305 127.237 275.069 127.75C275.832 128.263 277.082 128.259 277.86 127.74Z" fill="#42946E"/>
<path d="M277.416 126.185L275.538 127.437L279.226 129.914L281.104 128.663L277.416 126.185Z" fill="#42946E"/>
</g>
<path d="M240.5 150L218 165" stroke="url(#paint0_linear_2404_7148)" stroke-width="2" stroke-linecap="round"/>
<path d="M186.5 115L164 130" stroke="url(#paint1_linear_2404_7148)" stroke-width="2" stroke-linecap="round"/>
<mask id="path-13-inside-2_2404_7148" fill="white">
<path d="M228.135 58.0621C230.04 56.7924 233.125 56.7972 235.025 58.0734L268.286 80.4127C269.375 81.144 269.836 82.134 269.676 83.0849L269.793 83.0846L269.792 90.6831L269.705 90.6829C269.67 91.4868 269.195 92.2832 268.277 92.8952L210.799 131.214C208.895 132.484 205.81 132.478 203.91 131.202L170.65 108.863C170.244 108.591 169.926 108.282 169.694 107.954L169.351 107.954L169.35 107.29C169.185 106.81 169.185 106.309 169.35 105.829L169.35 99.4167C169.186 98.9369 169.186 98.4374 169.349 97.9579L169.351 97.5913L169.508 97.5916C169.744 97.149 170.128 96.7339 170.658 96.3803L228.135 58.0621Z"/>
</mask>
<path d="M228.135 58.0621C230.04 56.7924 233.125 56.7972 235.025 58.0734L268.286 80.4127C269.375 81.144 269.836 82.134 269.676 83.0849L269.793 83.0846L269.792 90.6831L269.705 90.6829C269.67 91.4868 269.195 92.2832 268.277 92.8952L210.799 131.214C208.895 132.484 205.81 132.478 203.91 131.202L170.65 108.863C170.244 108.591 169.926 108.282 169.694 107.954L169.351 107.954L169.35 107.29C169.185 106.81 169.185 106.309 169.35 105.829L169.35 99.4167C169.186 98.9369 169.186 98.4374 169.349 97.9579L169.351 97.5913L169.508 97.5916C169.744 97.149 170.128 96.7339 170.658 96.3803L228.135 58.0621Z" fill="#09080D"/>
<path d="M228.135 58.0621L227.562 57.677L228.135 58.0621ZM235.025 58.0734L235.6 57.6902L235.6 57.6902L235.025 58.0734ZM269.676 83.0849L268.869 83.0231L268.766 83.6309L269.68 83.6282L269.676 83.0849ZM269.793 83.0846L270.605 83.0854L270.605 82.5389L269.789 82.5413L269.793 83.0846ZM269.792 90.6831L269.791 91.2264L270.604 91.2277L270.604 90.6839L269.792 90.6831ZM269.705 90.6829L269.706 90.1396L268.916 90.1382L268.893 90.6666L269.705 90.6829ZM210.799 131.214L211.373 131.599L211.373 131.599L210.799 131.214ZM203.91 131.202L203.335 131.585L203.91 131.202ZM170.65 108.863L170.075 109.246L170.075 109.246L170.65 108.863ZM169.694 107.954L170.428 107.722L170.208 107.41L169.693 107.41L169.694 107.954ZM169.351 107.954L168.539 107.954L168.54 108.497L169.352 108.497L169.351 107.954ZM169.35 107.29L170.161 107.291L170.161 107.229L170.141 107.17L169.35 107.29ZM169.35 105.829L170.141 105.951L170.162 105.891L170.162 105.83L169.35 105.829ZM169.35 99.4167L170.162 99.4175L170.162 99.3561L170.142 99.2963L169.35 99.4167ZM169.349 97.9579L170.141 98.0797L170.161 98.0207L170.161 97.9601L169.349 97.9579ZM169.351 97.5913L169.352 97.048L168.541 97.0467L168.539 97.5891L169.351 97.5913ZM169.508 97.5916L169.507 98.1349L170.081 98.1359L170.273 97.7745L169.508 97.5916ZM170.658 96.3803L171.231 96.7655L170.658 96.3803ZM228.135 58.0621L228.709 58.4473C230.296 57.3891 232.867 57.3932 234.45 58.4566L235.025 58.0734L235.6 57.6902C233.383 56.2012 229.784 56.1957 227.562 57.677L228.135 58.0621ZM235.025 58.0734L234.45 58.4566L267.711 80.7959L268.286 80.4127L268.861 80.0295L235.6 57.6902L235.025 58.0734ZM268.286 80.4127L267.711 80.7959C268.618 81.4047 269.003 82.2287 268.869 83.0231L269.676 83.0849L270.482 83.1468C270.67 82.0393 270.132 80.8833 268.861 80.0295L268.286 80.4127ZM269.676 83.0849L269.68 83.6282L269.798 83.6279L269.793 83.0846L269.789 82.5413L269.671 82.5416L269.676 83.0849ZM269.793 83.0846L268.981 83.0838L268.98 90.6822L269.792 90.6831L270.604 90.6839L270.605 83.0854L269.793 83.0846ZM269.792 90.6831L269.793 90.1397L269.706 90.1396L269.705 90.6829L269.704 91.2262L269.791 91.2264L269.792 90.6831ZM269.705 90.6829L268.893 90.6666C268.864 91.3376 268.469 92.0001 267.704 92.51L268.277 92.8952L268.851 93.2804C269.922 92.5662 270.476 91.6361 270.516 90.6992L269.705 90.6829ZM268.277 92.8952L267.704 92.51L210.226 130.829L210.799 131.214L211.373 131.599L268.851 93.2804L268.277 92.8952ZM210.799 131.214L210.226 130.829C208.639 131.887 206.068 131.882 204.485 130.819L203.91 131.202L203.335 131.585C205.552 133.074 209.151 133.08 211.373 131.599L210.799 131.214ZM203.91 131.202L204.485 130.819L171.224 108.48L170.65 108.863L170.075 109.246L203.335 131.585L203.91 131.202ZM170.65 108.863L171.224 108.48C170.886 108.252 170.621 107.996 170.428 107.722L169.694 107.954L168.96 108.185C169.231 108.569 169.602 108.929 170.075 109.246L170.65 108.863ZM169.694 107.954L169.693 107.41L169.35 107.41L169.351 107.954L169.352 108.497L169.695 108.497L169.694 107.954ZM169.351 107.954L170.163 107.954L170.161 107.291L169.35 107.29L168.538 107.29L168.539 107.954L169.351 107.954ZM169.35 107.29L170.141 107.17C170.004 106.769 170.004 106.352 170.141 105.951L169.35 105.829L168.558 105.707C168.367 106.267 168.366 106.85 168.558 107.411L169.35 107.29ZM169.35 105.829L170.162 105.83L170.162 99.4175L169.35 99.4167L168.538 99.4159L168.538 105.828L169.35 105.829ZM169.35 99.4167L170.142 99.2963C170.005 98.896 170.004 98.4792 170.141 98.0797L169.349 97.9579L168.558 97.8362C168.367 98.3955 168.368 98.9778 168.559 99.5371L169.35 99.4167ZM169.349 97.9579L170.161 97.9601L170.163 97.5935L169.351 97.5913L168.539 97.5891L168.537 97.9557L169.349 97.9579ZM169.351 97.5913L169.35 98.1347L169.507 98.1349L169.508 97.5916L169.509 97.0483L169.352 97.048L169.351 97.5913ZM169.508 97.5916L170.273 97.7745C170.469 97.4068 170.788 97.0611 171.231 96.7655L170.658 96.3803L170.085 95.9952C169.467 96.4067 169.019 96.8913 168.743 97.4087L169.508 97.5916ZM170.658 96.3803L171.231 96.7655L228.709 58.4473L228.135 58.0621L227.562 57.677L170.085 95.9952L170.658 96.3803Z" fill="white" fill-opacity="0.25" mask="url(#path-13-inside-2_2404_7148)"/>
<rect x="0.831095" y="0.00142801" width="76.3694" height="47.3559" rx="3.64479" transform="matrix(0.83205 -0.5547 0.830139 0.557556 167.836 98.3784)" fill="#201F2D" stroke="#4E4D51"/>
<path d="M222.994 81.7786L207.973 91.7921C206.936 92.4841 206.921 93.5991 207.94 94.2831L220.388 102.643C221.406 103.328 223.073 103.322 224.109 102.63L239.13 92.6161C240.167 91.9251 240.182 90.8101 239.164 90.1261L226.716 81.7655C225.697 81.0814 224.031 81.0873 222.994 81.7786Z" stroke="white" stroke-opacity="0.25" stroke-width="2"/>
<path d="M208.789 87.916L206.484 86.3672C203.938 84.657 203.975 81.8697 206.568 80.1413C209.16 78.413 213.326 78.3983 215.872 80.1086L218.177 81.6568" stroke="white" stroke-opacity="0.3" stroke-width="2" stroke-linecap="round"/>
<g opacity="0.8">
<path d="M222.86 91.7401C223.638 91.2221 223.649 90.3851 222.885 89.8721C222.121 89.3591 220.871 89.3641 220.094 89.8821C219.316 90.4011 219.305 91.2371 220.069 91.7501C220.832 92.2631 222.082 92.2591 222.86 91.7401Z" fill="#42946E"/>
<path d="M222.416 90.1851L220.538 91.4371L224.226 93.9141L226.104 92.6631L222.416 90.1851Z" fill="#42946E"/>
</g>
<mask id="path-19-inside-3_2404_7148" fill="white">
<path d="M172.135 20.0621C174.04 18.7924 177.125 18.7972 179.025 20.0734L212.286 42.4127C213.375 43.144 213.836 44.134 213.676 45.0849L213.793 45.0846L213.792 52.6831L213.705 52.6829C213.67 53.4868 213.195 54.2832 212.277 54.8952L154.799 93.2139C152.895 94.4835 149.81 94.4783 147.91 93.2021L114.65 70.8628C114.244 70.5906 113.926 70.2822 113.694 69.9537L113.351 69.9536L113.35 69.2905C113.185 68.8099 113.185 68.3093 113.35 67.829L113.35 61.4167C113.186 60.9369 113.186 60.4374 113.349 59.9579L113.351 59.5913L113.508 59.5916C113.744 59.149 114.128 58.7339 114.658 58.3803L172.135 20.0621Z"/>
</mask>
<path d="M172.135 20.0621C174.04 18.7924 177.125 18.7972 179.025 20.0734L212.286 42.4127C213.375 43.144 213.836 44.134 213.676 45.0849L213.793 45.0846L213.792 52.6831L213.705 52.6829C213.67 53.4868 213.195 54.2832 212.277 54.8952L154.799 93.2139C152.895 94.4835 149.81 94.4783 147.91 93.2021L114.65 70.8628C114.244 70.5906 113.926 70.2822 113.694 69.9537L113.351 69.9536L113.35 69.2905C113.185 68.8099 113.185 68.3093 113.35 67.829L113.35 61.4167C113.186 60.9369 113.186 60.4374 113.349 59.9579L113.351 59.5913L113.508 59.5916C113.744 59.149 114.128 58.7339 114.658 58.3803L172.135 20.0621Z" fill="#09080D"/>
<path d="M172.135 20.0621L171.562 19.677L172.135 20.0621ZM179.025 20.0734L179.6 19.6902L179.6 19.6902L179.025 20.0734ZM213.676 45.0849L212.869 45.0231L212.766 45.6309L213.68 45.6282L213.676 45.0849ZM213.793 45.0846L214.605 45.0854L214.605 44.5389L213.789 44.5413L213.793 45.0846ZM213.792 52.6831L213.791 53.2264L214.604 53.2277L214.604 52.6839L213.792 52.6831ZM213.705 52.6829L213.706 52.1396L212.916 52.1382L212.893 52.6666L213.705 52.6829ZM212.277 54.8952L211.704 54.51L212.277 54.8952ZM154.799 93.2139L155.373 93.5991L155.373 93.5991L154.799 93.2139ZM114.65 70.8628L114.075 71.246L114.075 71.246L114.65 70.8628ZM113.694 69.9537L114.428 69.7221L114.208 69.4104L113.693 69.4104L113.694 69.9537ZM113.351 69.9536L112.539 69.9536L112.54 70.4968L113.352 70.4969L113.351 69.9536ZM113.35 69.2905L114.161 69.2906L114.161 69.2295L114.141 69.1699L113.35 69.2905ZM113.35 67.829L114.141 67.951L114.162 67.8912L114.162 67.8298L113.35 67.829ZM113.35 61.4167L114.162 61.4175L114.162 61.3561L114.142 61.2963L113.35 61.4167ZM113.349 59.9579L114.141 60.0797L114.161 60.0207L114.161 59.9601L113.349 59.9579ZM113.351 59.5913L113.352 59.048L112.541 59.0467L112.539 59.5891L113.351 59.5913ZM113.508 59.5916L113.507 60.1349L114.081 60.1359L114.273 59.7745L113.508 59.5916ZM114.658 58.3803L115.231 58.7655L114.658 58.3803ZM172.135 20.0621L172.709 20.4473C174.296 19.3891 176.867 19.3932 178.45 20.4566L179.025 20.0734L179.6 19.6902C177.383 18.2012 173.784 18.1957 171.562 19.677L172.135 20.0621ZM179.025 20.0734L178.45 20.4566L211.711 42.7959L212.286 42.4127L212.861 42.0295L179.6 19.6902L179.025 20.0734ZM212.286 42.4127L211.711 42.7959C212.618 43.4047 213.003 44.2287 212.869 45.0231L213.676 45.0849L214.482 45.1468C214.67 44.0393 214.132 42.8833 212.861 42.0295L212.286 42.4127ZM213.676 45.0849L213.68 45.6282L213.798 45.6279L213.793 45.0846L213.789 44.5413L213.671 44.5416L213.676 45.0849ZM213.793 45.0846L212.981 45.0838L212.98 52.6822L213.792 52.6831L214.604 52.6839L214.605 45.0854L213.793 45.0846ZM213.792 52.6831L213.793 52.1397L213.706 52.1396L213.705 52.6829L213.704 53.2262L213.791 53.2264L213.792 52.6831ZM213.705 52.6829L212.893 52.6666C212.864 53.3376 212.469 54.0001 211.704 54.51L212.277 54.8952L212.851 55.2804C213.922 54.5662 214.476 53.6361 214.516 52.6992L213.705 52.6829ZM212.277 54.8952L211.704 54.51L154.226 92.8288L154.799 93.2139L155.373 93.5991L212.851 55.2804L212.277 54.8952ZM154.799 93.2139L154.226 92.8287C152.639 93.8868 150.068 93.8824 148.485 92.8189L147.91 93.2021L147.335 93.5853C149.552 95.0743 153.151 95.0803 155.373 93.5991L154.799 93.2139ZM147.91 93.2021L148.485 92.8189L115.224 70.4796L114.65 70.8628L114.075 71.246L147.335 93.5853L147.91 93.2021ZM114.65 70.8628L115.224 70.4796C114.886 70.2525 114.621 69.9957 114.428 69.7221L113.694 69.9537L112.96 70.1853C113.231 70.5688 113.602 70.9287 114.075 71.246L114.65 70.8628ZM113.694 69.9537L113.693 69.4104L113.35 69.4103L113.351 69.9536L113.352 70.4969L113.695 70.497L113.694 69.9537ZM113.351 69.9536L114.163 69.9537L114.161 69.2906L113.35 69.2905L112.538 69.2904L112.539 69.9536L113.351 69.9536ZM113.35 69.2905L114.141 69.1699C114.004 68.7694 114.004 68.3516 114.141 67.951L113.35 67.829L112.558 67.7071C112.367 68.2669 112.366 68.8505 112.558 69.4111L113.35 69.2905ZM113.35 67.829L114.162 67.8298L114.162 61.4175L113.35 61.4167L112.538 61.4159L112.538 67.8282L113.35 67.829ZM113.35 61.4167L114.142 61.2963C114.005 60.896 114.004 60.4792 114.141 60.0797L113.349 59.9579L112.558 59.8362C112.367 60.3955 112.368 60.9778 112.559 61.5371L113.35 61.4167ZM113.349 59.9579L114.161 59.9601L114.163 59.5935L113.351 59.5913L112.539 59.5891L112.537 59.9557L113.349 59.9579ZM113.351 59.5913L113.35 60.1347L113.507 60.1349L113.508 59.5916L113.509 59.0483L113.352 59.048L113.351 59.5913ZM113.508 59.5916L114.273 59.7745C114.469 59.4068 114.788 59.0611 115.231 58.7655L114.658 58.3803L114.085 57.9952C113.467 58.4067 113.019 58.8913 112.743 59.4087L113.508 59.5916ZM114.658 58.3803L115.231 58.7655L172.709 20.4473L172.135 20.0621L171.562 19.677L114.085 57.9952L114.658 58.3803Z" fill="white" fill-opacity="0.25" mask="url(#path-19-inside-3_2404_7148)"/>
<rect x="0.831095" y="0.00142801" width="76.3694" height="47.3559" rx="3.64479" transform="matrix(0.83205 -0.5547 0.830139 0.557556 111.836 60.3784)" fill="#201F2D" stroke="#4E4D51"/>
<path d="M147.66 51.2093C147.66 51.2093 160.112 59.5726 176.734 59.6011C176.753 48.4786 164.301 40.1152 164.301 40.1152C164.301 40.1152 158.481 41.7736 154.321 44.5471C150.16 47.3206 147.66 51.2093 147.66 51.2093Z" fill="#131217" stroke="#5A9FD4" stroke-opacity="0.4" stroke-width="1.5"/>
<path opacity="0.6" d="M159.321 52.777L164.307 52.7856L164.321 44.9998" stroke="#42946E" stroke-width="2" stroke-linecap="round" stroke-linejoin="round"/>
<path opacity="0.9" d="M142 34V5M142 5L137 9.64M142 5L147 9.64" stroke="url(#paint2_linear_2404_7148)" stroke-width="1.91099" stroke-linecap="round"/>
<mask id="path-25-inside-4_2404_7148" fill="white">
<path d="M195.135 153.062C197.04 151.792 200.125 151.797 202.025 153.073L235.286 175.413C236.375 176.144 236.836 177.134 236.676 178.085L236.793 178.085L236.792 185.683L236.705 185.683C236.67 186.487 236.195 187.283 235.277 187.895L177.799 226.214C175.895 227.484 172.81 227.478 170.91 226.202L137.65 203.863C137.244 203.591 136.926 203.282 136.694 202.954L136.351 202.954L136.35 202.29C136.185 201.81 136.185 201.309 136.35 200.829L136.35 194.417C136.186 193.937 136.186 193.437 136.349 192.958L136.351 192.591L136.508 192.592C136.744 192.149 137.128 191.734 137.658 191.38L195.135 153.062Z"/>
</mask>
<path d="M195.135 153.062C197.04 151.792 200.125 151.797 202.025 153.073L235.286 175.413C236.375 176.144 236.836 177.134 236.676 178.085L236.793 178.085L236.792 185.683L236.705 185.683C236.67 186.487 236.195 187.283 235.277 187.895L177.799 226.214C175.895 227.484 172.81 227.478 170.91 226.202L137.65 203.863C137.244 203.591 136.926 203.282 136.694 202.954L136.351 202.954L136.35 202.29C136.185 201.81 136.185 201.309 136.35 200.829L136.35 194.417C136.186 193.937 136.186 193.437 136.349 192.958L136.351 192.591L136.508 192.592C136.744 192.149 137.128 191.734 137.658 191.38L195.135 153.062Z" fill="#09080D"/>
<path d="M195.135 153.062L195.709 153.447L195.135 153.062ZM202.025 153.073L202.6 152.69L202.6 152.69L202.025 153.073ZM235.286 175.413L235.861 175.03L235.286 175.413ZM236.676 178.085L235.869 178.023L235.766 178.631L236.68 178.628L236.676 178.085ZM236.793 178.085L237.605 178.085L237.605 177.539L236.789 177.541L236.793 178.085ZM236.792 185.683L236.791 186.226L237.604 186.228L237.604 185.684L236.792 185.683ZM236.705 185.683L236.706 185.14L235.916 185.138L235.893 185.667L236.705 185.683ZM235.277 187.895L234.704 187.51L235.277 187.895ZM177.799 226.214L178.373 226.599L178.373 226.599L177.799 226.214ZM170.91 226.202L170.335 226.585L170.91 226.202ZM137.65 203.863L137.075 204.246L137.075 204.246L137.65 203.863ZM136.694 202.954L137.428 202.722L137.208 202.41L136.693 202.41L136.694 202.954ZM136.351 202.954L135.539 202.954L135.54 203.497L136.352 203.497L136.351 202.954ZM136.35 202.29L137.161 202.291L137.161 202.229L137.141 202.17L136.35 202.29ZM136.35 200.829L137.141 200.951L137.162 200.891L137.162 200.83L136.35 200.829ZM136.35 194.417L137.162 194.417L137.162 194.356L137.142 194.296L136.35 194.417ZM136.349 192.958L137.141 193.08L137.161 193.021L137.161 192.96L136.349 192.958ZM136.351 192.591L136.352 192.048L135.541 192.047L135.539 192.589L136.351 192.591ZM136.508 192.592L136.507 193.135L137.081 193.136L137.273 192.774L136.508 192.592ZM137.658 191.38L137.085 190.995L137.658 191.38ZM195.135 153.062L195.709 153.447C197.296 152.389 199.867 152.393 201.45 153.457L202.025 153.073L202.6 152.69C200.383 151.201 196.784 151.196 194.562 152.677L195.135 153.062ZM202.025 153.073L201.45 153.457L234.711 175.796L235.286 175.413L235.861 175.03L202.6 152.69L202.025 153.073ZM235.286 175.413L234.711 175.796C235.618 176.405 236.003 177.229 235.869 178.023L236.676 178.085L237.482 178.147C237.67 177.039 237.132 175.883 235.861 175.03L235.286 175.413ZM236.676 178.085L236.68 178.628L236.798 178.628L236.793 178.085L236.789 177.541L236.671 177.542L236.676 178.085ZM236.793 178.085L235.981 178.084L235.98 185.682L236.792 185.683L237.604 185.684L237.605 178.085L236.793 178.085ZM236.792 185.683L236.793 185.14L236.706 185.14L236.705 185.683L236.704 186.226L236.791 186.226L236.792 185.683ZM236.705 185.683L235.893 185.667C235.864 186.338 235.469 187 234.704 187.51L235.277 187.895L235.851 188.28C236.922 187.566 237.476 186.636 237.516 185.699L236.705 185.683ZM235.277 187.895L234.704 187.51L177.226 225.829L177.799 226.214L178.373 226.599L235.851 188.28L235.277 187.895ZM177.799 226.214L177.226 225.829C175.639 226.887 173.068 226.882 171.485 225.819L170.91 226.202L170.335 226.585C172.552 228.074 176.151 228.08 178.373 226.599L177.799 226.214ZM170.91 226.202L171.485 225.819L138.224 203.48L137.65 203.863L137.075 204.246L170.335 226.585L170.91 226.202ZM137.65 203.863L138.224 203.48C137.886 203.252 137.621 202.996 137.428 202.722L136.694 202.954L135.96 203.185C136.231 203.569 136.602 203.929 137.075 204.246L137.65 203.863ZM136.694 202.954L136.693 202.41L136.35 202.41L136.351 202.954L136.352 203.497L136.695 203.497L136.694 202.954ZM136.351 202.954L137.163 202.954L137.161 202.291L136.35 202.29L135.538 202.29L135.539 202.954L136.351 202.954ZM136.35 202.29L137.141 202.17C137.004 201.769 137.004 201.352 137.141 200.951L136.35 200.829L135.558 200.707C135.367 201.267 135.366 201.85 135.558 202.411L136.35 202.29ZM136.35 200.829L137.162 200.83L137.162 194.417L136.35 194.417L135.538 194.416L135.538 200.828L136.35 200.829ZM136.35 194.417L137.142 194.296C137.005 193.896 137.004 193.479 137.141 193.08L136.349 192.958L135.558 192.836C135.367 193.396 135.368 193.978 135.559 194.537L136.35 194.417ZM136.349 192.958L137.161 192.96L137.163 192.594L136.351 192.591L135.539 192.589L135.537 192.956L136.349 192.958ZM136.351 192.591L136.35 193.135L136.507 193.135L136.508 192.592L136.509 192.048L136.352 192.048L136.351 192.591ZM136.508 192.592L137.273 192.774C137.469 192.407 137.788 192.061 138.231 191.765L137.658 191.38L137.085 190.995C136.467 191.407 136.019 191.891 135.743 192.409L136.508 192.592ZM137.658 191.38L138.231 191.765L195.709 153.447L195.135 153.062L194.562 152.677L137.085 190.995L137.658 191.38Z" fill="white" fill-opacity="0.25" mask="url(#path-25-inside-4_2404_7148)"/>
<rect x="0.831095" y="0.00142801" width="76.3694" height="47.3559" rx="3.64479" transform="matrix(0.83205 -0.5547 0.830139 0.557556 134.836 193.378)" fill="#201F2D" stroke="#4E4D51"/>
<path d="M189.994 176.779L174.973 186.792C173.936 187.484 173.921 188.599 174.94 189.283L187.388 197.643C188.406 198.328 190.073 198.322 191.109 197.63L206.13 187.616C207.167 186.925 207.182 185.81 206.164 185.126L193.716 176.765C192.697 176.081 191.031 176.087 189.994 176.779Z" stroke="white" stroke-opacity="0.25" stroke-width="2"/>
<path d="M175.789 182.916L173.484 181.367C170.938 179.657 170.975 176.87 173.568 175.141C176.16 173.413 180.326 173.398 182.872 175.109L185.177 176.657" stroke="white" stroke-opacity="0.3" stroke-width="2" stroke-linecap="round"/>
<g opacity="0.8">
<path d="M189.86 186.74C190.638 186.222 190.649 185.385 189.885 184.872C189.121 184.359 187.871 184.364 187.094 184.882C186.316 185.401 186.305 186.237 187.069 186.75C187.832 187.263 189.082 187.259 189.86 186.74Z" fill="#42946E"/>
<path d="M189.416 185.185L187.538 186.437L191.226 188.914L193.104 187.663L189.416 185.185Z" fill="#42946E"/>
</g>
<mask id="path-31-inside-5_2404_7148" fill="white">
<path d="M140.135 117.062C142.04 115.792 145.125 115.797 147.025 117.073L180.286 139.413C181.375 140.144 181.836 141.134 181.676 142.085L181.793 142.085L181.792 149.683L181.705 149.683C181.67 150.487 181.195 151.283 180.277 151.895L122.799 190.214C120.895 191.484 117.81 191.478 115.91 190.202L82.6495 167.863C82.2442 167.591 81.9263 167.282 81.6942 166.954L81.3509 166.954L81.3496 166.29C81.1851 165.81 81.1854 165.309 81.3496 164.829L81.3501 158.417C81.1862 157.937 81.1857 157.437 81.3494 156.958L81.3508 156.591L81.5083 156.592C81.7438 156.149 82.1276 155.734 82.658 155.38L140.135 117.062Z"/>
</mask>
<path d="M140.135 117.062C142.04 115.792 145.125 115.797 147.025 117.073L180.286 139.413C181.375 140.144 181.836 141.134 181.676 142.085L181.793 142.085L181.792 149.683L181.705 149.683C181.67 150.487 181.195 151.283 180.277 151.895L122.799 190.214C120.895 191.484 117.81 191.478 115.91 190.202L82.6495 167.863C82.2442 167.591 81.9263 167.282 81.6942 166.954L81.3509 166.954L81.3496 166.29C81.1851 165.81 81.1854 165.309 81.3496 164.829L81.3501 158.417C81.1862 157.937 81.1857 157.437 81.3494 156.958L81.3508 156.591L81.5083 156.592C81.7438 156.149 82.1276 155.734 82.658 155.38L140.135 117.062Z" fill="#09080D"/>
<path d="M140.135 117.062L139.562 116.677L140.135 117.062ZM147.025 117.073L147.6 116.69L147.6 116.69L147.025 117.073ZM181.676 142.085L180.869 142.023L180.766 142.631L181.68 142.628L181.676 142.085ZM181.793 142.085L182.605 142.085L182.605 141.539L181.789 141.541L181.793 142.085ZM181.792 149.683L181.791 150.226L182.604 150.228L182.604 149.684L181.792 149.683ZM181.705 149.683L181.706 149.14L180.916 149.138L180.893 149.667L181.705 149.683ZM180.277 151.895L180.851 152.28L180.277 151.895ZM122.799 190.214L123.373 190.599L123.373 190.599L122.799 190.214ZM115.91 190.202L115.335 190.585L115.91 190.202ZM82.6495 167.863L82.0747 168.246L82.0747 168.246L82.6495 167.863ZM81.6942 166.954L82.4281 166.722L82.208 166.41L81.6932 166.41L81.6942 166.954ZM81.3509 166.954L80.5389 166.954L80.54 167.497L81.3518 167.497L81.3509 166.954ZM81.3496 166.29L82.1615 166.291L82.1614 166.229L82.141 166.17L81.3496 166.29ZM81.3496 164.829L82.1411 164.951L82.1616 164.891L82.1616 164.83L81.3496 164.829ZM81.3501 158.417L82.162 158.417L82.162 158.356L82.1416 158.296L81.3501 158.417ZM81.3494 156.958L82.1409 157.08L82.1611 157.021L82.1613 156.96L81.3494 156.958ZM81.3508 156.591L81.3517 156.048L80.541 156.047L80.5389 156.589L81.3508 156.591ZM81.5083 156.592L81.5073 157.135L82.0809 157.136L82.2732 156.774L81.5083 156.592ZM82.658 155.38L83.2314 155.765L82.658 155.38ZM140.135 117.062L140.709 117.447C142.296 116.389 144.867 116.393 146.45 117.457L147.025 117.073L147.6 116.69C145.383 115.201 141.784 115.196 139.562 116.677L140.135 117.062ZM147.025 117.073L146.45 117.457L179.711 139.796L180.286 139.413L180.861 139.03L147.6 116.69L147.025 117.073ZM180.286 139.413L179.711 139.796C180.618 140.405 181.003 141.229 180.869 142.023L181.676 142.085L182.482 142.147C182.67 141.039 182.132 139.883 180.861 139.03L180.286 139.413ZM181.676 142.085L181.68 142.628L181.798 142.628L181.793 142.085L181.789 141.541L181.671 141.542L181.676 142.085ZM181.793 142.085L180.981 142.084L180.98 149.682L181.792 149.683L182.604 149.684L182.605 142.085L181.793 142.085ZM181.792 149.683L181.793 149.14L181.706 149.14L181.705 149.683L181.704 150.226L181.791 150.226L181.792 149.683ZM181.705 149.683L180.893 149.667C180.864 150.338 180.469 151 179.704 151.51L180.277 151.895L180.851 152.28C181.922 151.566 182.476 150.636 182.516 149.699L181.705 149.683ZM180.277 151.895L179.704 151.51L122.226 189.829L122.799 190.214L123.373 190.599L180.851 152.28L180.277 151.895ZM122.799 190.214L122.226 189.829C120.639 190.887 118.068 190.882 116.485 189.819L115.91 190.202L115.335 190.585C117.552 192.074 121.151 192.08 123.373 190.599L122.799 190.214ZM115.91 190.202L116.485 189.819L83.2243 167.48L82.6495 167.863L82.0747 168.246L115.335 190.585L115.91 190.202ZM82.6495 167.863L83.2243 167.48C82.8861 167.252 82.6214 166.996 82.4281 166.722L81.6942 166.954L80.9602 167.185C81.2311 167.569 81.6023 167.929 82.0747 168.246L82.6495 167.863ZM81.6942 166.954L81.6932 166.41L81.3499 166.41L81.3509 166.954L81.3518 167.497L81.6952 167.497L81.6942 166.954ZM81.3509 166.954L82.1628 166.954L82.1615 166.291L81.3496 166.29L80.5376 166.29L80.5389 166.954L81.3509 166.954ZM81.3496 166.29L82.141 166.17C82.0039 165.769 82.0041 165.352 82.1411 164.951L81.3496 164.829L80.5582 164.707C80.3667 165.267 80.3663 165.85 80.5581 166.411L81.3496 166.29ZM81.3496 164.829L82.1616 164.83L82.162 158.417L81.3501 158.417L80.5382 158.416L80.5377 164.828L81.3496 164.829ZM81.3501 158.417L82.1416 158.296C82.0049 157.896 82.0045 157.479 82.1409 157.08L81.3494 156.958L80.5578 156.836C80.3669 157.396 80.3676 157.978 80.5586 158.537L81.3501 158.417ZM81.3494 156.958L82.1613 156.96L82.1627 156.594L81.3508 156.591L80.5389 156.589L80.5374 156.956L81.3494 156.958ZM81.3508 156.591L81.3499 157.135L81.5073 157.135L81.5083 156.592L81.5092 156.048L81.3517 156.048L81.3508 156.591ZM81.5083 156.592L82.2732 156.774C82.4688 156.407 82.788 156.061 83.2314 155.765L82.658 155.38L82.0845 154.995C81.4672 155.407 81.0187 155.891 80.7433 156.409L81.5083 156.592ZM82.658 155.38L83.2314 155.765L140.709 117.447L140.135 117.062L139.562 116.677L82.0845 154.995L82.658 155.38Z" fill="white" fill-opacity="0.25" mask="url(#path-31-inside-5_2404_7148)"/>
<rect x="0.831095" y="0.00142801" width="76.3694" height="47.3559" rx="3.64479" transform="matrix(0.83205 -0.5547 0.830139 0.557556 79.8362 157.378)" fill="#201F2D" stroke="#4E4D51"/>
<path d="M134.994 140.779L119.973 150.792C118.936 151.484 118.921 152.599 119.94 153.283L132.388 161.643C133.406 162.328 135.073 162.322 136.109 161.63L151.13 151.616C152.167 150.925 152.182 149.81 151.164 149.126L138.716 140.765C137.697 140.081 136.031 140.087 134.994 140.779Z" stroke="white" stroke-opacity="0.25" stroke-width="2"/>
<path d="M120.789 146.916L118.484 145.367C115.938 143.657 115.975 140.87 118.568 139.141C121.16 137.413 125.326 137.398 127.872 139.109L130.177 140.657" stroke="white" stroke-opacity="0.3" stroke-width="2" stroke-linecap="round"/>
<g opacity="0.8">
<path d="M134.86 150.74C135.638 150.222 135.649 149.385 134.885 148.872C134.121 148.359 132.871 148.364 132.094 148.882C131.316 149.401 131.305 150.237 132.069 150.75C132.832 151.263 134.082 151.259 134.86 150.74Z" fill="#42946E"/>
<path d="M134.416 149.185L132.538 150.437L136.226 152.914L138.104 151.663L134.416 149.185Z" fill="#42946E"/>
</g>
<path d="M162.5 173.5L152.227 165.671" stroke="url(#paint3_linear_2404_7148)" stroke-width="2" stroke-linecap="round"/>
<path d="M197.5 76.5L187.227 68.6706" stroke="url(#paint4_linear_2404_7148)" stroke-width="2" stroke-linecap="round"/>
<mask id="path-39-inside-6_2404_7148" fill="white">
<path d="M84.1355 79.0623C86.0401 77.7925 89.125 77.7974 91.0253 79.0735L124.286 101.413C125.375 102.144 125.837 103.134 125.676 104.085L125.793 104.085L125.793 111.683L125.705 111.683C125.671 112.487 125.196 113.283 124.278 113.895L66.7994 152.214C64.8948 153.484 61.8107 153.478 59.9105 152.202L26.6498 129.863C26.2444 129.591 25.9265 129.282 25.6944 128.954L25.3511 128.954L25.3498 128.291C25.1853 127.81 25.1856 127.309 25.3499 126.829L25.3504 120.417C25.1864 119.937 25.1859 119.437 25.3496 118.958L25.3511 118.591L25.5085 118.592C25.744 118.149 26.1279 117.734 26.6582 117.38L84.1355 79.0623Z"/>
</mask>
<path d="M84.1355 79.0623C86.0401 77.7925 89.125 77.7974 91.0253 79.0735L124.286 101.413C125.375 102.144 125.837 103.134 125.676 104.085L125.793 104.085L125.793 111.683L125.705 111.683C125.671 112.487 125.196 113.283 124.278 113.895L66.7994 152.214C64.8948 153.484 61.8107 153.478 59.9105 152.202L26.6498 129.863C26.2444 129.591 25.9265 129.282 25.6944 128.954L25.3511 128.954L25.3498 128.291C25.1853 127.81 25.1856 127.309 25.3499 126.829L25.3504 120.417C25.1864 119.937 25.1859 119.437 25.3496 118.958L25.3511 118.591L25.5085 118.592C25.744 118.149 26.1279 117.734 26.6582 117.38L84.1355 79.0623Z" fill="#09080D"/>
<path d="M84.1355 79.0623L83.562 78.6771L84.1355 79.0623ZM91.0253 79.0735L91.6001 78.6904L91.6001 78.6903L91.0253 79.0735ZM124.286 101.413L124.861 101.03L124.286 101.413ZM125.676 104.085L124.869 104.023L124.766 104.631L125.68 104.628L125.676 104.085ZM125.793 104.085L126.605 104.086L126.605 103.539L125.789 103.541L125.793 104.085ZM125.793 111.683L125.792 112.226L126.604 112.228L126.605 111.684L125.793 111.683ZM125.705 111.683L125.706 111.14L124.916 111.138L124.893 111.667L125.705 111.683ZM124.278 113.895L124.851 114.28L124.278 113.895ZM66.7994 152.214L67.3729 152.599L67.3729 152.599L66.7994 152.214ZM59.9105 152.202L59.3357 152.585L59.9105 152.202ZM26.6498 129.863L26.0749 130.246L26.075 130.246L26.6498 129.863ZM25.6944 128.954L26.4284 128.722L26.2083 128.411L25.6934 128.41L25.6944 128.954ZM25.3511 128.954L24.5392 128.954L24.5402 129.497L25.3521 129.497L25.3511 128.954ZM25.3498 128.291L26.1617 128.291L26.1616 128.23L26.1412 128.17L25.3498 128.291ZM25.3499 126.829L26.1414 126.951L26.1618 126.891L26.1618 126.83L25.3499 126.829ZM25.3504 120.417L26.1623 120.418L26.1623 120.356L26.1418 120.296L25.3504 120.417ZM25.3496 118.958L26.1412 119.08L26.1613 119.021L26.1615 118.96L25.3496 118.958ZM25.3511 118.591L25.352 118.048L24.5413 118.047L24.5391 118.589L25.3511 118.591ZM25.5085 118.592L25.5076 119.135L26.0811 119.136L26.2734 118.775L25.5085 118.592ZM26.6582 117.38L27.2317 117.766L26.6582 117.38ZM84.1355 79.0623L84.709 79.4474C86.2963 78.3892 88.8671 78.3934 90.4506 79.4568L91.0253 79.0735L91.6001 78.6903C89.3829 77.2014 85.7839 77.1958 83.562 78.6771L84.1355 79.0623ZM91.0253 79.0735L90.4505 79.4567L123.711 101.796L124.286 101.413L124.861 101.03L91.6001 78.6904L91.0253 79.0735ZM124.286 101.413L123.711 101.796C124.618 102.405 125.003 103.229 124.869 104.023L125.676 104.085L126.483 104.147C126.67 103.039 126.132 101.883 124.861 101.03L124.286 101.413ZM125.676 104.085L125.68 104.628L125.798 104.628L125.793 104.085L125.789 103.541L125.671 103.542L125.676 104.085ZM125.793 104.085L124.982 104.084L124.981 111.682L125.793 111.683L126.605 111.684L126.605 104.086L125.793 104.085ZM125.793 111.683L125.794 111.14L125.706 111.14L125.705 111.683L125.704 112.226L125.792 112.226L125.793 111.683ZM125.705 111.683L124.893 111.667C124.865 112.338 124.469 113 123.704 113.51L124.278 113.895L124.851 114.28C125.922 113.566 126.476 112.636 126.517 111.699L125.705 111.683ZM124.278 113.895L123.704 113.51L66.226 151.829L66.7994 152.214L67.3729 152.599L124.851 114.28L124.278 113.895ZM66.7994 152.214L66.226 151.829C64.6388 152.887 62.0687 152.883 60.4852 151.819L59.9105 152.202L59.3357 152.585C61.5526 154.074 65.1508 154.08 67.3729 152.599L66.7994 152.214ZM59.9105 152.202L60.4852 151.819L27.2245 129.48L26.6498 129.863L26.075 130.246L59.3357 152.585L59.9105 152.202ZM26.6498 129.863L27.2246 129.48C26.8864 129.253 26.6217 128.996 26.4284 128.722L25.6944 128.954L24.9605 129.185C25.2314 129.569 25.6025 129.929 26.0749 130.246L26.6498 129.863ZM25.6944 128.954L25.6934 128.41L25.3501 128.41L25.3511 128.954L25.3521 129.497L25.6954 129.497L25.6944 128.954ZM25.3511 128.954L26.163 128.954L26.1617 128.291L25.3498 128.291L24.5379 128.291L24.5392 128.954L25.3511 128.954ZM25.3498 128.291L26.1412 128.17C26.0041 127.769 26.0043 127.352 26.1414 126.951L25.3499 126.829L24.5584 126.707C24.3669 127.267 24.3665 127.851 24.5584 128.411L25.3498 128.291ZM25.3499 126.829L26.1618 126.83L26.1623 120.418L25.3504 120.417L24.5384 120.416L24.538 126.828L25.3499 126.829ZM25.3504 120.417L26.1418 120.296C26.0051 119.896 26.0047 119.479 26.1412 119.08L25.3496 118.958L24.5581 118.836C24.3671 119.396 24.3678 119.978 24.5589 120.537L25.3504 120.417ZM25.3496 118.958L26.1615 118.96L26.163 118.594L25.3511 118.591L24.5391 118.589L24.5377 118.956L25.3496 118.958ZM25.3511 118.591L25.3501 119.135L25.5076 119.135L25.5085 118.592L25.5094 118.048L25.352 118.048L25.3511 118.591ZM25.5085 118.592L26.2734 118.775C26.4691 118.407 26.7883 118.061 27.2317 117.766L26.6582 117.38L26.0848 116.995C25.4675 117.407 25.0189 117.891 24.7436 118.409L25.5085 118.592ZM26.6582 117.38L27.2317 117.766L84.709 79.4474L84.1355 79.0623L83.562 78.6771L26.0848 116.995L26.6582 117.38Z" fill="white" fill-opacity="0.25" mask="url(#path-39-inside-6_2404_7148)"/>
<rect x="0.831095" y="0.00142801" width="76.3694" height="47.3559" rx="3.64479" transform="matrix(0.83205 -0.5547 0.830139 0.557556 23.8362 119.378)" fill="#201F2D" stroke="#4E4D51"/>
<path d="M59.6602 109.209C59.6602 109.209 72.1123 117.573 88.7339 117.601C88.7529 106.479 76.3009 98.115 76.3009 98.115C76.3009 98.115 70.4807 99.774 66.3204 102.547C62.1602 105.321 59.6602 109.209 59.6602 109.209Z" fill="#131217" stroke="#D56FBF" stroke-opacity="0.4" stroke-width="1.5"/>
<path d="M70.7517 109.567L77.7518 105.567" stroke="#D56FBF" stroke-dasharray="2 2"/>
<path d="M61.1294 79.5549L37.832 95.086C37.3724 95.393 37.2482 96.014 37.5546 96.473L39.7734 99.8011C40.0797 100.261 40.7006 100.385 41.1601 100.079L64.4576 84.5471C64.9171 84.2408 65.0413 83.62 64.7349 83.1605L62.5161 79.8322C62.2098 79.3727 61.5889 79.2486 61.1294 79.5549Z" fill="#1A1820" stroke="#D56FBF"/>
<path d="M43.5174 93.7L44.6268 95.364L41.2986 97.583L40.1892 95.918L43.5174 93.7Z" fill="#D56FBF" stroke="#D56FBF"/>
<path d="M49.3419 89.817L50.4513 91.481L47.1231 93.7L46.0137 92.036L49.3419 89.817Z" fill="#D56FBF" stroke="#D56FBF"/>
<path d="M55.1661 85.934L56.2755 87.5981L52.9472 89.817L51.8379 88.153L55.1661 85.934Z" fill="#D56FBF" stroke="#D56FBF"/>
<path d="M60.9906 82.0511L62.1 83.7152L58.7718 85.934L57.6624 84.2699L60.9906 82.0511Z" fill="#D56FBF" stroke="#D56FBF"/>
<defs>
<linearGradient id="paint0_linear_2404_7148" x1="229.25" y1="165" x2="229.25" y2="150" gradientUnits="userSpaceOnUse">
<stop stop-color="#6218E0"/>
<stop offset="1" stop-color="#6218E0" stop-opacity="0"/>
</linearGradient>
<linearGradient id="paint1_linear_2404_7148" x1="164" y1="122.5" x2="186.5" y2="122.5" gradientUnits="userSpaceOnUse">
<stop stop-color="#6218E0" stop-opacity="0"/>
<stop offset="1" stop-color="#6218E0"/>
</linearGradient>
<linearGradient id="paint2_linear_2404_7148" x1="142" y1="7.9" x2="142" y2="32.84" gradientUnits="userSpaceOnUse">
<stop stop-color="#42946E" stop-opacity="0.8"/>
<stop offset="1" stop-color="#42946E" stop-opacity="0"/>
</linearGradient>
<linearGradient id="paint3_linear_2404_7148" x1="156.245" y1="176.179" x2="170.255" y2="170.822" gradientUnits="userSpaceOnUse">
<stop stop-color="#6218E0"/>
<stop offset="1" stop-color="#6218E0" stop-opacity="0"/>
</linearGradient>
<linearGradient id="paint4_linear_2404_7148" x1="191.245" y1="79.1786" x2="205.255" y2="73.8216" gradientUnits="userSpaceOnUse">
<stop stop-color="#6218E0"/>
<stop offset="1" stop-color="#6218E0" stop-opacity="0"/>
</linearGradient>
</defs>
</svg>
