<?xml version="1.0" encoding="UTF-8"?><svg id="uuid-93da3710-30fd-461b-a52a-4a503f3cc0c1" xmlns="http://www.w3.org/2000/svg" viewBox="0 0 1286.67 205.97"><path d="M461.09,101.95c12.42-24.63,36.33-38.46,63.33-36.82,13.8.84,25.28,5.7,36.41,15.48l.16-66.96L593.97.08l-.33,139.47c-.09,37.11-30.26,64.38-66.21,66.2-27.47,1.39-52.19-11.24-65.21-35.77-11.15-21-11.39-46.1-1.12-68.03ZM549.54,164.55c15.88-16.27,15.4-42.08.39-58.17-13.46-14.44-36.99-15.04-51.08-1.12-16.25,16.06-16.48,43.21-.34,59.43,13.62,13.7,37.14,14.08,51.03-.15Z" style="fill:#fff;"/><path d="M730.26,79.99c28.56,24.15,32.72,70.78,8.41,101.17-13.12,16.41-32.4,24.15-53.17,24.61-38.16.83-68.65-26.76-71.29-65.22l-.08-126.89L647.15,0l.1,81.22c21.85-22.61,60.24-20.49,83.01-1.23ZM712,162.01c11.68-14.22,12.07-33.19,3.69-48.51-6.06-11.06-17.4-17.44-28.99-18.13-12.36-.74-24.13,4.02-31.56,14.31-11.74,16.25-11.04,39.58,2.96,54.46,14.46,15.37,40.38,14.35,53.91-2.13Z" style="fill:#fff;"/><path d="M1162.75,182.87l15.57,20h-39.55s-52.07-64.86-52.07-64.86v64.75s-32.4.14-32.4.14l-.03-189.11,31.72-13.64c.72,2.75.79,5.38.79,8.81l.06,116.74,49.51-57.14,39.23.2-54.42,62.68,10.53,13.01,31.05,38.43Z" style="fill:#fff;"/><polygon points="293.61 203.44 0 203.45 .04 171.09 293.56 171.08 293.61 203.44" style="fill:#fff;"/><polygon points="292.74 153.19 46.81 153.21 46.85 120.84 292.7 120.84 292.74 153.19" style="fill:#fff;"/><polygon points="293.61 99.23 93.2 99.24 93.24 66.88 293.56 66.87 293.61 99.23" style="fill:#fff;"/><path d="M392.83,100.77c-10.37-7.39-24.67-7.29-35.09-.68-7.69,4.87-12.81,14.27-12.85,23.68l-.33,79.21-32.58-.13.33-82.08c.1-25.59,17.46-46.4,41.81-52.89,25.96-6.92,58.54-2.11,73.62,22.46,6.15,10.02,9.2,21.51,9.23,33.48l.15,79.09-32.52.05-.3-77.93c-.03-9.18-3.71-18.73-11.46-24.25Z" style="fill:#fff;"/><path d="M1281.76,183.43c-13.72,23.86-48.72,25.77-73.2,19.13-12.5-3.39-28.16-14.55-32.09-28.6l26.02-13.87c5.49,9.46,13.09,15.37,23.49,17.15,10.27,1.76,28.46.75,27.7-12.99-.29-5.2-3.93-9.69-9.64-11.38l-34.53-10.24c-10-2.96-19.67-9.82-24.25-19.48-4.83-10.19-4.41-23.22.33-33.28,12.41-26.31,50.54-30.5,75.16-19.45,9.82,4.41,18.66,11.7,22.18,21.92l-25.01,13.3c-1.74-1.81-3.91-4.59-5.91-6.44-7.71-7.12-19.53-8.06-29.15-5.11-5.33,1.63-8.43,6.22-8.48,11.17-.19,17.89,39.87,12.32,61.42,31,12.79,11.09,13.65,33.8,5.97,47.17Z" style="fill:#fff;"/><path d="M944.01,133.24c-.28,11.68,3.02,21.36,10.36,29.75,7.95,9.09,19.54,13.1,32.08,11.62,10.66-1.26,20.65-7.34,27.12-18.32l26.35,17.06c-11.66,21.04-33.67,32.2-57.44,32.6-35.32.6-65.31-23.32-70.95-58.3-3.74-23.18,2.82-46.55,19.62-63.08,30.09-29.61,86.01-26.57,108.62,11.64l-26.12,18.04c-8.19-14.13-21.64-20.43-37.53-18.57-18.47,2.16-31.62,18.29-32.09,37.55Z" style="fill:#fff;"/><path d="M804.25,125.24l-.34,77.66-32.78.04.59-82.88c.26-36.8,37.96-60.32,73.62-54.57l-.13,32.04c-8.58-1.26-16.54-1.93-24.53,1.71-9.57,4.37-16.38,14.47-16.43,26.01Z" style="fill:#fff;"/><polygon points="861.03 202.96 861 195.56 861.02 122.82 860.82 97.43 860.97 68.72 893.51 68.55 893.37 202.93 861.03 202.96" style="fill:#fff;"/><path d="M870.64,49.91c-9.99-2.99-15.21-12.78-13.86-22.3s9.32-16.69,19.65-17.17c12.8-.59,22.47,10.44,21.1,22.81-1.36,12.29-13.7,20.61-26.89,16.66Z" style="fill:#fff;"/></svg>