<?xml version="1.0" encoding="UTF-8"?><svg id="uuid-f4ac6b6d-096b-4471-8bbf-212c5dfbc7a4" xmlns="http://www.w3.org/2000/svg" xmlns:xlink="http://www.w3.org/1999/xlink" viewBox="0 0 1286.67 205.97"><defs><linearGradient id="uuid-5d92d950-51f5-42ad-943f-3053121ea40b" x1="1321.58" y1="113.59" x2="306.01" y2="99.45" gradientUnits="userSpaceOnUse"><stop offset="0" stop-color="#282882"/><stop offset=".06" stop-color="#292c84"/><stop offset=".13" stop-color="#2f388c"/><stop offset=".2" stop-color="#374d99"/><stop offset=".26" stop-color="#446aac"/><stop offset=".32" stop-color="#5189bf"/><stop offset=".4" stop-color="#3a5b98"/><stop offset=".49" stop-color="#263477"/><stop offset=".58" stop-color="#18175f"/><stop offset=".65" stop-color="#100651"/><stop offset=".7" stop-color="#0d004c"/><stop offset="1" stop-color="#0d004c"/></linearGradient><linearGradient id="uuid-0167bf6f-584e-4ed2-9a54-fae6d4f66b26" x1="1321.61" y1="112.03" x2="306.03" y2="97.89" xlink:href="#uuid-5d92d950-51f5-42ad-943f-3053121ea40b"/><linearGradient id="uuid-e0ecdef1-25e7-4951-adf7-cdfa7b3c89e4" x1="1321.7" y1="105.03" x2="306.13" y2="90.89" xlink:href="#uuid-5d92d950-51f5-42ad-943f-3053121ea40b"/><linearGradient id="uuid-a81ffd93-1085-4428-ab4b-c00c39f48586" x1="1320.33" y1="203.6" x2="304.75" y2="189.46" xlink:href="#uuid-5d92d950-51f5-42ad-943f-3053121ea40b"/><linearGradient id="uuid-ab36dc1e-a230-45a0-a097-8b6a214aedf4" x1="1321.03" y1="153.05" x2="305.46" y2="138.91" xlink:href="#uuid-5d92d950-51f5-42ad-943f-3053121ea40b"/><linearGradient id="uuid-ba0a926d-88db-4385-bd26-d97f57028002" x1="1321.79" y1="98.76" x2="306.21" y2="84.63" xlink:href="#uuid-5d92d950-51f5-42ad-943f-3053121ea40b"/><linearGradient id="uuid-c670d332-db11-48e2-8034-5eabdec3ba97" x1="1321.11" y1="147.51" x2="305.53" y2="133.37" xlink:href="#uuid-5d92d950-51f5-42ad-943f-3053121ea40b"/><linearGradient id="uuid-3bea5ea5-bd9f-4c56-aa6f-9bfbb8690adf" x1="1321.26" y1="136.52" x2="305.69" y2="122.38" xlink:href="#uuid-5d92d950-51f5-42ad-943f-3053121ea40b"/><linearGradient id="uuid-25f0d2ce-d46a-4071-8f54-d6fcd6e0465f" x1="1321.22" y1="140.05" x2="305.64" y2="125.91" xlink:href="#uuid-5d92d950-51f5-42ad-943f-3053121ea40b"/><linearGradient id="uuid-3c641e86-0d08-4db2-92c4-62aee36e1650" x1="1321.2" y1="140.99" x2="305.63" y2="126.86" xlink:href="#uuid-5d92d950-51f5-42ad-943f-3053121ea40b"/><linearGradient id="uuid-2d6e78bb-a869-4f57-8673-52654dac395b" x1="1321.19" y1="141.93" x2="305.61" y2="127.8" xlink:href="#uuid-5d92d950-51f5-42ad-943f-3053121ea40b"/><linearGradient id="uuid-6ceb2443-df3e-4cae-b621-319bf804eb3c" x1="1322.65" y1="36.86" x2="307.08" y2="22.72" xlink:href="#uuid-5d92d950-51f5-42ad-943f-3053121ea40b"/></defs><path d="M461.09,101.95c12.42-24.63,36.33-38.46,63.33-36.82,13.8.84,25.28,5.7,36.41,15.48l.16-66.96L593.97.08l-.33,139.47c-.09,37.11-30.26,64.38-66.21,66.2-27.47,1.39-52.19-11.24-65.21-35.77-11.15-21-11.39-46.1-1.12-68.03ZM549.54,164.55c15.88-16.27,15.4-42.08.39-58.17-13.46-14.44-36.99-15.04-51.08-1.12-16.25,16.06-16.48,43.21-.34,59.43,13.62,13.7,37.14,14.08,51.03-.15Z" style="fill:url(#uuid-5d92d950-51f5-42ad-943f-3053121ea40b);"/><path d="M730.26,79.99c28.56,24.15,32.72,70.78,8.41,101.17-13.12,16.41-32.4,24.15-53.17,24.61-38.16.83-68.65-26.76-71.29-65.22l-.08-126.89L647.15,0l.1,81.22c21.85-22.61,60.24-20.49,83.01-1.23ZM712,162.01c11.68-14.22,12.07-33.19,3.69-48.51-6.06-11.06-17.4-17.44-28.99-18.13-12.36-.74-24.13,4.02-31.56,14.31-11.74,16.25-11.04,39.58,2.96,54.46,14.46,15.37,40.38,14.35,53.91-2.13Z" style="fill:url(#uuid-0167bf6f-584e-4ed2-9a54-fae6d4f66b26);"/><path d="M1162.75,182.87l15.57,20h-39.55s-52.07-64.86-52.07-64.86v64.75s-32.4.14-32.4.14l-.03-189.11,31.72-13.64c.72,2.75.79,5.38.79,8.81l.06,116.74,49.51-57.14,39.23.2-54.42,62.68,10.53,13.01,31.05,38.43Z" style="fill:url(#uuid-e0ecdef1-25e7-4951-adf7-cdfa7b3c89e4);"/><polygon points="293.61 203.44 0 203.45 .04 171.09 293.56 171.08 293.61 203.44" style="fill:url(#uuid-a81ffd93-1085-4428-ab4b-c00c39f48586);"/><polygon points="292.74 153.19 46.81 153.21 46.85 120.84 292.7 120.84 292.74 153.19" style="fill:url(#uuid-ab36dc1e-a230-45a0-a097-8b6a214aedf4);"/><polygon points="293.61 99.23 93.2 99.24 93.24 66.88 293.56 66.87 293.61 99.23" style="fill:url(#uuid-ba0a926d-88db-4385-bd26-d97f57028002);"/><path d="M392.83,100.77c-10.37-7.39-24.67-7.29-35.09-.68-7.69,4.87-12.81,14.27-12.85,23.68l-.33,79.21-32.58-.13.33-82.08c.1-25.59,17.46-46.4,41.81-52.89,25.96-6.92,58.54-2.11,73.62,22.46,6.15,10.02,9.2,21.51,9.23,33.48l.15,79.09-32.52.05-.3-77.93c-.03-9.18-3.71-18.73-11.46-24.25Z" style="fill:url(#uuid-c670d332-db11-48e2-8034-5eabdec3ba97);"/><path d="M1281.76,183.43c-13.72,23.86-48.72,25.77-73.2,19.13-12.5-3.39-28.16-14.55-32.09-28.6l26.02-13.87c5.49,9.46,13.09,15.37,23.49,17.15,10.27,1.76,28.46.75,27.7-12.99-.29-5.2-3.93-9.69-9.64-11.38l-34.53-10.24c-10-2.96-19.67-9.82-24.25-19.48-4.83-10.19-4.41-23.22.33-33.28,12.41-26.31,50.54-30.5,75.16-19.45,9.82,4.41,18.66,11.7,22.18,21.92l-25.01,13.3c-1.74-1.81-3.91-4.59-5.91-6.44-7.71-7.12-19.53-8.06-29.15-5.11-5.33,1.63-8.43,6.22-8.48,11.17-.19,17.89,39.87,12.32,61.42,31,12.79,11.09,13.65,33.8,5.97,47.17Z" style="fill:url(#uuid-3bea5ea5-bd9f-4c56-aa6f-9bfbb8690adf);"/><path d="M944.01,133.24c-.28,11.68,3.02,21.36,10.36,29.75,7.95,9.09,19.54,13.1,32.08,11.62,10.66-1.26,20.65-7.34,27.12-18.32l26.35,17.06c-11.66,21.04-33.67,32.2-57.44,32.6-35.32.6-65.31-23.32-70.95-58.3-3.74-23.18,2.82-46.55,19.62-63.08,30.09-29.61,86.01-26.57,108.62,11.64l-26.12,18.04c-8.19-14.13-21.64-20.43-37.53-18.57-18.47,2.16-31.62,18.29-32.09,37.55Z" style="fill:url(#uuid-25f0d2ce-d46a-4071-8f54-d6fcd6e0465f);"/><path d="M804.25,125.24l-.34,77.66-32.78.04.59-82.88c.26-36.8,37.96-60.32,73.62-54.57l-.13,32.04c-8.58-1.26-16.54-1.93-24.53,1.71-9.57,4.37-16.38,14.47-16.43,26.01Z" style="fill:url(#uuid-3c641e86-0d08-4db2-92c4-62aee36e1650);"/><polygon points="861.03 202.96 861 195.56 861.02 122.82 860.82 97.43 860.97 68.72 893.51 68.55 893.37 202.93 861.03 202.96" style="fill:url(#uuid-2d6e78bb-a869-4f57-8673-52654dac395b);"/><path d="M870.64,49.91c-9.99-2.99-15.21-12.78-13.86-22.3s9.32-16.69,19.65-17.17c12.8-.59,22.47,10.44,21.1,22.81-1.36,12.29-13.7,20.61-26.89,16.66Z" style="fill:url(#uuid-6ceb2443-df3e-4cae-b621-319bf804eb3c);"/></svg>